G04 EAGLE Gerber RS-274X export*
G75*
%MOMM*%
%FSLAX34Y34*%
%LPD*%
%INSoldermask Bottom*%
%IPPOS*%
%AMOC8*
5,1,8,0,0,1.08239X$1,22.5*%
G01*
%ADD10C,3.378200*%
%ADD11C,1.727200*%
%ADD12C,2.453200*%
%ADD13C,2.774800*%
%ADD14C,4.203600*%
%ADD15C,1.803400*%
%ADD16C,1.524000*%
%ADD17P,1.649562X8X112.500000*%
%ADD18C,1.524000*%
%ADD19P,1.869504X8X22.500000*%
%ADD20C,2.153200*%
%ADD21P,1.649562X8X292.500000*%
%ADD22C,1.879600*%
%ADD23P,1.649562X8X202.500000*%
%ADD24R,1.917700X1.917700*%
%ADD25C,1.879600*%
%ADD26C,1.625600*%
%ADD27P,1.649562X8X22.500000*%
%ADD28P,1.951982X8X292.500000*%
%ADD29P,1.951982X8X202.500000*%
%ADD30R,1.371600X1.803400*%
%ADD31R,0.152400X1.828800*%


D10*
X38100Y38100D03*
X38100Y1231900D03*
X1955800Y1231900D03*
X1955800Y38100D03*
X1905000Y1231900D03*
X1905000Y1054100D03*
X444500Y1054100D03*
X444500Y1231900D03*
D11*
X45720Y698500D02*
X30480Y698500D01*
X30480Y723900D02*
X45720Y723900D01*
X45720Y749300D02*
X30480Y749300D01*
X30480Y774700D02*
X45720Y774700D01*
X45720Y800100D02*
X30480Y800100D01*
X30480Y825500D02*
X45720Y825500D01*
X45720Y850900D02*
X30480Y850900D01*
X30480Y876300D02*
X45720Y876300D01*
X45720Y901700D02*
X30480Y901700D01*
X30480Y927100D02*
X45720Y927100D01*
X45720Y952500D02*
X30480Y952500D01*
X30480Y977900D02*
X45720Y977900D01*
X45720Y1003300D02*
X30480Y1003300D01*
X30480Y1028700D02*
X45720Y1028700D01*
X45720Y1054100D02*
X30480Y1054100D01*
X30480Y1079500D02*
X45720Y1079500D01*
X45720Y1104900D02*
X30480Y1104900D01*
X30480Y1155700D02*
X45720Y1155700D01*
X45720Y1181100D02*
X30480Y1181100D01*
X30480Y1130300D02*
X45720Y1130300D01*
X45720Y190500D02*
X30480Y190500D01*
X30480Y215900D02*
X45720Y215900D01*
X45720Y241300D02*
X30480Y241300D01*
X30480Y266700D02*
X45720Y266700D01*
X45720Y292100D02*
X30480Y292100D01*
X30480Y317500D02*
X45720Y317500D01*
X45720Y342900D02*
X30480Y342900D01*
X30480Y368300D02*
X45720Y368300D01*
X45720Y393700D02*
X30480Y393700D01*
X30480Y419100D02*
X45720Y419100D01*
X45720Y444500D02*
X30480Y444500D01*
X30480Y469900D02*
X45720Y469900D01*
X45720Y495300D02*
X30480Y495300D01*
X30480Y520700D02*
X45720Y520700D01*
X45720Y546100D02*
X30480Y546100D01*
X30480Y571500D02*
X45720Y571500D01*
X45720Y596900D02*
X30480Y596900D01*
X30480Y622300D02*
X45720Y622300D01*
X45720Y647700D02*
X30480Y647700D01*
X30480Y673100D02*
X45720Y673100D01*
D12*
X1193800Y711200D03*
X1257300Y736600D03*
D13*
X1181100Y685800D03*
X1282700Y685800D03*
D14*
X1231900Y685800D03*
D15*
X1244600Y635000D03*
X1219200Y635000D03*
D12*
X1384300Y711200D03*
X1447800Y736600D03*
D13*
X1371600Y685800D03*
X1473200Y685800D03*
D14*
X1422400Y685800D03*
D15*
X1435100Y635000D03*
X1409700Y635000D03*
D12*
X1574800Y711200D03*
X1638300Y736600D03*
D13*
X1562100Y685800D03*
X1663700Y685800D03*
D14*
X1612900Y685800D03*
D15*
X1625600Y635000D03*
X1600200Y635000D03*
D12*
X1765300Y711200D03*
X1828800Y736600D03*
D13*
X1752600Y685800D03*
X1854200Y685800D03*
D14*
X1803400Y685800D03*
D15*
X1816100Y635000D03*
X1790700Y635000D03*
D12*
X1193800Y520700D03*
X1257300Y546100D03*
D13*
X1181100Y495300D03*
X1282700Y495300D03*
D14*
X1231900Y495300D03*
D15*
X1244600Y444500D03*
X1219200Y444500D03*
D12*
X1384300Y520700D03*
X1447800Y546100D03*
D13*
X1371600Y495300D03*
X1473200Y495300D03*
D14*
X1422400Y495300D03*
D15*
X1435100Y444500D03*
X1409700Y444500D03*
D12*
X1574800Y520700D03*
X1638300Y546100D03*
D13*
X1562100Y495300D03*
X1663700Y495300D03*
D14*
X1612900Y495300D03*
D15*
X1625600Y444500D03*
X1600200Y444500D03*
D12*
X1765300Y520700D03*
X1828800Y546100D03*
D13*
X1752600Y495300D03*
X1854200Y495300D03*
D14*
X1803400Y495300D03*
D15*
X1816100Y444500D03*
X1790700Y444500D03*
D12*
X1193800Y330200D03*
X1257300Y355600D03*
D13*
X1181100Y304800D03*
X1282700Y304800D03*
D14*
X1231900Y304800D03*
D15*
X1244600Y254000D03*
X1219200Y254000D03*
D12*
X1384300Y330200D03*
X1447800Y355600D03*
D13*
X1371600Y304800D03*
X1473200Y304800D03*
D14*
X1422400Y304800D03*
D15*
X1435100Y254000D03*
X1409700Y254000D03*
D12*
X1574800Y330200D03*
X1638300Y355600D03*
D13*
X1562100Y304800D03*
X1663700Y304800D03*
D14*
X1612900Y304800D03*
D15*
X1625600Y254000D03*
X1600200Y254000D03*
D12*
X1765300Y330200D03*
X1828800Y355600D03*
D13*
X1752600Y304800D03*
X1854200Y304800D03*
D14*
X1803400Y304800D03*
D15*
X1816100Y254000D03*
X1790700Y254000D03*
D12*
X1384300Y139700D03*
X1447800Y165100D03*
D13*
X1371600Y114300D03*
X1473200Y114300D03*
D14*
X1422400Y114300D03*
D15*
X1435100Y63500D03*
X1409700Y63500D03*
D12*
X1574800Y139700D03*
X1638300Y165100D03*
D13*
X1562100Y114300D03*
X1663700Y114300D03*
D14*
X1612900Y114300D03*
D15*
X1625600Y63500D03*
X1600200Y63500D03*
D12*
X1765300Y139700D03*
X1828800Y165100D03*
D13*
X1752600Y114300D03*
X1854200Y114300D03*
D14*
X1803400Y114300D03*
D15*
X1816100Y63500D03*
X1790700Y63500D03*
D12*
X1193800Y139700D03*
X1257300Y165100D03*
D13*
X1181100Y114300D03*
X1282700Y114300D03*
D14*
X1231900Y114300D03*
D15*
X1244600Y63500D03*
X1219200Y63500D03*
D16*
X1752600Y1060196D02*
X1752600Y1073404D01*
X1778000Y1073404D02*
X1778000Y1060196D01*
X1803400Y1060196D02*
X1803400Y1073404D01*
X1828800Y1073404D02*
X1828800Y1060196D01*
X1854200Y1060196D02*
X1854200Y1073404D01*
X1854200Y1212596D02*
X1854200Y1225804D01*
X1828800Y1225804D02*
X1828800Y1212596D01*
X1803400Y1212596D02*
X1803400Y1225804D01*
X1778000Y1225804D02*
X1778000Y1212596D01*
X1752600Y1212596D02*
X1752600Y1225804D01*
X1758696Y1003300D02*
X1771904Y1003300D01*
X1771904Y977900D02*
X1758696Y977900D01*
X1758696Y850900D02*
X1771904Y850900D01*
X1771904Y825500D02*
X1758696Y825500D01*
X1758696Y952500D02*
X1771904Y952500D01*
X1771904Y927100D02*
X1758696Y927100D01*
X1758696Y876300D02*
X1771904Y876300D01*
X1771904Y901700D02*
X1758696Y901700D01*
X1834896Y825500D02*
X1848104Y825500D01*
X1848104Y850900D02*
X1834896Y850900D01*
X1834896Y876300D02*
X1848104Y876300D01*
X1848104Y901700D02*
X1834896Y901700D01*
X1834896Y927100D02*
X1848104Y927100D01*
X1848104Y952500D02*
X1834896Y952500D01*
X1834896Y977900D02*
X1848104Y977900D01*
X1848104Y1003300D02*
X1834896Y1003300D01*
X1612900Y1060196D02*
X1612900Y1073404D01*
X1638300Y1073404D02*
X1638300Y1060196D01*
X1663700Y1060196D02*
X1663700Y1073404D01*
X1689100Y1073404D02*
X1689100Y1060196D01*
X1714500Y1060196D02*
X1714500Y1073404D01*
X1714500Y1212596D02*
X1714500Y1225804D01*
X1689100Y1225804D02*
X1689100Y1212596D01*
X1663700Y1212596D02*
X1663700Y1225804D01*
X1638300Y1225804D02*
X1638300Y1212596D01*
X1612900Y1212596D02*
X1612900Y1225804D01*
X1618996Y1003300D02*
X1632204Y1003300D01*
X1632204Y977900D02*
X1618996Y977900D01*
X1618996Y850900D02*
X1632204Y850900D01*
X1632204Y825500D02*
X1618996Y825500D01*
X1618996Y952500D02*
X1632204Y952500D01*
X1632204Y927100D02*
X1618996Y927100D01*
X1618996Y876300D02*
X1632204Y876300D01*
X1632204Y901700D02*
X1618996Y901700D01*
X1695196Y825500D02*
X1708404Y825500D01*
X1708404Y850900D02*
X1695196Y850900D01*
X1695196Y876300D02*
X1708404Y876300D01*
X1708404Y901700D02*
X1695196Y901700D01*
X1695196Y927100D02*
X1708404Y927100D01*
X1708404Y952500D02*
X1695196Y952500D01*
X1695196Y977900D02*
X1708404Y977900D01*
X1708404Y1003300D02*
X1695196Y1003300D01*
X1473200Y1060196D02*
X1473200Y1073404D01*
X1498600Y1073404D02*
X1498600Y1060196D01*
X1524000Y1060196D02*
X1524000Y1073404D01*
X1549400Y1073404D02*
X1549400Y1060196D01*
X1574800Y1060196D02*
X1574800Y1073404D01*
X1574800Y1212596D02*
X1574800Y1225804D01*
X1549400Y1225804D02*
X1549400Y1212596D01*
X1524000Y1212596D02*
X1524000Y1225804D01*
X1498600Y1225804D02*
X1498600Y1212596D01*
X1473200Y1212596D02*
X1473200Y1225804D01*
X1479296Y1003300D02*
X1492504Y1003300D01*
X1492504Y977900D02*
X1479296Y977900D01*
X1479296Y850900D02*
X1492504Y850900D01*
X1492504Y825500D02*
X1479296Y825500D01*
X1479296Y952500D02*
X1492504Y952500D01*
X1492504Y927100D02*
X1479296Y927100D01*
X1479296Y876300D02*
X1492504Y876300D01*
X1492504Y901700D02*
X1479296Y901700D01*
X1555496Y825500D02*
X1568704Y825500D01*
X1568704Y850900D02*
X1555496Y850900D01*
X1555496Y876300D02*
X1568704Y876300D01*
X1568704Y901700D02*
X1555496Y901700D01*
X1555496Y927100D02*
X1568704Y927100D01*
X1568704Y952500D02*
X1555496Y952500D01*
X1555496Y977900D02*
X1568704Y977900D01*
X1568704Y1003300D02*
X1555496Y1003300D01*
X1333500Y1060196D02*
X1333500Y1073404D01*
X1358900Y1073404D02*
X1358900Y1060196D01*
X1384300Y1060196D02*
X1384300Y1073404D01*
X1409700Y1073404D02*
X1409700Y1060196D01*
X1435100Y1060196D02*
X1435100Y1073404D01*
X1435100Y1212596D02*
X1435100Y1225804D01*
X1409700Y1225804D02*
X1409700Y1212596D01*
X1384300Y1212596D02*
X1384300Y1225804D01*
X1358900Y1225804D02*
X1358900Y1212596D01*
X1333500Y1212596D02*
X1333500Y1225804D01*
X1339596Y1003300D02*
X1352804Y1003300D01*
X1352804Y977900D02*
X1339596Y977900D01*
X1339596Y850900D02*
X1352804Y850900D01*
X1352804Y825500D02*
X1339596Y825500D01*
X1339596Y952500D02*
X1352804Y952500D01*
X1352804Y927100D02*
X1339596Y927100D01*
X1339596Y876300D02*
X1352804Y876300D01*
X1352804Y901700D02*
X1339596Y901700D01*
X1415796Y825500D02*
X1429004Y825500D01*
X1429004Y850900D02*
X1415796Y850900D01*
X1415796Y876300D02*
X1429004Y876300D01*
X1429004Y901700D02*
X1415796Y901700D01*
X1415796Y927100D02*
X1429004Y927100D01*
X1429004Y952500D02*
X1415796Y952500D01*
X1415796Y977900D02*
X1429004Y977900D01*
X1429004Y1003300D02*
X1415796Y1003300D01*
X1193800Y1060196D02*
X1193800Y1073404D01*
X1219200Y1073404D02*
X1219200Y1060196D01*
X1244600Y1060196D02*
X1244600Y1073404D01*
X1270000Y1073404D02*
X1270000Y1060196D01*
X1295400Y1060196D02*
X1295400Y1073404D01*
X1295400Y1212596D02*
X1295400Y1225804D01*
X1270000Y1225804D02*
X1270000Y1212596D01*
X1244600Y1212596D02*
X1244600Y1225804D01*
X1219200Y1225804D02*
X1219200Y1212596D01*
X1193800Y1212596D02*
X1193800Y1225804D01*
X1199896Y1003300D02*
X1213104Y1003300D01*
X1213104Y977900D02*
X1199896Y977900D01*
X1199896Y850900D02*
X1213104Y850900D01*
X1213104Y825500D02*
X1199896Y825500D01*
X1199896Y952500D02*
X1213104Y952500D01*
X1213104Y927100D02*
X1199896Y927100D01*
X1199896Y876300D02*
X1213104Y876300D01*
X1213104Y901700D02*
X1199896Y901700D01*
X1276096Y825500D02*
X1289304Y825500D01*
X1289304Y850900D02*
X1276096Y850900D01*
X1276096Y876300D02*
X1289304Y876300D01*
X1289304Y901700D02*
X1276096Y901700D01*
X1276096Y927100D02*
X1289304Y927100D01*
X1289304Y952500D02*
X1276096Y952500D01*
X1276096Y977900D02*
X1289304Y977900D01*
X1289304Y1003300D02*
X1276096Y1003300D01*
X1054100Y1060196D02*
X1054100Y1073404D01*
X1079500Y1073404D02*
X1079500Y1060196D01*
X1104900Y1060196D02*
X1104900Y1073404D01*
X1130300Y1073404D02*
X1130300Y1060196D01*
X1155700Y1060196D02*
X1155700Y1073404D01*
X1155700Y1212596D02*
X1155700Y1225804D01*
X1130300Y1225804D02*
X1130300Y1212596D01*
X1104900Y1212596D02*
X1104900Y1225804D01*
X1079500Y1225804D02*
X1079500Y1212596D01*
X1054100Y1212596D02*
X1054100Y1225804D01*
X1060196Y1003300D02*
X1073404Y1003300D01*
X1073404Y977900D02*
X1060196Y977900D01*
X1060196Y850900D02*
X1073404Y850900D01*
X1073404Y825500D02*
X1060196Y825500D01*
X1060196Y952500D02*
X1073404Y952500D01*
X1073404Y927100D02*
X1060196Y927100D01*
X1060196Y876300D02*
X1073404Y876300D01*
X1073404Y901700D02*
X1060196Y901700D01*
X1136396Y825500D02*
X1149604Y825500D01*
X1149604Y850900D02*
X1136396Y850900D01*
X1136396Y876300D02*
X1149604Y876300D01*
X1149604Y901700D02*
X1136396Y901700D01*
X1136396Y927100D02*
X1149604Y927100D01*
X1149604Y952500D02*
X1136396Y952500D01*
X1136396Y977900D02*
X1149604Y977900D01*
X1149604Y1003300D02*
X1136396Y1003300D01*
X914400Y1060196D02*
X914400Y1073404D01*
X939800Y1073404D02*
X939800Y1060196D01*
X965200Y1060196D02*
X965200Y1073404D01*
X990600Y1073404D02*
X990600Y1060196D01*
X1016000Y1060196D02*
X1016000Y1073404D01*
X1016000Y1212596D02*
X1016000Y1225804D01*
X990600Y1225804D02*
X990600Y1212596D01*
X965200Y1212596D02*
X965200Y1225804D01*
X939800Y1225804D02*
X939800Y1212596D01*
X914400Y1212596D02*
X914400Y1225804D01*
X920496Y1003300D02*
X933704Y1003300D01*
X933704Y977900D02*
X920496Y977900D01*
X920496Y850900D02*
X933704Y850900D01*
X933704Y825500D02*
X920496Y825500D01*
X920496Y952500D02*
X933704Y952500D01*
X933704Y927100D02*
X920496Y927100D01*
X920496Y876300D02*
X933704Y876300D01*
X933704Y901700D02*
X920496Y901700D01*
X996696Y825500D02*
X1009904Y825500D01*
X1009904Y850900D02*
X996696Y850900D01*
X996696Y876300D02*
X1009904Y876300D01*
X1009904Y901700D02*
X996696Y901700D01*
X996696Y927100D02*
X1009904Y927100D01*
X1009904Y952500D02*
X996696Y952500D01*
X996696Y977900D02*
X1009904Y977900D01*
X1009904Y1003300D02*
X996696Y1003300D01*
X774700Y1060196D02*
X774700Y1073404D01*
X800100Y1073404D02*
X800100Y1060196D01*
X825500Y1060196D02*
X825500Y1073404D01*
X850900Y1073404D02*
X850900Y1060196D01*
X876300Y1060196D02*
X876300Y1073404D01*
X876300Y1212596D02*
X876300Y1225804D01*
X850900Y1225804D02*
X850900Y1212596D01*
X825500Y1212596D02*
X825500Y1225804D01*
X800100Y1225804D02*
X800100Y1212596D01*
X774700Y1212596D02*
X774700Y1225804D01*
X780796Y1003300D02*
X794004Y1003300D01*
X794004Y977900D02*
X780796Y977900D01*
X780796Y850900D02*
X794004Y850900D01*
X794004Y825500D02*
X780796Y825500D01*
X780796Y952500D02*
X794004Y952500D01*
X794004Y927100D02*
X780796Y927100D01*
X780796Y876300D02*
X794004Y876300D01*
X794004Y901700D02*
X780796Y901700D01*
X856996Y825500D02*
X870204Y825500D01*
X870204Y850900D02*
X856996Y850900D01*
X856996Y876300D02*
X870204Y876300D01*
X870204Y901700D02*
X856996Y901700D01*
X856996Y927100D02*
X870204Y927100D01*
X870204Y952500D02*
X856996Y952500D01*
X856996Y977900D02*
X870204Y977900D01*
X870204Y1003300D02*
X856996Y1003300D01*
X635000Y1060196D02*
X635000Y1073404D01*
X660400Y1073404D02*
X660400Y1060196D01*
X685800Y1060196D02*
X685800Y1073404D01*
X711200Y1073404D02*
X711200Y1060196D01*
X736600Y1060196D02*
X736600Y1073404D01*
X736600Y1212596D02*
X736600Y1225804D01*
X711200Y1225804D02*
X711200Y1212596D01*
X685800Y1212596D02*
X685800Y1225804D01*
X660400Y1225804D02*
X660400Y1212596D01*
X635000Y1212596D02*
X635000Y1225804D01*
X641096Y1003300D02*
X654304Y1003300D01*
X654304Y977900D02*
X641096Y977900D01*
X641096Y850900D02*
X654304Y850900D01*
X654304Y825500D02*
X641096Y825500D01*
X641096Y952500D02*
X654304Y952500D01*
X654304Y927100D02*
X641096Y927100D01*
X641096Y876300D02*
X654304Y876300D01*
X654304Y901700D02*
X641096Y901700D01*
X717296Y825500D02*
X730504Y825500D01*
X730504Y850900D02*
X717296Y850900D01*
X717296Y876300D02*
X730504Y876300D01*
X730504Y901700D02*
X717296Y901700D01*
X717296Y927100D02*
X730504Y927100D01*
X730504Y952500D02*
X717296Y952500D01*
X717296Y977900D02*
X730504Y977900D01*
X730504Y1003300D02*
X717296Y1003300D01*
X495300Y1060196D02*
X495300Y1073404D01*
X520700Y1073404D02*
X520700Y1060196D01*
X546100Y1060196D02*
X546100Y1073404D01*
X571500Y1073404D02*
X571500Y1060196D01*
X596900Y1060196D02*
X596900Y1073404D01*
X596900Y1212596D02*
X596900Y1225804D01*
X571500Y1225804D02*
X571500Y1212596D01*
X546100Y1212596D02*
X546100Y1225804D01*
X520700Y1225804D02*
X520700Y1212596D01*
X495300Y1212596D02*
X495300Y1225804D01*
X514096Y1003300D02*
X527304Y1003300D01*
X527304Y977900D02*
X514096Y977900D01*
X514096Y850900D02*
X527304Y850900D01*
X527304Y825500D02*
X514096Y825500D01*
X514096Y952500D02*
X527304Y952500D01*
X527304Y927100D02*
X514096Y927100D01*
X514096Y876300D02*
X527304Y876300D01*
X527304Y901700D02*
X514096Y901700D01*
X590296Y825500D02*
X603504Y825500D01*
X603504Y850900D02*
X590296Y850900D01*
X590296Y876300D02*
X603504Y876300D01*
X603504Y901700D02*
X590296Y901700D01*
X590296Y927100D02*
X603504Y927100D01*
X603504Y952500D02*
X590296Y952500D01*
X590296Y977900D02*
X603504Y977900D01*
X603504Y1003300D02*
X590296Y1003300D01*
X856996Y723900D02*
X870204Y723900D01*
X870204Y698500D02*
X856996Y698500D01*
X856996Y571500D02*
X870204Y571500D01*
X870204Y546100D02*
X856996Y546100D01*
X856996Y673100D02*
X870204Y673100D01*
X870204Y647700D02*
X856996Y647700D01*
X856996Y596900D02*
X870204Y596900D01*
X870204Y622300D02*
X856996Y622300D01*
X856996Y520700D02*
X870204Y520700D01*
X870204Y495300D02*
X856996Y495300D01*
X933196Y495300D02*
X946404Y495300D01*
X946404Y520700D02*
X933196Y520700D01*
X933196Y546100D02*
X946404Y546100D01*
X946404Y571500D02*
X933196Y571500D01*
X933196Y596900D02*
X946404Y596900D01*
X946404Y622300D02*
X933196Y622300D01*
X933196Y647700D02*
X946404Y647700D01*
X946404Y673100D02*
X933196Y673100D01*
X933196Y698500D02*
X946404Y698500D01*
X946404Y723900D02*
X933196Y723900D01*
X705104Y723900D02*
X691896Y723900D01*
X691896Y698500D02*
X705104Y698500D01*
X705104Y571500D02*
X691896Y571500D01*
X691896Y546100D02*
X705104Y546100D01*
X705104Y673100D02*
X691896Y673100D01*
X691896Y647700D02*
X705104Y647700D01*
X705104Y596900D02*
X691896Y596900D01*
X691896Y622300D02*
X705104Y622300D01*
X705104Y520700D02*
X691896Y520700D01*
X691896Y495300D02*
X705104Y495300D01*
X768096Y495300D02*
X781304Y495300D01*
X781304Y520700D02*
X768096Y520700D01*
X768096Y546100D02*
X781304Y546100D01*
X781304Y571500D02*
X768096Y571500D01*
X768096Y596900D02*
X781304Y596900D01*
X781304Y622300D02*
X768096Y622300D01*
X768096Y647700D02*
X781304Y647700D01*
X781304Y673100D02*
X768096Y673100D01*
X768096Y698500D02*
X781304Y698500D01*
X781304Y723900D02*
X768096Y723900D01*
X527304Y723900D02*
X514096Y723900D01*
X514096Y698500D02*
X527304Y698500D01*
X527304Y571500D02*
X514096Y571500D01*
X514096Y546100D02*
X527304Y546100D01*
X527304Y673100D02*
X514096Y673100D01*
X514096Y647700D02*
X527304Y647700D01*
X527304Y596900D02*
X514096Y596900D01*
X514096Y622300D02*
X527304Y622300D01*
X527304Y520700D02*
X514096Y520700D01*
X514096Y495300D02*
X527304Y495300D01*
X590296Y495300D02*
X603504Y495300D01*
X603504Y520700D02*
X590296Y520700D01*
X590296Y546100D02*
X603504Y546100D01*
X603504Y571500D02*
X590296Y571500D01*
X590296Y596900D02*
X603504Y596900D01*
X603504Y622300D02*
X590296Y622300D01*
X590296Y647700D02*
X603504Y647700D01*
X603504Y673100D02*
X590296Y673100D01*
X590296Y698500D02*
X603504Y698500D01*
X603504Y723900D02*
X590296Y723900D01*
X996696Y723900D02*
X1009904Y723900D01*
X1009904Y698500D02*
X996696Y698500D01*
X996696Y571500D02*
X1009904Y571500D01*
X1009904Y546100D02*
X996696Y546100D01*
X996696Y673100D02*
X1009904Y673100D01*
X1009904Y647700D02*
X996696Y647700D01*
X996696Y596900D02*
X1009904Y596900D01*
X1009904Y622300D02*
X996696Y622300D01*
X1072896Y546100D02*
X1086104Y546100D01*
X1086104Y571500D02*
X1072896Y571500D01*
X1072896Y596900D02*
X1086104Y596900D01*
X1086104Y622300D02*
X1072896Y622300D01*
X1072896Y647700D02*
X1086104Y647700D01*
X1086104Y673100D02*
X1072896Y673100D01*
X1072896Y698500D02*
X1086104Y698500D01*
X1086104Y723900D02*
X1072896Y723900D01*
D17*
X482600Y838200D03*
X482600Y914400D03*
X482600Y952500D03*
X482600Y1028700D03*
D16*
X691896Y393700D02*
X705104Y393700D01*
X705104Y368300D02*
X691896Y368300D01*
X691896Y342900D02*
X705104Y342900D01*
X705104Y317500D02*
X691896Y317500D01*
X691896Y292100D02*
X705104Y292100D01*
X705104Y266700D02*
X691896Y266700D01*
X691896Y241300D02*
X705104Y241300D01*
X705104Y215900D02*
X691896Y215900D01*
X691896Y190500D02*
X705104Y190500D01*
X705104Y165100D02*
X691896Y165100D01*
X691896Y139700D02*
X705104Y139700D01*
X705104Y114300D02*
X691896Y114300D01*
X768096Y114300D02*
X781304Y114300D01*
X781304Y139700D02*
X768096Y139700D01*
X768096Y165100D02*
X781304Y165100D01*
X781304Y190500D02*
X768096Y190500D01*
X768096Y215900D02*
X781304Y215900D01*
X781304Y241300D02*
X768096Y241300D01*
X768096Y266700D02*
X781304Y266700D01*
X781304Y292100D02*
X768096Y292100D01*
X768096Y317500D02*
X781304Y317500D01*
X781304Y342900D02*
X768096Y342900D01*
X768096Y368300D02*
X781304Y368300D01*
X781304Y393700D02*
X768096Y393700D01*
X996696Y482600D02*
X1009904Y482600D01*
X1009904Y457200D02*
X996696Y457200D01*
X996696Y330200D02*
X1009904Y330200D01*
X1009904Y304800D02*
X996696Y304800D01*
X996696Y431800D02*
X1009904Y431800D01*
X1009904Y406400D02*
X996696Y406400D01*
X996696Y355600D02*
X1009904Y355600D01*
X1009904Y381000D02*
X996696Y381000D01*
X1072896Y304800D02*
X1086104Y304800D01*
X1086104Y330200D02*
X1072896Y330200D01*
X1072896Y355600D02*
X1086104Y355600D01*
X1086104Y381000D02*
X1072896Y381000D01*
X1072896Y406400D02*
X1086104Y406400D01*
X1086104Y431800D02*
X1072896Y431800D01*
X1072896Y457200D02*
X1086104Y457200D01*
X1086104Y482600D02*
X1072896Y482600D01*
X1009904Y228600D02*
X996696Y228600D01*
X996696Y203200D02*
X1009904Y203200D01*
X1009904Y76200D02*
X996696Y76200D01*
X996696Y50800D02*
X1009904Y50800D01*
X1009904Y177800D02*
X996696Y177800D01*
X996696Y152400D02*
X1009904Y152400D01*
X1009904Y101600D02*
X996696Y101600D01*
X996696Y127000D02*
X1009904Y127000D01*
X1072896Y50800D02*
X1086104Y50800D01*
X1086104Y76200D02*
X1072896Y76200D01*
X1072896Y101600D02*
X1086104Y101600D01*
X1086104Y127000D02*
X1072896Y127000D01*
X1072896Y152400D02*
X1086104Y152400D01*
X1086104Y177800D02*
X1072896Y177800D01*
X1072896Y203200D02*
X1086104Y203200D01*
X1086104Y228600D02*
X1072896Y228600D01*
X870204Y355600D02*
X856996Y355600D01*
X856996Y330200D02*
X870204Y330200D01*
X870204Y203200D02*
X856996Y203200D01*
X856996Y177800D02*
X870204Y177800D01*
X870204Y304800D02*
X856996Y304800D01*
X856996Y279400D02*
X870204Y279400D01*
X870204Y228600D02*
X856996Y228600D01*
X856996Y254000D02*
X870204Y254000D01*
X870204Y152400D02*
X856996Y152400D01*
X856996Y127000D02*
X870204Y127000D01*
X933196Y127000D02*
X946404Y127000D01*
X946404Y152400D02*
X933196Y152400D01*
X933196Y177800D02*
X946404Y177800D01*
X946404Y203200D02*
X933196Y203200D01*
X933196Y228600D02*
X946404Y228600D01*
X946404Y254000D02*
X933196Y254000D01*
X933196Y279400D02*
X946404Y279400D01*
X946404Y304800D02*
X933196Y304800D01*
X933196Y330200D02*
X946404Y330200D01*
X946404Y355600D02*
X933196Y355600D01*
X1110996Y292100D02*
X1124204Y292100D01*
X1124204Y317500D02*
X1110996Y317500D01*
X1110996Y342900D02*
X1124204Y342900D01*
X1124204Y368300D02*
X1110996Y368300D01*
X1110996Y393700D02*
X1124204Y393700D01*
X1124204Y419100D02*
X1110996Y419100D01*
X1110996Y444500D02*
X1124204Y444500D01*
X1124204Y469900D02*
X1110996Y469900D01*
X1110996Y495300D02*
X1124204Y495300D01*
X1124204Y38100D02*
X1110996Y38100D01*
X1110996Y63500D02*
X1124204Y63500D01*
X1124204Y88900D02*
X1110996Y88900D01*
X1110996Y114300D02*
X1124204Y114300D01*
X1124204Y139700D02*
X1110996Y139700D01*
X1110996Y165100D02*
X1124204Y165100D01*
X1124204Y190500D02*
X1110996Y190500D01*
X1110996Y215900D02*
X1124204Y215900D01*
X1124204Y241300D02*
X1110996Y241300D01*
X527304Y393700D02*
X514096Y393700D01*
X514096Y368300D02*
X527304Y368300D01*
X527304Y241300D02*
X514096Y241300D01*
X514096Y215900D02*
X527304Y215900D01*
X527304Y342900D02*
X514096Y342900D01*
X514096Y317500D02*
X527304Y317500D01*
X527304Y266700D02*
X514096Y266700D01*
X514096Y292100D02*
X527304Y292100D01*
X590296Y215900D02*
X603504Y215900D01*
X603504Y241300D02*
X590296Y241300D01*
X590296Y266700D02*
X603504Y266700D01*
X603504Y292100D02*
X590296Y292100D01*
X590296Y317500D02*
X603504Y317500D01*
X603504Y342900D02*
X590296Y342900D01*
X590296Y368300D02*
X603504Y368300D01*
X603504Y393700D02*
X590296Y393700D01*
X387604Y393700D02*
X374396Y393700D01*
X374396Y368300D02*
X387604Y368300D01*
X387604Y241300D02*
X374396Y241300D01*
X374396Y215900D02*
X387604Y215900D01*
X387604Y342900D02*
X374396Y342900D01*
X374396Y317500D02*
X387604Y317500D01*
X387604Y266700D02*
X374396Y266700D01*
X374396Y292100D02*
X387604Y292100D01*
X450596Y215900D02*
X463804Y215900D01*
X463804Y241300D02*
X450596Y241300D01*
X450596Y266700D02*
X463804Y266700D01*
X463804Y292100D02*
X450596Y292100D01*
X450596Y317500D02*
X463804Y317500D01*
X463804Y342900D02*
X450596Y342900D01*
X450596Y368300D02*
X463804Y368300D01*
X463804Y393700D02*
X450596Y393700D01*
D18*
X431800Y50800D03*
X508000Y50800D03*
X508000Y127000D03*
X431800Y127000D03*
D19*
X584200Y127000D03*
X584200Y50800D03*
D16*
X171704Y393700D02*
X158496Y393700D01*
X158496Y368300D02*
X171704Y368300D01*
X171704Y342900D02*
X158496Y342900D01*
X158496Y317500D02*
X171704Y317500D01*
X171704Y292100D02*
X158496Y292100D01*
X158496Y266700D02*
X171704Y266700D01*
X171704Y241300D02*
X158496Y241300D01*
X158496Y215900D02*
X171704Y215900D01*
X171704Y190500D02*
X158496Y190500D01*
X234696Y190500D02*
X247904Y190500D01*
X247904Y215900D02*
X234696Y215900D01*
X234696Y241300D02*
X247904Y241300D01*
X247904Y266700D02*
X234696Y266700D01*
X234696Y292100D02*
X247904Y292100D01*
X247904Y317500D02*
X234696Y317500D01*
X234696Y342900D02*
X247904Y342900D01*
X247904Y368300D02*
X234696Y368300D01*
X234696Y393700D02*
X247904Y393700D01*
D20*
X190500Y945100D03*
X190500Y745100D03*
D21*
X317500Y406400D03*
X317500Y355600D03*
D17*
X279400Y330200D03*
X279400Y406400D03*
D16*
X292100Y425196D02*
X292100Y438404D01*
X292100Y501396D02*
X292100Y514604D01*
X292100Y615696D02*
X292100Y628904D01*
X292100Y552704D02*
X292100Y539496D01*
D22*
X114300Y613918D02*
X114300Y630682D01*
X114300Y740918D02*
X114300Y757682D01*
X114300Y579882D02*
X114300Y563118D01*
X114300Y452882D02*
X114300Y436118D01*
D23*
X241300Y419100D03*
X215900Y419100D03*
D19*
X812800Y165100D03*
D16*
X171704Y673100D02*
X158496Y673100D01*
X158496Y647700D02*
X171704Y647700D01*
X171704Y520700D02*
X158496Y520700D01*
X158496Y495300D02*
X171704Y495300D01*
X171704Y622300D02*
X158496Y622300D01*
X158496Y596900D02*
X171704Y596900D01*
X171704Y546100D02*
X158496Y546100D01*
X158496Y571500D02*
X171704Y571500D01*
X234696Y495300D02*
X247904Y495300D01*
X247904Y520700D02*
X234696Y520700D01*
X234696Y546100D02*
X247904Y546100D01*
X247904Y571500D02*
X234696Y571500D01*
X234696Y596900D02*
X247904Y596900D01*
X247904Y622300D02*
X234696Y622300D01*
X234696Y647700D02*
X247904Y647700D01*
X247904Y673100D02*
X234696Y673100D01*
D21*
X292100Y774700D03*
X292100Y698500D03*
D23*
X241300Y698500D03*
X215900Y698500D03*
D18*
X114300Y50800D03*
X190500Y50800D03*
X190500Y127000D03*
X114300Y127000D03*
D19*
X266700Y127000D03*
X266700Y50800D03*
D24*
X177800Y1117600D03*
X330200Y1117600D03*
D25*
X204000Y1117600D03*
X304000Y1117600D03*
D19*
X279400Y1117600D03*
X228600Y1117600D03*
D17*
X266700Y698500D03*
X266700Y749300D03*
D23*
X596900Y1028700D03*
X571500Y1028700D03*
X723900Y1028700D03*
X698500Y1028700D03*
X863600Y1028700D03*
X838200Y1028700D03*
X1003300Y1028700D03*
X977900Y1028700D03*
X1143000Y1028700D03*
X1117600Y1028700D03*
X1282700Y1028700D03*
X1257300Y1028700D03*
X1422400Y1028700D03*
X1397000Y1028700D03*
X1562100Y1028700D03*
X1536700Y1028700D03*
X1841500Y1028700D03*
X1816100Y1028700D03*
X1701800Y1028700D03*
X1676400Y1028700D03*
X939800Y749300D03*
X914400Y749300D03*
X1079500Y749300D03*
X1054100Y749300D03*
X596900Y749300D03*
X571500Y749300D03*
X774700Y749300D03*
X749300Y749300D03*
X457200Y419100D03*
X431800Y419100D03*
X596900Y419100D03*
X571500Y419100D03*
X774700Y419100D03*
X749300Y419100D03*
X939800Y381000D03*
X914400Y381000D03*
X1079500Y508000D03*
X1054100Y508000D03*
X1079500Y254000D03*
X1054100Y254000D03*
D21*
X50800Y114300D03*
X50800Y88900D03*
X381000Y114300D03*
X381000Y88900D03*
D16*
X1936496Y571500D02*
X1949704Y571500D01*
X1949704Y546100D02*
X1936496Y546100D01*
X1936496Y520700D02*
X1949704Y520700D01*
X1949704Y495300D02*
X1936496Y495300D01*
X1936496Y469900D02*
X1949704Y469900D01*
X1949704Y444500D02*
X1936496Y444500D01*
X1936496Y419100D02*
X1949704Y419100D01*
X1949704Y393700D02*
X1936496Y393700D01*
X1936496Y368300D02*
X1949704Y368300D01*
X1949704Y304800D02*
X1936496Y304800D01*
X1936496Y279400D02*
X1949704Y279400D01*
X1949704Y254000D02*
X1936496Y254000D01*
X1936496Y228600D02*
X1949704Y228600D01*
X1949704Y203200D02*
X1936496Y203200D01*
X1936496Y177800D02*
X1949704Y177800D01*
X1949704Y152400D02*
X1936496Y152400D01*
X1936496Y127000D02*
X1949704Y127000D01*
X1949704Y101600D02*
X1936496Y101600D01*
D26*
X1935988Y660400D02*
X1950212Y660400D01*
X1950212Y635000D02*
X1935988Y635000D01*
X96012Y1003300D02*
X81788Y1003300D01*
X81788Y1028700D02*
X96012Y1028700D01*
X96012Y1054100D02*
X81788Y1054100D01*
D27*
X431800Y1174750D03*
X457200Y1174750D03*
D17*
X393700Y939800D03*
X393700Y1016000D03*
D27*
X431800Y1111250D03*
X457200Y1111250D03*
D17*
X431800Y939800D03*
X431800Y1016000D03*
D26*
X368300Y1224788D02*
X368300Y1239012D01*
X393700Y1239012D02*
X393700Y1224788D01*
D19*
X88900Y266700D03*
X88900Y241300D03*
X88900Y215900D03*
X88900Y190500D03*
X812800Y190500D03*
D27*
X1892300Y1174750D03*
X1917700Y1174750D03*
X1892300Y1111250D03*
X1917700Y1111250D03*
D17*
X1943100Y914400D03*
X1943100Y990600D03*
X1905000Y914400D03*
X1905000Y990600D03*
D28*
X317500Y88900D03*
D15*
X317500Y114300D03*
D17*
X1905000Y825500D03*
X1905000Y876300D03*
X444500Y850900D03*
X444500Y901700D03*
D21*
X355600Y838454D03*
X355600Y888746D03*
X330200Y863600D03*
D29*
X317500Y939800D03*
D15*
X342900Y939800D03*
D16*
X361696Y723900D02*
X374904Y723900D01*
X374904Y698500D02*
X361696Y698500D01*
X361696Y571500D02*
X374904Y571500D01*
X374904Y546100D02*
X361696Y546100D01*
X361696Y673100D02*
X374904Y673100D01*
X374904Y647700D02*
X361696Y647700D01*
X361696Y596900D02*
X374904Y596900D01*
X374904Y622300D02*
X361696Y622300D01*
X361696Y520700D02*
X374904Y520700D01*
X374904Y495300D02*
X361696Y495300D01*
X437896Y495300D02*
X451104Y495300D01*
X451104Y520700D02*
X437896Y520700D01*
X437896Y546100D02*
X451104Y546100D01*
X451104Y571500D02*
X437896Y571500D01*
X437896Y596900D02*
X451104Y596900D01*
X451104Y622300D02*
X437896Y622300D01*
X437896Y647700D02*
X451104Y647700D01*
X451104Y673100D02*
X437896Y673100D01*
X437896Y698500D02*
X451104Y698500D01*
X451104Y723900D02*
X437896Y723900D01*
D23*
X444500Y749300D03*
X419100Y749300D03*
D19*
X622300Y622300D03*
D30*
X134620Y368300D03*
X119380Y368300D03*
D31*
X127000Y368300D03*
D23*
X342900Y800100D03*
X355600Y781050D03*
X368300Y800100D03*
D17*
X317500Y736600D03*
X317500Y812800D03*
D26*
X101600Y1224788D02*
X101600Y1239012D01*
X127000Y1239012D02*
X127000Y1224788D01*
D11*
X228600Y1224280D02*
X228600Y1239520D01*
X254000Y1239520D02*
X254000Y1224280D01*
X279400Y1224280D02*
X279400Y1239520D01*
M02*
