M48
;GenerationSoftware,Autodesk,EAGLE,9.6.1*%
;CreationDate,2023-10-20T03:50:43Z*%
FMAT,2
ICI,OFF
METRIC,TZ,000.000
T13C0.610
T12C0.813
T11C0.914
T10C1.016
T9C1.067
T8C1.100
T7C1.118
T6C1.143
T5C1.300
T4C1.500
T3C1.714
T2C3.175
T1C4.000
%
G90
M71
T1
X161290Y68580
X142240Y11430
X161290Y49530
X142240Y49530
X161290Y11430
X142240Y68580
X161290Y30480
X142240Y30480
X123190Y49530
X180340Y68580
X180340Y30480
X180340Y11430
X123190Y11430
X180340Y49530
X123190Y30480
X123190Y68580
T2
X44450Y105410
X190500Y123190
X195580Y3810
X195580Y123190
X3810Y123190
X3810Y3810
X190500Y105410
X44450Y123190
T3
X166370Y49530
X137160Y11430
X147320Y11430
X175260Y49530
X175260Y30480
X185420Y30480
X118110Y30480
X147320Y68580
X156210Y68580
X166370Y68580
X137160Y68580
X128270Y68580
X147320Y30480
X166370Y11430
X175260Y68580
X185420Y68580
X137160Y30480
X175260Y11430
X156210Y11430
X156210Y30480
X118110Y49530
X128270Y49530
X118110Y68580
X185420Y11430
X156210Y49530
X166370Y30480
X137160Y49530
X147320Y49530
X185420Y49530
X128270Y30480
X128270Y11430
X118110Y11430
T4
X138430Y71120
X138430Y33020
X144780Y35560
X157480Y33020
X163830Y35560
X176530Y33020
X182880Y35560
X138430Y13970
X144780Y16510
X157480Y13970
X163830Y16510
X176530Y13970
X182880Y16510
X119380Y13970
X125730Y16510
X119380Y71120
X125730Y73660
X138430Y52070
X144780Y73660
X157480Y71120
X163830Y73660
X176530Y71120
X182880Y73660
X119380Y52070
X125730Y54610
X144780Y54610
X157480Y52070
X163830Y54610
X176530Y52070
X182880Y54610
X119380Y33020
X125730Y35560
T5
X19050Y94510
X19050Y74510
T6
X17780Y111760
X33020Y111760
T7
X11430Y62230
X11430Y57150
X11430Y74930
X11430Y44450
T8
X30400Y111760
X20400Y111760
T9
X124460Y25400
X121920Y25400
X143510Y25400
X140970Y25400
X160020Y44450
X140970Y6350
X143510Y6350
X181610Y25400
X181610Y6350
X179070Y6350
X162560Y6350
X179070Y25400
X160020Y25400
X162560Y25400
X124460Y6350
X121920Y6350
X160020Y6350
X179070Y44450
X181610Y44450
X162560Y44450
X140970Y44450
X143510Y44450
X121920Y44450
X124460Y44450
X179070Y63500
X181610Y63500
X160020Y63500
X162560Y63500
X140970Y63500
X143510Y63500
X121920Y63500
X124460Y63500
T10
X62230Y62230
X81280Y19050
X8890Y19050
X8890Y21590
X8890Y24130
X8890Y26670
X22860Y111760
X27940Y111760
X26670Y5080
X26670Y12700
X81280Y16510
X3810Y59690
X58420Y12700
X27940Y123190
X3810Y26670
X3810Y29210
X3810Y31750
X3810Y34290
X3810Y36830
X3810Y24130
X3810Y39370
X3810Y41910
X3810Y44450
X3810Y46990
X3810Y49530
X3810Y52070
X3810Y54610
X3810Y57150
X25400Y123190
X22860Y123190
X3810Y67310
X58420Y5080
X3810Y64770
X3810Y62230
X3810Y69850
X3810Y72390
X3810Y74930
X3810Y77470
X3810Y80010
X3810Y82550
X3810Y85090
X3810Y87630
X3810Y90170
X3810Y92710
X3810Y95250
X3810Y97790
X3810Y100330
X3810Y102870
X3810Y105410
X3810Y107950
X3810Y110490
X3810Y115570
X3810Y118110
X3810Y113030
X3810Y19050
X3810Y21590
T11
X10160Y123190
X12700Y123190
X8890Y102870
X8890Y105410
X8890Y100330
X36830Y123190
X194310Y66040
X194310Y63500
X39370Y123190
T12
X107950Y62230
X107950Y64770
X107950Y67310
X107950Y69850
X107950Y72390
X48260Y83820
X48260Y91440
X48260Y95250
X48260Y102870
X69850Y39370
X69850Y36830
X69850Y34290
X69850Y31750
X69850Y29210
X69850Y26670
X69850Y24130
X69850Y21590
X69850Y19050
X69850Y16510
X69850Y13970
X69850Y11430
X77470Y11430
X77470Y13970
X77470Y16510
X77470Y19050
X77470Y21590
X77470Y24130
X77470Y26670
X77470Y29210
X77470Y31750
X77470Y34290
X77470Y36830
X77470Y39370
X100330Y48260
X100330Y45720
X100330Y33020
X100330Y30480
X100330Y43180
X100330Y40640
X100330Y35560
X100330Y38100
X107950Y30480
X107950Y33020
X107950Y35560
X107950Y38100
X107950Y40640
X107950Y43180
X107950Y45720
X107950Y48260
X100330Y20320
X100330Y7620
X100330Y5080
X100330Y17780
X100330Y15240
X100330Y10160
X100330Y12700
X107950Y5080
X107950Y7620
X107950Y10160
X107950Y12700
X107950Y15240
X107950Y17780
X107950Y20320
X107950Y22860
X86360Y35560
X86360Y33020
X86360Y20320
X86360Y17780
X86360Y30480
X86360Y27940
X86360Y22860
X86360Y25400
X86360Y15240
X86360Y12700
X93980Y12700
X93980Y15240
X93980Y17780
X93980Y20320
X93980Y22860
X93980Y25400
X93980Y27940
X93980Y30480
X93980Y33020
X93980Y35560
X111760Y29210
X111760Y31750
X111760Y34290
X111760Y36830
X111760Y39370
X111760Y41910
X111760Y44450
X111760Y46990
X111760Y49530
X111760Y3810
X111760Y6350
X111760Y8890
X111760Y11430
X111760Y13970
X111760Y16510
X111760Y19050
X111760Y21590
X111760Y24130
X52070Y39370
X52070Y36830
X52070Y24130
X52070Y21590
X52070Y34290
X52070Y31750
X52070Y26670
X52070Y29210
X59690Y21590
X59690Y24130
X59690Y26670
X59690Y29210
X59690Y31750
X59690Y34290
X59690Y36830
X59690Y39370
X38100Y39370
X38100Y36830
X38100Y24130
X38100Y21590
X38100Y34290
X38100Y31750
X38100Y26670
X38100Y29210
X45720Y21590
X45720Y24130
X45720Y26670
X45720Y29210
X45720Y31750
X45720Y34290
X45720Y36830
X45720Y39370
X43180Y5080
X50800Y5080
X50800Y12700
X43180Y12700
X16510Y39370
X16510Y36830
X16510Y34290
X16510Y31750
X16510Y29210
X16510Y26670
X16510Y24130
X16510Y21590
X16510Y19050
X138430Y121920
X24130Y19050
X24130Y21590
X24130Y24130
X24130Y26670
X24130Y29210
X24130Y31750
X24130Y34290
X24130Y36830
X24130Y39370
X31750Y40640
X31750Y35560
X27940Y33020
X27940Y40640
X29210Y43180
X29210Y50800
X29210Y62230
X29210Y54610
X24130Y41910
X21590Y41910
X16510Y67310
X16510Y64770
X16510Y52070
X16510Y49530
X16510Y62230
X16510Y59690
X16510Y54610
X16510Y57150
X24130Y49530
X24130Y52070
X24130Y54610
X24130Y57150
X24130Y59690
X24130Y62230
X24130Y64770
X24130Y67310
X29210Y77470
X29210Y69850
X24130Y69850
X21590Y69850
X19050Y5080
X19050Y12700
X11430Y12700
X26670Y69850
X26670Y74930
X59690Y102870
X57150Y102870
X72390Y102870
X69850Y102870
X86360Y102870
X83820Y102870
X100330Y102870
X97790Y102870
X114300Y102870
X111760Y102870
X128270Y102870
X125730Y102870
X142240Y102870
X139700Y102870
X156210Y102870
X153670Y102870
X184150Y102870
X181610Y102870
X170180Y102870
X167640Y102870
X93980Y74930
X91440Y74930
X107950Y74930
X105410Y74930
X59690Y74930
X57150Y74930
X77470Y74930
X74930Y74930
X45720Y41910
X43180Y41910
X59690Y41910
X57150Y41910
X77470Y41910
X74930Y41910
X93980Y38100
X91440Y38100
X107950Y50800
X105410Y50800
X107950Y25400
X105410Y25400
X5080Y11430
X5080Y8890
X38100Y11430
X38100Y8890
X194310Y57150
X194310Y54610
X194310Y52070
X194310Y49530
X194310Y46990
X194310Y44450
X194310Y41910
X194310Y39370
X194310Y36830
X194310Y30480
X194310Y27940
X194310Y25400
X194310Y22860
X194310Y20320
X194310Y17780
X194310Y15240
X194310Y12700
X194310Y10160
X43180Y117475
X45720Y117475
X39370Y93980
X39370Y101600
X43180Y111125
X45720Y111125
X43180Y93980
X43180Y101600
X189230Y117475
X191770Y117475
X189230Y111125
X191770Y111125
X194310Y91440
X194310Y99060
X190500Y91440
X190500Y99060
X31750Y8890
X31750Y11430
X190500Y82550
X190500Y87630
X44450Y85090
X44450Y90170
X35560Y83845
X35560Y88875
X33020Y86360
X31750Y93980
X34290Y93980
X36830Y72390
X36830Y69850
X36830Y57150
X36830Y54610
X36830Y67310
X36830Y64770
X36830Y59690
X36830Y62230
X36830Y52070
X36830Y49530
X44450Y49530
X44450Y52070
X44450Y54610
X44450Y57150
X44450Y59690
X44450Y62230
X44450Y64770
X44450Y67310
X44450Y69850
X44450Y72390
X44450Y74930
X41910Y74930
X34290Y80010
X35560Y78105
X36830Y80010
X31750Y73660
X31750Y81280
X11430Y5080
X175260Y106680
X177800Y106680
X180340Y106680
X182880Y106680
X185420Y106680
X185420Y121920
X182880Y121920
X180340Y121920
X177800Y121920
X175260Y121920
X176530Y100330
X176530Y97790
X176530Y85090
X176530Y82550
X176530Y95250
X176530Y92710
X176530Y87630
X176530Y90170
X184150Y82550
X184150Y85090
X184150Y87630
X184150Y90170
X184150Y92710
X184150Y95250
X184150Y97790
X184150Y100330
X161290Y106680
X163830Y106680
X166370Y106680
X168910Y106680
X171450Y106680
X171450Y121920
X168910Y121920
X166370Y121920
X163830Y121920
X161290Y121920
X162560Y100330
X162560Y97790
X162560Y85090
X162560Y82550
X162560Y95250
X162560Y92710
X162560Y87630
X162560Y90170
X170180Y82550
X170180Y85090
X170180Y87630
X170180Y90170
X170180Y92710
X170180Y95250
X170180Y97790
X170180Y100330
X147320Y106680
X149860Y106680
X152400Y106680
X154940Y106680
X157480Y106680
X157480Y121920
X154940Y121920
X152400Y121920
X149860Y121920
X147320Y121920
X148590Y100330
X148590Y97790
X148590Y85090
X148590Y82550
X148590Y95250
X148590Y92710
X148590Y87630
X148590Y90170
X156210Y82550
X156210Y85090
X156210Y87630
X156210Y90170
X156210Y92710
X156210Y95250
X156210Y97790
X156210Y100330
X133350Y106680
X135890Y106680
X138430Y106680
X140970Y106680
X143510Y106680
X143510Y121920
X140970Y121920
X100330Y22860
X135890Y121920
X133350Y121920
X134620Y100330
X134620Y97790
X134620Y85090
X134620Y82550
X134620Y95250
X134620Y92710
X134620Y87630
X134620Y90170
X142240Y82550
X142240Y85090
X142240Y87630
X142240Y90170
X142240Y92710
X142240Y95250
X142240Y97790
X142240Y100330
X119380Y106680
X121920Y106680
X124460Y106680
X127000Y106680
X129540Y106680
X129540Y121920
X127000Y121920
X124460Y121920
X121920Y121920
X119380Y121920
X120650Y100330
X120650Y97790
X120650Y85090
X120650Y82550
X120650Y95250
X120650Y92710
X120650Y87630
X120650Y90170
X128270Y82550
X128270Y85090
X128270Y87630
X128270Y90170
X128270Y92710
X128270Y95250
X128270Y97790
X128270Y100330
X105410Y106680
X107950Y106680
X110490Y106680
X113030Y106680
X115570Y106680
X115570Y121920
X113030Y121920
X110490Y121920
X107950Y121920
X105410Y121920
X106680Y100330
X106680Y97790
X106680Y85090
X106680Y82550
X106680Y95250
X106680Y92710
X106680Y87630
X106680Y90170
X114300Y82550
X114300Y85090
X114300Y87630
X114300Y90170
X114300Y92710
X114300Y95250
X114300Y97790
X114300Y100330
X91440Y106680
X93980Y106680
X96520Y106680
X99060Y106680
X101600Y106680
X101600Y121920
X99060Y121920
X96520Y121920
X93980Y121920
X91440Y121920
X92710Y100330
X92710Y97790
X92710Y85090
X92710Y82550
X92710Y95250
X92710Y92710
X92710Y87630
X92710Y90170
X100330Y82550
X100330Y85090
X100330Y87630
X100330Y90170
X100330Y92710
X100330Y95250
X100330Y97790
X100330Y100330
X77470Y106680
X80010Y106680
X82550Y106680
X85090Y106680
X87630Y106680
X87630Y121920
X85090Y121920
X82550Y121920
X80010Y121920
X77470Y121920
X78740Y100330
X78740Y97790
X78740Y85090
X78740Y82550
X78740Y95250
X78740Y92710
X78740Y87630
X78740Y90170
X86360Y82550
X86360Y85090
X86360Y87630
X86360Y90170
X86360Y92710
X86360Y95250
X86360Y97790
X86360Y100330
X63500Y106680
X66040Y106680
X68580Y106680
X71120Y106680
X73660Y106680
X73660Y121920
X71120Y121920
X68580Y121920
X66040Y121920
X63500Y121920
X64770Y100330
X64770Y97790
X64770Y85090
X64770Y82550
X64770Y95250
X64770Y92710
X64770Y87630
X64770Y90170
X72390Y82550
X72390Y85090
X72390Y87630
X72390Y90170
X72390Y92710
X72390Y95250
X72390Y97790
X72390Y100330
X49530Y106680
X52070Y106680
X54610Y106680
X57150Y106680
X59690Y106680
X59690Y121920
X57150Y121920
X54610Y121920
X52070Y121920
X49530Y121920
X52070Y100330
X52070Y97790
X52070Y85090
X52070Y82550
X52070Y95250
X52070Y92710
X52070Y87630
X52070Y90170
X59690Y82550
X59690Y85090
X59690Y87630
X59690Y90170
X59690Y92710
X59690Y95250
X59690Y97790
X59690Y100330
X86360Y72390
X86360Y69850
X86360Y57150
X86360Y54610
X86360Y67310
X86360Y64770
X86360Y59690
X86360Y62230
X86360Y52070
X86360Y49530
X93980Y49530
X93980Y52070
X93980Y54610
X93980Y57150
X93980Y59690
X93980Y62230
X93980Y64770
X93980Y67310
X93980Y69850
X93980Y72390
X69850Y72390
X69850Y69850
X69850Y57150
X69850Y54610
X69850Y67310
X69850Y64770
X69850Y59690
X69850Y62230
X69850Y52070
X69850Y49530
X77470Y49530
X77470Y52070
X77470Y54610
X77470Y57150
X77470Y59690
X77470Y62230
X77470Y64770
X77470Y67310
X77470Y69850
X77470Y72390
X52070Y72390
X52070Y69850
X52070Y57150
X52070Y54610
X52070Y67310
X52070Y64770
X52070Y59690
X52070Y62230
X52070Y52070
X52070Y49530
X59690Y49530
X59690Y52070
X59690Y54610
X59690Y57150
X59690Y59690
X59690Y62230
X59690Y64770
X59690Y67310
X59690Y69850
X59690Y72390
X100330Y72390
X100330Y69850
X100330Y57150
X100330Y54610
X100330Y67310
X100330Y64770
X100330Y59690
X100330Y62230
X107950Y54610
X107950Y57150
X107950Y59690
T13
X166053Y119221
X152718Y82391
X158909Y81121
X107474Y78581
X120332Y78581
X73025Y48895
X87154Y40005
X76518Y44450
X86836Y44450
X52864Y42069
X47149Y48895
X18733Y43180
X13017Y41751
X58420Y44609
X74930Y80804
X26511Y80169
X54292Y117634
X57467Y81121
X9843Y49689
X151765Y119221
X56515Y26352
X794Y19685
X49054Y18098
X57467Y29369
X55245Y80010
X50641Y30480
X39529Y90487
X42069Y37306
X68421Y50800
X31750Y50959
X30321Y91599
X49371Y15557
X3016Y16192
X33496Y63024
X153511Y90329
X153511Y99854
X179070Y97631
X114300Y51276
X164624Y98584
X48260Y26670
X132080Y102870
X62071Y91281
X88424Y93345
X67469Y91757
X67310Y99854
X91916Y110490
X111919Y101441
X123349Y89694
X123190Y74613
X97631Y99854
X45244Y91757
X96837Y90329
X115411Y74613
X24447Y15716
X14922Y70803
X195897Y96361
X186372Y104299
X181134Y90170
X174942Y94139
X179070Y111284
X185579Y125095
X89535Y30639
X8096Y34290
X89059Y81756
X8096Y33020
X54769Y40799
X20955Y34131
X148749Y108585
X175260Y108744
X66516Y64770
X90329Y66358
X120491Y108267
X93980Y108744
X125730Y112712
X125730Y109220
X10001Y41751
X10795Y28257
X84773Y24289
X34131Y33179
X75565Y94774
X75724Y63341
X83661Y60960
X2223Y30480
X89852Y23971
X67469Y87154
X95409Y81280
X67469Y80328
X118745Y80486
X146844Y84138
X36354Y30797
X40799Y54610
X62547Y36671
X63817Y15875
X141605Y2699
X151130Y91599
X111919Y58420
X158909Y58102
X172561Y72866
X178911Y73978
X173673Y93662
X190024Y89059
X185261Y116999
X172720Y104140
X160814Y94297
X166688Y92234
X162719Y105092
X18415Y40799
X19685Y53181
X63024Y83503
X90487Y55721
X13017Y39846
X25082Y84296
X46831Y96520
X66993Y17621
X43021Y91440
X103664Y32544
X97949Y34449
X21114Y37941
X31115Y64929
X116681Y72708
X119380Y75724
X178911Y75248
X187325Y101600
X73025Y60642
X75406Y49530
X102235Y51752
X104140Y53657
X153988Y55245
X153670Y110014
X146368Y113347
X145891Y122555
X171768Y91281
X170021Y116999
X152241Y102394
X145415Y103346
X145098Y81598
X158909Y97949
X147320Y108744
X147638Y103346
X146844Y96361
X151448Y95250
X144780Y76835
X158750Y76200
X154781Y117475
X139065Y83026
X136049Y86360
X131921Y86519
X122396Y116999
X117951Y106997
X118427Y104934
X118269Y94139
X111919Y71279
X121126Y114300
X155416Y109537
X152083Y61277
X150336Y102394
X143669Y102394
X80169Y60801
X80963Y39846
X134938Y24289
X71596Y46196
X89535Y46037
X97631Y55880
X128270Y59372
X130175Y89059
X65246Y40640
X125095Y40799
X136843Y93186
X139700Y108267
X130969Y106362
X124301Y93186
X122872Y102394
X127000Y108744
X126682Y117634
X143510Y108744
X142875Y81121
X131128Y81439
X119221Y96520
X125095Y95091
X117792Y83979
X124301Y91599
X126365Y78264
X190500Y86043
X193040Y112712
X109379Y89694
X107791Y76835
X170656Y79693
X108109Y111760
X143193Y111760
X146050Y77153
X129540Y77788
X126206Y81121
X115570Y81121
X103187Y81121
X110490Y97949
X110490Y95726
X132874Y60325
X81915Y53499
X83661Y59690
X118110Y66199
X115729Y52705
X118269Y91757
X80486Y27781
X90646Y21749
X101124Y27940
X123825Y95091
X105092Y94139
X105727Y104616
X105886Y108744
X104616Y103981
X104616Y87789
X102711Y108267
X94456Y111760
X112554Y112712
X112554Y108744
X96361Y102394
X95885Y93504
X98425Y90964
X95409Y95250
X79216Y46990
X39846Y46037
X44767Y120491
X90646Y104616
X89376Y87789
X84138Y79851
X55880Y81280
X56039Y108267
X90964Y96202
X93980Y102711
X104140Y105251
X105251Y71755
X109379Y73660
X80169Y62389
X87630Y76994
X93821Y77946
X81915Y70803
X69691Y95250
X67310Y119221
X76518Y92551
X72073Y104775
X63976Y109379
X84931Y108902
X88106Y103664
X93980Y103981
X94456Y79851
X73660Y78423
X75089Y97949
X72073Y120174
X76518Y93821
X76041Y109855
X49054Y93662
X50006Y110331
X68580Y94139
X55880Y85249
X55880Y101600
X56674Y109379
X54927Y97949
X68580Y96679
X55880Y117475
X64611Y69374
X67945Y71596
X68421Y90805
X53340Y79058
X58737Y77470
X67945Y28416
X74295Y69374
X82391Y72549
X50482Y28099
X49689Y43974
X54769Y45085
X83026Y27622
X83185Y49371
X87471Y75565
X90964Y60166
X89059Y53657
X89059Y62071
X97631Y58579
X72073Y8890
X16669Y3810
X65564Y36671
X64770Y23177
X61912Y39211
X73501Y41751
X48895Y47625
X103822Y48101
X113665Y73660
X151448Y13176
X154464Y72866
X142399Y59055
X177800Y60801
X111760Y53657
X144939Y46196
X104934Y40958
X153988Y50959
X133191Y53340
X113506Y27622
X136049Y28575
X103187Y20320
X89535Y33179
X90329Y41910
X99060Y29051
X97949Y26829
X91440Y10160
X54769Y33814
X46196Y19050
X57944Y63817
X66516Y61595
X28892Y37783
X139541Y97949
X28099Y88900
X50324Y18098
X39529Y43180
X26352Y60484
X34131Y69374
X31274Y49054
X180340Y94456
X166053Y40958
X182562Y61277
X149384Y57150
X139224Y63500
X146526Y56197
X9049Y48577
X16351Y14129
X45879Y63500
X47784Y61595
X49212Y53022
X124936Y61754
X40005Y68421
X41593Y63341
X33814Y52546
X33496Y59531
X20161Y70326
X40640Y59849
X74295Y14129
X34766Y57626
X117951Y53657
X47625Y47625
X16192Y113030
X33179Y41434
X62865Y25559
X62865Y20003
X12382Y47784
X21749Y46355
X165100Y22860
M30