M48
;GenerationSoftware,Autodesk,EAGLE,9.6.1*%
;CreationDate,2023-10-20T03:42:13Z*%
FMAT,2
ICI,OFF
METRIC,TZ,000.000
T14C0.610
T13C0.800
T12C0.813
T11C0.914
T10C1.016
T9C1.067
T8C1.100
T7C1.118
T6C1.143
T5C1.300
T4C1.500
T3C1.714
T2C3.175
T1C4.000
%
G90
M71
T1
X180340Y11430
X123190Y11430
X142240Y11430
X180340Y30480
X123190Y30480
X180340Y49530
X123190Y68580
X142240Y49530
X161290Y68580
X161290Y49530
X161290Y30480
X142240Y30480
X180340Y68580
X142240Y68580
X123190Y49530
X161290Y11430
T2
X195580Y123190
X3810Y3810
X44450Y105410
X44450Y123190
X3810Y123190
X195580Y3810
X190500Y105410
X190500Y123190
T3
X118110Y30480
X128270Y30480
X175260Y11430
X185420Y11430
X137160Y30480
X118110Y68580
X128270Y68580
X156210Y11430
X166370Y11430
X128270Y49530
X175260Y30480
X166370Y68580
X185420Y68580
X175260Y68580
X137160Y49530
X147320Y49530
X185420Y30480
X118110Y11430
X156210Y68580
X128270Y11430
X156210Y49530
X166370Y49530
X118110Y49530
X166370Y30480
X147320Y30480
X147320Y11430
X175260Y49530
X185420Y49530
X156210Y30480
X147320Y68580
X137160Y68580
X137160Y11430
T4
X157480Y71120
X176530Y33020
X182880Y35560
X138430Y13970
X144780Y16510
X157480Y13970
X119380Y71120
X125730Y73660
X163830Y16510
X176530Y13970
X138430Y71120
X144780Y73660
X182880Y16510
X119380Y13970
X125730Y16510
X163830Y73660
X176530Y71120
X182880Y73660
X119380Y52070
X125730Y54610
X138430Y52070
X144780Y54610
X157480Y52070
X163830Y54610
X176530Y52070
X182880Y54610
X119380Y33020
X125730Y35560
X138430Y33020
X144780Y35560
X157480Y33020
X163830Y35560
T5
X19050Y74510
X19050Y94510
T6
X33020Y111760
X17780Y111760
T7
X11430Y57150
X11430Y44450
X11430Y74930
X11430Y62230
T8
X30400Y111760
X20400Y111760
T9
X140970Y63500
X160020Y6350
X162560Y63500
X179070Y6350
X124460Y6350
X140970Y44450
X160020Y44450
X143510Y6350
X181610Y44450
X121920Y6350
X179070Y44450
X162560Y6350
X181610Y6350
X124460Y63500
X121920Y63500
X143510Y63500
X124460Y25400
X121920Y25400
X143510Y25400
X140970Y25400
X162560Y25400
X160020Y25400
X181610Y25400
X179070Y25400
X140970Y6350
X162560Y44450
X143510Y44450
X121920Y44450
X124460Y44450
X179070Y63500
X181610Y63500
X160020Y63500
T10
X25400Y123190
X22860Y123190
X62230Y62230
X81280Y19050
X8890Y19050
X8890Y21590
X8890Y24130
X22860Y111760
X27940Y111760
X26670Y5080
X81280Y16510
X58420Y5080
X8890Y26670
X3810Y57150
X26670Y12700
X3810Y59690
X3810Y62230
X3810Y64770
X3810Y67310
X58420Y12700
X27940Y123190
X3810Y69850
X3810Y72390
X3810Y74930
X3810Y77470
X3810Y80010
X3810Y82550
X3810Y85090
X3810Y87630
X3810Y90170
X3810Y92710
X3810Y95250
X3810Y97790
X3810Y100330
X3810Y102870
X3810Y105410
X3810Y107950
X3810Y110490
X3810Y115570
X3810Y118110
X3810Y113030
X3810Y19050
X3810Y21590
X3810Y24130
X3810Y26670
X3810Y29210
X3810Y31750
X3810Y34290
X3810Y36830
X3810Y39370
X3810Y41910
X3810Y44450
X3810Y46990
X3810Y49530
X3810Y52070
X3810Y54610
T11
X57150Y90170
X194310Y66040
X194310Y63500
X8890Y100330
X8890Y102870
X8890Y105410
X36830Y123190
X39370Y123190
X54610Y90170
X10160Y123190
X12700Y123190
T12
X162560Y120650
X162560Y118110
X162560Y115570
X162560Y113030
X162560Y110490
X162560Y105410
X170180Y105410
X170180Y110490
X170180Y115570
X170180Y118110
X170180Y120650
X148590Y120650
X148590Y118110
X148590Y115570
X148590Y113030
X148590Y110490
X148590Y105410
X156210Y105410
X156210Y110490
X156210Y118110
X156210Y120650
X134620Y120650
X134620Y118110
X134620Y115570
X134620Y113030
X134620Y110490
X134620Y105410
X142240Y105410
X142240Y110490
X142240Y115570
X142240Y118110
X142240Y120650
X120650Y120650
X120650Y118110
X120650Y115570
X120650Y113030
X120650Y110490
X120650Y105410
X128270Y105410
X128270Y110490
X128270Y115570
X128270Y118110
X128270Y120650
X106680Y120650
X106680Y118110
X106680Y115570
X106680Y113030
X106680Y110490
X106680Y105410
X114300Y105410
X114300Y110490
X114300Y115570
X114300Y118110
X114300Y120650
X92710Y120650
X92710Y118110
X92710Y115570
X92710Y113030
X92710Y110490
X92710Y105410
X100330Y105410
X100330Y110490
X100330Y115570
X100330Y118110
X100330Y120650
X78740Y120650
X78740Y118110
X78740Y115570
X78740Y113030
X78740Y110490
X78740Y105410
X86360Y105410
X86360Y110490
X86360Y115570
X86360Y118110
X86360Y120650
X64770Y120650
X64770Y118110
X64770Y115570
X64770Y113030
X64770Y110490
X64770Y105410
X72390Y105410
X72390Y110490
X72390Y115570
X72390Y118110
X72390Y120650
X50800Y120650
X50800Y118110
X50800Y115570
X50800Y113030
X50800Y110490
X50800Y105410
X58420Y105410
X58420Y110490
X58420Y115570
X58420Y118110
X58420Y120650
X54610Y82550
X57150Y82550
X107950Y10160
X86360Y72390
X86360Y69850
X86360Y57150
X86360Y54610
X86360Y67310
X86360Y64770
X86360Y59690
X86360Y62230
X86360Y52070
X86360Y49530
X93980Y49530
X93980Y52070
X93980Y54610
X93980Y57150
X93980Y59690
X93980Y62230
X93980Y64770
X93980Y67310
X93980Y69850
X93980Y72390
X69850Y72390
X69850Y69850
X69850Y57150
X69850Y54610
X69850Y67310
X69850Y64770
X69850Y59690
X69850Y62230
X69850Y52070
X69850Y49530
X77470Y49530
X77470Y52070
X77470Y54610
X77470Y57150
X77470Y59690
X77470Y62230
X77470Y64770
X77470Y67310
X77470Y69850
X77470Y72390
X52070Y72390
X52070Y69850
X52070Y57150
X52070Y54610
X52070Y67310
X52070Y64770
X52070Y59690
X52070Y62230
X52070Y52070
X52070Y49530
X59690Y49530
X59690Y52070
X59690Y54610
X59690Y57150
X59690Y59690
X59690Y62230
X59690Y64770
X59690Y67310
X59690Y69850
X59690Y72390
X100330Y72390
X100330Y69850
X100330Y57150
X100330Y54610
X100330Y67310
X100330Y64770
X100330Y59690
X100330Y62230
X107950Y54610
X107950Y57150
X107950Y59690
X107950Y62230
X107950Y64770
X107950Y67310
X107950Y69850
X107950Y72390
X48260Y83820
X48260Y91440
X48260Y95250
X48260Y102870
X69850Y39370
X69850Y36830
X69850Y34290
X69850Y31750
X69850Y29210
X69850Y26670
X69850Y24130
X69850Y21590
X69850Y19050
X69850Y16510
X69850Y13970
X69850Y11430
X77470Y11430
X77470Y13970
X77470Y16510
X77470Y19050
X77470Y21590
X77470Y24130
X77470Y26670
X77470Y29210
X77470Y31750
X77470Y34290
X77470Y36830
X77470Y39370
X100330Y48260
X100330Y45720
X100330Y33020
X100330Y30480
X100330Y43180
X100330Y40640
X100330Y35560
X100330Y38100
X107950Y30480
X107950Y33020
X107950Y35560
X107950Y38100
X107950Y40640
X107950Y43180
X107950Y45720
X107950Y48260
X100330Y22860
X100330Y20320
X100330Y7620
X100330Y5080
X100330Y17780
X100330Y15240
X100330Y10160
X100330Y12700
X107950Y5080
X107950Y7620
X156210Y115570
X107950Y12700
X107950Y15240
X107950Y17780
X107950Y20320
X107950Y22860
X86360Y35560
X86360Y33020
X86360Y20320
X86360Y17780
X86360Y30480
X86360Y27940
X86360Y22860
X86360Y25400
X86360Y15240
X86360Y12700
X93980Y12700
X93980Y15240
X93980Y17780
X93980Y20320
X93980Y22860
X93980Y25400
X93980Y27940
X93980Y30480
X93980Y33020
X93980Y35560
X111760Y29210
X111760Y31750
X111760Y34290
X111760Y36830
X111760Y39370
X111760Y41910
X111760Y44450
X111760Y46990
X111760Y49530
X111760Y3810
X111760Y6350
X111760Y8890
X111760Y11430
X111760Y13970
X111760Y16510
X111760Y19050
X111760Y21590
X111760Y24130
X52070Y39370
X52070Y36830
X52070Y24130
X52070Y21590
X52070Y34290
X52070Y31750
X52070Y26670
X52070Y29210
X59690Y21590
X59690Y24130
X59690Y26670
X59690Y29210
X59690Y31750
X59690Y34290
X59690Y36830
X59690Y39370
X38100Y39370
X38100Y36830
X38100Y24130
X38100Y21590
X38100Y34290
X38100Y31750
X38100Y26670
X38100Y29210
X45720Y21590
X45720Y24130
X45720Y26670
X45720Y29210
X45720Y31750
X45720Y34290
X45720Y36830
X45720Y39370
X43180Y5080
X50800Y5080
X50800Y12700
X43180Y12700
X16510Y39370
X16510Y36830
X16510Y34290
X16510Y31750
X16510Y29210
X16510Y26670
X16510Y24130
X16510Y21590
X16510Y19050
X24130Y19050
X24130Y21590
X24130Y24130
X24130Y26670
X24130Y29210
X24130Y31750
X24130Y34290
X24130Y36830
X24130Y39370
X31750Y40640
X31750Y35560
X27940Y33020
X27940Y40640
X29210Y43180
X29210Y50800
X29210Y62230
X29210Y54610
X24130Y41910
X21590Y41910
X16510Y67310
X16510Y64770
X16510Y52070
X16510Y49530
X16510Y62230
X16510Y59690
X16510Y54610
X16510Y57150
X24130Y49530
X24130Y52070
X24130Y54610
X24130Y57150
X24130Y59690
X24130Y62230
X24130Y64770
X24130Y67310
X29210Y77470
X29210Y69850
X24130Y69850
X21590Y69850
X11430Y5080
X19050Y5080
X19050Y12700
X11430Y12700
X26670Y69850
X26670Y74930
X58420Y124460
X55880Y124460
X72390Y124460
X69850Y124460
X86360Y124460
X83820Y124460
X100330Y124460
X97790Y124460
X114300Y124460
X111760Y124460
X128270Y124460
X125730Y124460
X142240Y124460
X139700Y124460
X156210Y124460
X153670Y124460
X184150Y124460
X181610Y124460
X170180Y124460
X167640Y124460
X93980Y74930
X91440Y74930
X107950Y74930
X105410Y74930
X59690Y74930
X57150Y74930
X77470Y74930
X74930Y74930
X45720Y41910
X43180Y41910
X59690Y41910
X57150Y41910
X77470Y41910
X74930Y41910
X93980Y38100
X91440Y38100
X107950Y50800
X105410Y50800
X107950Y25400
X105410Y25400
X5080Y11430
X5080Y8890
X38100Y11430
X38100Y8890
X194310Y57150
X194310Y54610
X194310Y52070
X194310Y49530
X194310Y46990
X194310Y44450
X194310Y41910
X194310Y39370
X194310Y36830
X194310Y30480
X194310Y27940
X194310Y25400
X194310Y22860
X194310Y20320
X194310Y17780
X194310Y15240
X194310Y12700
X194310Y10160
X43180Y117475
X45720Y117475
X39370Y93980
X39370Y101600
X43180Y111125
X45720Y111125
X43180Y93980
X43180Y101600
X189230Y117475
X191770Y117475
X189230Y111125
X191770Y111125
X194310Y91440
X194310Y99060
X190500Y91440
X190500Y99060
X31750Y8890
X31750Y11430
X190500Y82550
X190500Y87630
X44450Y85090
X44450Y90170
X35560Y83845
X35560Y88875
X33020Y86360
X31750Y93980
X34290Y93980
X36830Y72390
X36830Y69850
X36830Y57150
X36830Y54610
X36830Y67310
X36830Y64770
X36830Y59690
X36830Y62230
X36830Y52070
X36830Y49530
X44450Y49530
X44450Y52070
X44450Y54610
X44450Y57150
X44450Y59690
X44450Y62230
X44450Y64770
X44450Y67310
X44450Y69850
X44450Y72390
X44450Y74930
X41910Y74930
X34290Y80010
X35560Y78105
X36830Y80010
X31750Y73660
X31750Y81280
X176530Y120650
X176530Y118110
X176530Y115570
X176530Y113030
X176530Y110490
X176530Y105410
X184150Y105410
X184150Y110490
X184150Y115570
X184150Y118110
X184150Y120650
T13
X114300Y113030
X170180Y113030
X170180Y107950
X162560Y107950
X114300Y107950
X106680Y107950
X156210Y113030
X156210Y107950
X100330Y113030
X100330Y107950
X92710Y107950
X148590Y107950
X86360Y113030
X86360Y107950
X78740Y107950
X142240Y113030
X142240Y107950
X134620Y107950
X184150Y113030
X184150Y107950
X176530Y107950
X72390Y113030
X72390Y107950
X64770Y107950
X128270Y113030
X128270Y107950
X120650Y107950
X58420Y113030
X58420Y107950
X50800Y107950
T14
X152083Y121920
X7302Y37148
X91281Y28416
X40799Y30639
X90011Y121920
X96520Y121920
X123507Y122872
X6350Y36354
X90646Y25717
X73025Y58261
X76676Y110490
X94297Y109379
X125571Y115411
X101600Y111919
X105092Y111919
X17939Y40640
X84773Y21749
X97155Y57626
X64452Y36989
X65564Y86360
X150971Y93980
X111442Y88741
X74454Y72231
X80963Y92075
X20161Y43180
X22066Y52070
X42545Y56039
X62547Y114141
X49689Y56197
X33973Y44609
X34131Y49054
X41275Y50959
X84138Y55721
X81756Y57309
X81439Y106839
X40005Y77788
X133826Y70326
X70485Y87630
X157956Y93027
X136366Y83503
X133826Y84455
X70485Y86360
X137636Y86836
X54769Y52070
X55880Y83503
X141288Y102711
X121126Y43021
X121126Y64929
X73501Y76200
X113347Y84455
X66358Y31750
X67628Y95885
X104457Y101759
X103029Y58261
X103505Y108426
X98107Y99219
X84296Y72549
X53340Y105569
X63500Y77629
X72390Y84455
X58579Y46355
X90011Y46672
X64452Y27146
X63500Y46831
X90964Y62230
X91916Y64770
X97155Y53022
X48736Y72549
X50641Y94139
X66834Y43498
X73025Y48736
X78899Y48260
X36036Y39846
X11430Y47625
X21749Y47466
X81439Y95885
X14446Y35243
X14764Y41910
X152559Y51276
X64452Y69850
X39846Y19526
X80963Y87789
X74454Y62706
X82391Y102711
X10001Y85566
X103346Y46196
X113506Y47942
X7937Y50006
X66834Y37941
X43656Y87471
X49371Y39846
X67786Y35719
X51435Y83661
X129222Y8731
X127000Y7779
X62547Y47625
X145891Y42069
X144939Y46196
X56356Y119697
X20796Y52070
X27464Y56197
X71438Y28099
X99377Y26670
X54610Y31750
X36036Y90964
X72073Y74136
X87630Y41434
X56991Y38894
X45879Y86519
X96361Y123984
X104140Y21273
X120650Y19526
X103187Y17939
X124142Y124142
X113824Y50959
X114776Y71438
X112871Y54134
X67469Y101759
X5556Y78740
X10160Y35878
X76200Y45402
X42228Y65881
X41275Y68421
X32544Y55404
X64452Y71120
X26511Y66834
X123349Y112871
X30797Y64611
X25559Y60960
X31274Y52864
X56039Y79693
X146526Y113506
X91281Y30639
X94774Y113347
X18256Y53181
X18256Y45879
X55562Y53022
X14922Y17939
M30