M48
;GenerationSoftware,Autodesk,EAGLE,9.6.1*%
;CreationDate,2023-10-20T05:27:48Z*%
FMAT,2
ICI,OFF
METRIC,TZ,000.000
T10C0.610
T9C0.813
T8C0.914
T7C1.016
T6C1.118
T5C1.270
T4C1.397
T3C2.667
T2C3.175
T1C3.302
%
G90
M71
T1
X8890Y116230
X163830Y5334
X8890Y69190
T2
X195580Y3810
X3810Y123190
X3810Y3810
X195580Y123190
X187400Y11430
T3
X190500Y16230
X193500Y11430
T4
X3785Y60655
X3785Y53645
T5
X160020Y88900
X157480Y88900
X154940Y88900
X152400Y88900
X149860Y88900
X144780Y88900
X142240Y88900
X154940Y104140
X147320Y104140
X147320Y88900
X152400Y104140
X170180Y104140
X149860Y104140
X162560Y88900
X142240Y104140
X144780Y104140
X165100Y88900
X167640Y88900
X170180Y88900
X172720Y88900
X175260Y88900
X177800Y88900
X180340Y88900
X180340Y104140
X177800Y104140
X175260Y104140
X172720Y104140
X167640Y104140
X165100Y104140
X162560Y104140
X160020Y104140
X157480Y104140
T6
X161290Y20320
X151130Y30480
X182880Y17780
X151130Y17780
X166370Y20320
X182880Y5080
X163830Y20320
T7
X195580Y24130
X195580Y21590
X195580Y19050
X195580Y113030
X195580Y118110
X195580Y115570
X195580Y110490
X195580Y107950
X195580Y105410
X195580Y102870
X195580Y100330
X195580Y97790
X195580Y95250
X195580Y92710
X195580Y90170
X195580Y87630
X195580Y85090
X195580Y82550
X195580Y80010
X195580Y77470
X195580Y72390
X195580Y69850
X7620Y107899
X7620Y105131
X7620Y102362
X7620Y99619
X7620Y96850
X7620Y94082
X7620Y91338
X7620Y88570
X7620Y85801
X7620Y83058
X7620Y80289
X7620Y77521
X10160Y109271
X10160Y106502
X10160Y103759
X10160Y100990
X10160Y98222
X10160Y92710
X10160Y89941
X10160Y87198
X10160Y84430
X10160Y81661
X10160Y78918
X10160Y76149
X10160Y95479
X10160Y59690
X10160Y57150
X10160Y54610
X1295Y54902
X1295Y59398
X175260Y113030
X177800Y113030
X180340Y113030
X182880Y113030
X185420Y113030
X195580Y34290
X45720Y92710
X45720Y100330
X195580Y67310
X195580Y64770
X195580Y62230
X195580Y59690
X195580Y57150
X195580Y54610
X195580Y52070
X195580Y49530
X195580Y46990
X195580Y44450
X195580Y41910
X195580Y39370
X195580Y36830
X195580Y74930
X195580Y31750
X195580Y29210
X195580Y26670
X45720Y124460
X43180Y124460
X40640Y124460
X38100Y124460
X35560Y124460
X33020Y124460
X142240Y114300
X142240Y121920
T8
X182880Y119380
X185420Y119380
X21590Y86360
X21590Y88900
X21590Y95250
X21590Y92710
X19050Y86360
X19050Y88900
X60960Y92710
X63500Y92710
X66040Y92710
X60960Y86360
X63500Y86360
X66040Y86360
X25400Y60960
X19050Y92710
X25400Y63500
X25400Y66040
X187960Y119380
X21590Y80010
X21590Y82550
X19050Y80010
X81280Y44450
X78740Y44450
X15240Y124460
X17780Y124460
X19050Y82550
X19050Y95250
X25400Y50800
X25400Y53340
X25400Y55880
X25400Y40640
X25400Y43180
X25400Y45720
X49530Y72390
X49530Y74930
X46990Y74930
X46990Y72390
X44450Y74930
X44450Y72390
X41910Y74930
X41910Y72390
X39370Y74930
X39370Y72390
X36830Y74930
X36830Y72390
X34290Y74930
X34290Y72390
X31750Y74930
X31750Y72390
X29210Y74930
X29210Y72390
X26670Y74930
X26670Y72390
X24130Y74930
X24130Y72390
X21590Y74930
X21590Y72390
T9
X72390Y29210
X72390Y31750
X74930Y121920
X74930Y119380
X74930Y106680
X74930Y104140
X74930Y116840
X74930Y114300
X74930Y109220
X74930Y111760
X82550Y104140
X82550Y106680
X82550Y109220
X82550Y111760
X82550Y114300
X82550Y116840
X82550Y121920
X24130Y111760
X26670Y111760
X39370Y111760
X41910Y111760
X29210Y111760
X31750Y111760
X36830Y111760
X34290Y111760
X41910Y119380
X39370Y119380
X36830Y119380
X34290Y119380
X31750Y119380
X29210Y119380
X26670Y119380
X24130Y119380
X25400Y107950
X27940Y107950
X31750Y107950
X34290Y107950
X20320Y114300
X20320Y116840
X40640Y107950
X38100Y107950
X24130Y121920
X26670Y121920
X3810Y8890
X3810Y11430
X3810Y13970
X3810Y16510
X3810Y19050
X3810Y21590
X3810Y24130
X3810Y26670
X3810Y29210
X3810Y31750
X3810Y34290
X3810Y36830
X3810Y39370
X3810Y41910
X3810Y44450
X3810Y46990
X12700Y8890
X12700Y11430
X12700Y13970
X12700Y16510
X12700Y19050
X12700Y21590
X12700Y24130
X12700Y26670
X12700Y29210
X93980Y121920
X93980Y119380
X93980Y106680
X101600Y106680
X93980Y116840
X93980Y114300
X93980Y109220
X93980Y111760
X101600Y109220
X101600Y111760
X101600Y114300
X101600Y116840
X101600Y119380
X101600Y121920
X163830Y33020
X168910Y33020
X87630Y121920
X87630Y119380
X87630Y116840
X87630Y114300
X87630Y111760
X17780Y26670
X17780Y24130
X17780Y11430
X17780Y8890
X17780Y21590
X17780Y19050
X17780Y13970
X17780Y16510
X17780Y6350
X17780Y3810
X25400Y3810
X25400Y6350
X25400Y8890
X25400Y11430
X25400Y13970
X25400Y16510
X25400Y19050
X25400Y21590
X25400Y24130
X25400Y26670
X54610Y116840
X57150Y116840
X57150Y124460
X54610Y124460
X59690Y116840
X62230Y116840
X59690Y124460
X62230Y124460
X52070Y111760
X54610Y111760
X57150Y111760
X59690Y111760
X62230Y111760
X64770Y80010
X62230Y80010
X120650Y119380
X120650Y116840
X101600Y124460
X99060Y124460
X101600Y80010
X99060Y80010
X115570Y124460
X113030Y124460
X135890Y74930
X133350Y74930
X118110Y74930
X115570Y74930
X138430Y30480
X135890Y30480
X123190Y29210
X120650Y29210
X25400Y101600
X25400Y99060
X143510Y2540
X140970Y2540
X54610Y24130
X52070Y24130
X147320Y113030
X149860Y113030
X72390Y34290
X69850Y34290
X25400Y29210
X22860Y29210
X82550Y124460
X80010Y124460
X107950Y29210
X105410Y29210
X83820Y80010
X81280Y80010
X175260Y3810
X82550Y119380
X175260Y6350
X171450Y11430
X179070Y11430
X57150Y77470
X57150Y74930
X57150Y72390
X57150Y69850
X57150Y67310
X57150Y64770
X57150Y62230
X57150Y59690
X57150Y57150
X57150Y54610
X57150Y52070
X57150Y49530
X64770Y49530
X64770Y52070
X64770Y54610
X64770Y57150
X64770Y59690
X64770Y62230
X64770Y64770
X64770Y67310
X64770Y69850
X64770Y72390
X64770Y74930
X64770Y77470
X147320Y76200
X147320Y73660
X179070Y40640
X176530Y40640
X168910Y40640
X166370Y40640
X163830Y40640
X180340Y36830
X175260Y36830
X163830Y36830
X168910Y36830
X46990Y21590
X46990Y19050
X46990Y6350
X46990Y3810
X46990Y16510
X46990Y13970
X46990Y8890
X46990Y11430
X54610Y3810
X54610Y6350
X54610Y8890
X54610Y11430
X54610Y13970
X54610Y16510
X54610Y19050
X54610Y21590
X151130Y55880
X153670Y55880
X156210Y55880
X158750Y55880
X161290Y55880
X163830Y55880
X167640Y110490
X160020Y110490
X100330Y26670
X100330Y24130
X100330Y11430
X100330Y8890
X100330Y21590
X100330Y19050
X100330Y13970
X100330Y16510
X100330Y6350
X100330Y3810
X107950Y3810
X107950Y6350
X107950Y8890
X107950Y11430
X107950Y13970
X107950Y16510
X107950Y19050
X107950Y21590
X107950Y26670
X83820Y26670
X83820Y24130
X83820Y11430
X83820Y8890
X83820Y21590
X83820Y19050
X83820Y13970
X83820Y16510
X83820Y6350
X83820Y3810
X91440Y3810
X91440Y6350
X91440Y8890
X91440Y11430
X91440Y13970
X91440Y16510
X91440Y19050
X91440Y21590
X91440Y24130
X91440Y26670
X30480Y92710
X38100Y92710
X38100Y100330
X30480Y100330
X16510Y60960
X19050Y60960
X30480Y63500
X30480Y60960
X30480Y58420
X30480Y55880
X30480Y53340
X30480Y50800
X30480Y48260
X30480Y45720
X30480Y43180
X30480Y40640
X30480Y38100
X30480Y35560
X30480Y33020
X30480Y30480
X45720Y30480
X45720Y33020
X45720Y35560
X45720Y38100
X45720Y40640
X45720Y43180
X45720Y45720
X45720Y48260
X45720Y50800
X45720Y53340
X45720Y55880
X45720Y58420
X45720Y60960
X45720Y63500
X29210Y78740
X31750Y78740
X44450Y78740
X46990Y78740
X34290Y78740
X36830Y78740
X41910Y78740
X39370Y78740
X46990Y86360
X44450Y86360
X41910Y86360
X39370Y86360
X36830Y86360
X34290Y86360
X31750Y86360
X29210Y86360
X20320Y49530
X20320Y41910
X48260Y57150
X48260Y54610
X26670Y86360
X26670Y83820
X33020Y21590
X33020Y19050
X33020Y6350
X33020Y3810
X33020Y16510
X33020Y13970
X33020Y8890
X33020Y11430
X40640Y3810
X40640Y6350
X40640Y8890
X40640Y11430
X40640Y13970
X40640Y16510
X40640Y19050
X40640Y21590
X40640Y24130
X38100Y24130
X20320Y104140
X20320Y106680
X45720Y111760
X45720Y114300
X45720Y105410
X45720Y107950
X45720Y118110
X45720Y120650
X91440Y29210
X88900Y29210
X60960Y19050
X60960Y21590
X60960Y24130
X60960Y26670
X60960Y29210
X81280Y41910
X88900Y41910
X76200Y72390
X176530Y24130
X173990Y24130
X172720Y17780
X177800Y17780
X160020Y27940
X165100Y27940
X160020Y24130
X165100Y24130
X151130Y60960
X153670Y60960
X166370Y60960
X168910Y60960
X156210Y60960
X158750Y60960
X163830Y60960
X161290Y60960
X171450Y60960
X173990Y60960
X176530Y60960
X179070Y60960
X181610Y60960
X184150Y60960
X186690Y60960
X189230Y60960
X189230Y76200
X186690Y76200
X184150Y76200
X181610Y76200
X179070Y76200
X176530Y76200
X173990Y76200
X171450Y76200
X168910Y76200
X166370Y76200
X163830Y76200
X161290Y76200
X158750Y76200
X156210Y76200
X153670Y76200
X151130Y76200
X162560Y116840
X167640Y116840
X15240Y34290
X20320Y34290
X52070Y95250
X52070Y100330
X93980Y77470
X93980Y74930
X93980Y72390
X93980Y69850
X93980Y67310
X93980Y64770
X93980Y62230
X93980Y59690
X93980Y57150
X93980Y54610
X93980Y52070
X93980Y49530
X101600Y49530
X101600Y52070
X101600Y54610
X101600Y57150
X101600Y59690
X101600Y62230
X101600Y64770
X101600Y67310
X101600Y69850
X101600Y72390
X101600Y74930
X101600Y77470
X107950Y121920
X107950Y119380
X107950Y106680
X115570Y106680
X107950Y116840
X107950Y114300
X107950Y109220
X107950Y111760
X115570Y109220
X115570Y111760
X115570Y114300
X115570Y116840
X115570Y119380
X115570Y121920
X127000Y114300
X134620Y114300
X134620Y121920
X127000Y121920
X76200Y77470
X76200Y74930
X107950Y24130
X76200Y69850
X76200Y67310
X76200Y64770
X76200Y62230
X76200Y59690
X76200Y57150
X76200Y54610
X76200Y52070
X76200Y49530
X83820Y49530
X83820Y52070
X83820Y54610
X83820Y57150
X83820Y59690
X83820Y62230
X83820Y64770
X83820Y67310
X83820Y69850
X83820Y72390
X83820Y74930
X83820Y77470
X16510Y57150
X16510Y52070
X16510Y54610
X12700Y49530
X12700Y41910
X115570Y26670
X115570Y24130
X115570Y11430
X115570Y8890
X115570Y21590
X115570Y19050
X115570Y13970
X115570Y16510
X115570Y6350
X115570Y3810
X123190Y3810
X123190Y6350
X123190Y8890
X123190Y11430
X123190Y13970
X123190Y16510
X123190Y19050
X123190Y21590
X123190Y24130
X123190Y26670
X129540Y26670
X129540Y24130
X129540Y21590
X129540Y19050
X129540Y16510
X129540Y13970
X129540Y11430
X129540Y8890
X129540Y6350
X110490Y72390
X110490Y69850
X110490Y57150
X110490Y54610
X110490Y67310
X110490Y64770
X110490Y59690
X110490Y62230
X110490Y52070
X110490Y49530
X118110Y49530
X118110Y52070
X118110Y54610
X118110Y57150
X118110Y59690
X118110Y62230
X118110Y64770
X118110Y67310
X118110Y69850
X118110Y72390
X128270Y72390
X128270Y69850
X128270Y57150
X128270Y54610
X128270Y67310
X128270Y64770
X128270Y59690
X128270Y62230
X128270Y52070
X128270Y49530
X135890Y49530
X135890Y52070
X135890Y54610
X135890Y57150
X135890Y59690
X135890Y62230
X135890Y64770
X135890Y67310
X135890Y69850
X135890Y72390
X135890Y26670
X135890Y24130
X135890Y21590
X135890Y19050
X135890Y16510
X135890Y13970
X135890Y11430
X135890Y8890
X135890Y6350
X143510Y6350
X143510Y8890
X143510Y11430
X143510Y13970
X143510Y16510
X143510Y19050
X143510Y21590
X143510Y24130
X143510Y26670
X64770Y31750
X64770Y29210
X64770Y26670
X64770Y24130
X64770Y21590
X64770Y19050
X64770Y16510
X64770Y13970
X64770Y11430
X64770Y8890
X64770Y6350
X64770Y3810
X72390Y3810
X72390Y6350
X72390Y8890
X72390Y11430
X72390Y13970
X72390Y16510
X72390Y19050
X72390Y21590
X72390Y24130
X72390Y26670
T10
X79375Y104299
X15875Y98584
X48260Y49530
X88900Y26829
X72549Y44450
X76200Y44926
X81121Y33655
X79058Y35401
X58102Y46196
X48260Y26511
X147320Y61912
X145415Y76994
X189389Y55562
X180657Y85725
X192564Y75883
X151130Y10319
X186849Y56356
X139224Y1270
X94932Y82391
X171926Y69850
X56832Y7779
X172244Y44132
X116364Y42545
X112871Y24606
X103981Y22701
X167481Y62865
X82233Y10319
X79693Y18891
X139224Y58102
X138113Y33655
X111919Y33496
X111125Y11589
X138906Y63182
X171609Y63817
X165100Y63817
X44767Y12859
X135096Y38259
X111919Y37624
X105727Y11589
X171291Y53181
X162401Y53181
X49371Y2540
X49689Y16034
X97790Y14922
X133826Y42069
X113506Y42069
X109696Y38259
X93345Y36671
X93345Y14922
X23654Y17780
X105727Y16669
X106839Y43815
X125571Y44291
X164941Y52705
X160179Y74613
X168434Y73184
X42863Y40958
X71596Y41593
X70961Y17780
X95250Y20161
X95885Y15716
X163671Y70803
X160338Y70803
X29686Y11906
X98584Y42863
X123825Y43815
X33020Y30004
X53975Y32226
X54927Y34131
X57785Y34766
X58102Y39529
X133033Y70961
X162719Y64452
X158274Y64452
X102235Y39529
X53181Y38576
X52229Y28416
X35243Y28416
X155258Y81915
X112077Y86201
X98107Y89059
X57150Y84773
X152718Y59214
X152718Y68898
X98425Y40005
X54927Y39053
X53181Y30162
X27781Y29051
X126841Y92075
X21431Y83979
X22542Y34290
X120491Y77946
X123507Y105569
X60007Y59849
X63024Y71279
X36036Y16986
X59214Y16510
X120809Y62389
X121444Y78740
X191929Y83661
X166688Y84138
X150654Y100965
X140335Y78899
X77470Y85090
X120967Y82391
X174308Y86043
X182086Y102394
X182086Y86678
X42863Y15081
X60801Y58896
X61119Y66834
X78264Y60166
X61595Y14446
X140176Y71755
X138271Y60801
X169228Y79216
X190182Y83185
X192881Y97314
X72708Y56039
X73184Y67151
X73025Y58261
X123984Y83026
X123349Y70326
X120491Y68263
X72708Y53499
X129381Y113347
X124301Y62389
X113506Y60801
X33655Y49212
X72708Y49689
X105886Y59214
X105092Y57309
X98742Y54134
X97314Y52229
X124460Y107474
X120809Y58896
X38735Y15716
X39370Y44132
X64135Y43498
X86043Y105727
X88265Y102235
X116364Y102076
X79693Y11112
X176689Y71438
X181610Y67786
X89376Y16510
X98107Y17621
X103029Y15716
X113506Y14446
X184150Y66993
X176530Y74136
X74930Y9049
X131128Y5239
X84138Y83344
X113189Y83820
X89376Y9049
X95885Y12382
X117475Y12541
X117475Y5556
X179864Y62865
X80645Y16351
X132398Y7779
X88424Y11271
X105727Y6191
X174308Y66993
X148749Y66993
X148273Y57150
X189230Y100012
X75883Y14446
X132874Y10319
X86360Y34925
X118269Y34766
X145415Y66516
X144939Y56197
X133350Y12859
X133350Y52070
X187484Y98425
X178117Y100965
X79693Y20955
X77470Y87947
X106204Y86519
X87630Y16669
X88424Y34131
X108744Y33814
X169704Y91281
X107315Y91440
X183039Y98742
X176212Y99060
X127635Y15557
X76676Y86201
X106680Y85249
X88265Y21749
X89376Y38100
X128111Y39211
X175101Y44132
X184944Y78423
X79693Y26670
X115411Y61754
X77470Y99219
X126365Y99219
X117316Y27781
X169863Y108426
X129381Y108426
X79693Y29210
X119221Y25559
X185579Y79534
X185102Y96520
X170656Y100012
X129381Y103187
X123349Y66199
X62071Y61119
X62071Y63500
X197167Y104140
X68421Y60325
X69850Y115252
X117475Y77946
X138748Y75565
X131128Y74454
X133033Y72549
X192564Y62230
X56832Y19526
X49689Y21749
X40323Y27464
X49689Y24606
X32544Y95250
X91281Y41751
X90964Y31750
X91281Y76994
X55404Y84614
X62547Y81915
X50641Y36195
X96361Y80486
X77788Y6032
X159861Y96361
X86836Y96520
X87947Y92869
X157798Y93186
X165735Y92075
X197326Y91281
X197644Y81598
X85408Y123349
X187801Y72549
X184150Y24606
X43815Y27464
X60484Y32226
X60801Y39529
X153670Y40640
X146368Y58261
X145574Y44767
X89852Y44767
X134303Y15399
X133826Y38259
X96996Y37624
X96679Y76835
X114459Y83820
X68898Y101124
X33973Y28099
X34290Y35401
X100489Y45720
X104616Y72390
X142558Y41593
X107791Y41910
X105727Y88424
X89694Y88582
X89376Y84296
X103346Y50959
X114459Y67945
X114459Y52387
X142081Y46672
X95885Y48101
X147320Y59055
X143034Y61912
X135731Y88424
X103664Y89059
X97472Y72390
X98742Y76835
X136366Y79375
X140176Y12224
X100012Y63659
X97949Y67310
X98425Y55721
X114776Y32226
X100489Y32544
X96044Y59849
X95726Y73343
X74136Y64611
X186055Y82709
X185420Y104934
X66358Y95567
X153829Y95409
X105251Y55245
X106839Y63182
X112077Y63659
X109537Y94615
X197326Y96361
X108744Y65723
X107791Y87154
X158750Y83344
X142081Y72231
X115252Y71279
X113665Y73343
X78740Y10160
X60007Y10001
X58737Y6826
X107315Y35719
X87471Y35719
X173038Y25559
X165259Y35084
X120650Y34449
X119380Y35719
X51117Y34449
X51594Y38100
X94139Y37624
X95250Y24765
X85884Y24130
X180657Y63817
X183039Y81439
X113506Y114141
X101759Y98266
X92551Y98266
X89376Y59849
X85884Y59690
X84296Y120332
X28416Y63500
X47942Y71279
X17463Y112871
X26670Y87947
X33814Y96679
X22066Y100489
X24447Y68580
X199231Y63659
X15399Y31115
X21749Y17145
X19526Y20638
X97472Y70961
X137954Y67310
X133668Y79375
X119062Y80010
X117475Y82391
X101917Y81915
X79375Y97631
X68421Y28099
X56832Y28099
X54134Y74136
X76835Y6826
X74771Y45879
X69850Y47307
X69374Y69691
X66358Y63659
X67469Y66199
X66993Y40005
X85566Y36195
X85566Y51117
X88424Y52229
X88741Y105727
X192881Y99219
X61754Y34131
X64611Y34766
X42228Y43180
X51117Y43339
X70803Y117475
X55086Y70644
X39370Y68898
X39370Y45402
X103187Y28734
X130016Y43815
X197644Y46196
X133668Y98266
X137319Y75565
X155099Y72231
X76518Y42545
X55880Y43339
X158591Y58261
X137001Y3016
X191294Y80486
X180816Y81439
X178594Y85090
X52705Y83344
X51752Y62547
X151289Y47942
X96202Y33179
X84614Y35401
X84614Y42704
X86995Y45085
X81915Y55721
X147955Y48419
X130016Y47625
X121444Y13017
X119380Y12382
X119380Y10319
X150019Y47942
X150654Y72708
X148749Y74613
X145415Y84296
X108267Y88582
X107950Y94615
X33179Y91281
X143986Y38735
X113824Y36671
X143986Y42863
X142081Y86201
X38100Y74136
X109696Y17463
X113506Y17939
X125095Y17939
X148431Y21907
X153670Y29369
X68898Y22701
X47784Y23177
X43815Y34608
X120809Y15399
X125730Y23019
X149384Y23177
X160973Y35560
X87947Y49054
X62071Y51276
X54451Y52229
X38418Y52864
X35560Y46355
X61119Y53181
X32226Y54292
X25876Y39211
X67469Y61119
X65723Y47149
X38100Y45720
X22701Y11906
X28892Y59531
X50641Y11271
X49689Y7779
X42863Y8890
X149066Y51276
X159703Y57626
X162243Y51276
X103981Y45720
X100489Y33814
X57785Y30639
X87789Y97314
X179070Y97472
X181134Y91599
X183039Y88106
X180022Y65087
X80169Y71279
X66516Y70803
X61754Y68739
X38418Y66834
X113665Y76518
X124460Y112395
X153988Y87154
X183991Y90487
X154623Y46037
X87789Y43656
X118269Y21114
X120809Y32544
X94297Y19209
X94297Y31750
X73819Y35878
X72708Y48260
X53022Y48101
X51594Y53181
X33655Y53181
X120174Y23019
X125730Y25241
X76835Y24289
X70803Y101124
X118904Y101282
X60484Y16510
X41275Y42228
X41751Y51276
X42704Y47307
X43021Y53181
X40323Y49689
X46196Y88265
X128111Y116840
X87471Y37148
X36989Y35401
X180816Y54134
X187801Y93504
X191929Y94297
X141129Y53022
X138589Y6826
X44767Y3810
X31432Y123031
X175101Y26511
X170974Y73184
X103664Y79851
X103187Y71279
X80645Y51594
X143034Y80486
X155258Y40958
X62547Y25559
X74295Y25717
X138906Y71279
X86995Y67151
X186531Y95250
X49054Y10319
X67945Y31591
X55880Y39846
X50641Y19209
X105092Y40005
X103187Y41910
X75883Y35084
X67945Y14446
M30