G04 EAGLE Gerber RS-274X export*
G75*
%MOMM*%
%FSLAX34Y34*%
%LPD*%
%INBoard Outline*%
%IPPOS*%
%AMOC8*
5,1,8,0,0,1.08239X$1,22.5*%
G01*
%ADD10C,0.000000*%
%ADD11C,0.254000*%


D10*
X-12700Y0D02*
X2006600Y0D01*
X2006600Y1270000D01*
X-12700Y1270000D01*
X-12700Y0D01*
X22225Y38100D02*
X22230Y38490D01*
X22244Y38879D01*
X22268Y39268D01*
X22301Y39656D01*
X22344Y40043D01*
X22397Y40429D01*
X22459Y40814D01*
X22530Y41197D01*
X22611Y41578D01*
X22701Y41957D01*
X22800Y42334D01*
X22909Y42708D01*
X23026Y43080D01*
X23153Y43448D01*
X23289Y43813D01*
X23433Y44175D01*
X23587Y44533D01*
X23749Y44887D01*
X23920Y45238D01*
X24099Y45583D01*
X24287Y45925D01*
X24484Y46261D01*
X24688Y46593D01*
X24900Y46920D01*
X25121Y47241D01*
X25349Y47557D01*
X25585Y47867D01*
X25828Y48171D01*
X26079Y48469D01*
X26337Y48761D01*
X26603Y49046D01*
X26875Y49325D01*
X27154Y49597D01*
X27439Y49863D01*
X27731Y50121D01*
X28029Y50372D01*
X28333Y50615D01*
X28643Y50851D01*
X28959Y51079D01*
X29280Y51300D01*
X29607Y51512D01*
X29939Y51716D01*
X30275Y51913D01*
X30617Y52101D01*
X30962Y52280D01*
X31313Y52451D01*
X31667Y52613D01*
X32025Y52767D01*
X32387Y52911D01*
X32752Y53047D01*
X33120Y53174D01*
X33492Y53291D01*
X33866Y53400D01*
X34243Y53499D01*
X34622Y53589D01*
X35003Y53670D01*
X35386Y53741D01*
X35771Y53803D01*
X36157Y53856D01*
X36544Y53899D01*
X36932Y53932D01*
X37321Y53956D01*
X37710Y53970D01*
X38100Y53975D01*
X38490Y53970D01*
X38879Y53956D01*
X39268Y53932D01*
X39656Y53899D01*
X40043Y53856D01*
X40429Y53803D01*
X40814Y53741D01*
X41197Y53670D01*
X41578Y53589D01*
X41957Y53499D01*
X42334Y53400D01*
X42708Y53291D01*
X43080Y53174D01*
X43448Y53047D01*
X43813Y52911D01*
X44175Y52767D01*
X44533Y52613D01*
X44887Y52451D01*
X45238Y52280D01*
X45583Y52101D01*
X45925Y51913D01*
X46261Y51716D01*
X46593Y51512D01*
X46920Y51300D01*
X47241Y51079D01*
X47557Y50851D01*
X47867Y50615D01*
X48171Y50372D01*
X48469Y50121D01*
X48761Y49863D01*
X49046Y49597D01*
X49325Y49325D01*
X49597Y49046D01*
X49863Y48761D01*
X50121Y48469D01*
X50372Y48171D01*
X50615Y47867D01*
X50851Y47557D01*
X51079Y47241D01*
X51300Y46920D01*
X51512Y46593D01*
X51716Y46261D01*
X51913Y45925D01*
X52101Y45583D01*
X52280Y45238D01*
X52451Y44887D01*
X52613Y44533D01*
X52767Y44175D01*
X52911Y43813D01*
X53047Y43448D01*
X53174Y43080D01*
X53291Y42708D01*
X53400Y42334D01*
X53499Y41957D01*
X53589Y41578D01*
X53670Y41197D01*
X53741Y40814D01*
X53803Y40429D01*
X53856Y40043D01*
X53899Y39656D01*
X53932Y39268D01*
X53956Y38879D01*
X53970Y38490D01*
X53975Y38100D01*
X53970Y37710D01*
X53956Y37321D01*
X53932Y36932D01*
X53899Y36544D01*
X53856Y36157D01*
X53803Y35771D01*
X53741Y35386D01*
X53670Y35003D01*
X53589Y34622D01*
X53499Y34243D01*
X53400Y33866D01*
X53291Y33492D01*
X53174Y33120D01*
X53047Y32752D01*
X52911Y32387D01*
X52767Y32025D01*
X52613Y31667D01*
X52451Y31313D01*
X52280Y30962D01*
X52101Y30617D01*
X51913Y30275D01*
X51716Y29939D01*
X51512Y29607D01*
X51300Y29280D01*
X51079Y28959D01*
X50851Y28643D01*
X50615Y28333D01*
X50372Y28029D01*
X50121Y27731D01*
X49863Y27439D01*
X49597Y27154D01*
X49325Y26875D01*
X49046Y26603D01*
X48761Y26337D01*
X48469Y26079D01*
X48171Y25828D01*
X47867Y25585D01*
X47557Y25349D01*
X47241Y25121D01*
X46920Y24900D01*
X46593Y24688D01*
X46261Y24484D01*
X45925Y24287D01*
X45583Y24099D01*
X45238Y23920D01*
X44887Y23749D01*
X44533Y23587D01*
X44175Y23433D01*
X43813Y23289D01*
X43448Y23153D01*
X43080Y23026D01*
X42708Y22909D01*
X42334Y22800D01*
X41957Y22701D01*
X41578Y22611D01*
X41197Y22530D01*
X40814Y22459D01*
X40429Y22397D01*
X40043Y22344D01*
X39656Y22301D01*
X39268Y22268D01*
X38879Y22244D01*
X38490Y22230D01*
X38100Y22225D01*
X37710Y22230D01*
X37321Y22244D01*
X36932Y22268D01*
X36544Y22301D01*
X36157Y22344D01*
X35771Y22397D01*
X35386Y22459D01*
X35003Y22530D01*
X34622Y22611D01*
X34243Y22701D01*
X33866Y22800D01*
X33492Y22909D01*
X33120Y23026D01*
X32752Y23153D01*
X32387Y23289D01*
X32025Y23433D01*
X31667Y23587D01*
X31313Y23749D01*
X30962Y23920D01*
X30617Y24099D01*
X30275Y24287D01*
X29939Y24484D01*
X29607Y24688D01*
X29280Y24900D01*
X28959Y25121D01*
X28643Y25349D01*
X28333Y25585D01*
X28029Y25828D01*
X27731Y26079D01*
X27439Y26337D01*
X27154Y26603D01*
X26875Y26875D01*
X26603Y27154D01*
X26337Y27439D01*
X26079Y27731D01*
X25828Y28029D01*
X25585Y28333D01*
X25349Y28643D01*
X25121Y28959D01*
X24900Y29280D01*
X24688Y29607D01*
X24484Y29939D01*
X24287Y30275D01*
X24099Y30617D01*
X23920Y30962D01*
X23749Y31313D01*
X23587Y31667D01*
X23433Y32025D01*
X23289Y32387D01*
X23153Y32752D01*
X23026Y33120D01*
X22909Y33492D01*
X22800Y33866D01*
X22701Y34243D01*
X22611Y34622D01*
X22530Y35003D01*
X22459Y35386D01*
X22397Y35771D01*
X22344Y36157D01*
X22301Y36544D01*
X22268Y36932D01*
X22244Y37321D01*
X22230Y37710D01*
X22225Y38100D01*
X22225Y1231900D02*
X22230Y1232290D01*
X22244Y1232679D01*
X22268Y1233068D01*
X22301Y1233456D01*
X22344Y1233843D01*
X22397Y1234229D01*
X22459Y1234614D01*
X22530Y1234997D01*
X22611Y1235378D01*
X22701Y1235757D01*
X22800Y1236134D01*
X22909Y1236508D01*
X23026Y1236880D01*
X23153Y1237248D01*
X23289Y1237613D01*
X23433Y1237975D01*
X23587Y1238333D01*
X23749Y1238687D01*
X23920Y1239038D01*
X24099Y1239383D01*
X24287Y1239725D01*
X24484Y1240061D01*
X24688Y1240393D01*
X24900Y1240720D01*
X25121Y1241041D01*
X25349Y1241357D01*
X25585Y1241667D01*
X25828Y1241971D01*
X26079Y1242269D01*
X26337Y1242561D01*
X26603Y1242846D01*
X26875Y1243125D01*
X27154Y1243397D01*
X27439Y1243663D01*
X27731Y1243921D01*
X28029Y1244172D01*
X28333Y1244415D01*
X28643Y1244651D01*
X28959Y1244879D01*
X29280Y1245100D01*
X29607Y1245312D01*
X29939Y1245516D01*
X30275Y1245713D01*
X30617Y1245901D01*
X30962Y1246080D01*
X31313Y1246251D01*
X31667Y1246413D01*
X32025Y1246567D01*
X32387Y1246711D01*
X32752Y1246847D01*
X33120Y1246974D01*
X33492Y1247091D01*
X33866Y1247200D01*
X34243Y1247299D01*
X34622Y1247389D01*
X35003Y1247470D01*
X35386Y1247541D01*
X35771Y1247603D01*
X36157Y1247656D01*
X36544Y1247699D01*
X36932Y1247732D01*
X37321Y1247756D01*
X37710Y1247770D01*
X38100Y1247775D01*
X38490Y1247770D01*
X38879Y1247756D01*
X39268Y1247732D01*
X39656Y1247699D01*
X40043Y1247656D01*
X40429Y1247603D01*
X40814Y1247541D01*
X41197Y1247470D01*
X41578Y1247389D01*
X41957Y1247299D01*
X42334Y1247200D01*
X42708Y1247091D01*
X43080Y1246974D01*
X43448Y1246847D01*
X43813Y1246711D01*
X44175Y1246567D01*
X44533Y1246413D01*
X44887Y1246251D01*
X45238Y1246080D01*
X45583Y1245901D01*
X45925Y1245713D01*
X46261Y1245516D01*
X46593Y1245312D01*
X46920Y1245100D01*
X47241Y1244879D01*
X47557Y1244651D01*
X47867Y1244415D01*
X48171Y1244172D01*
X48469Y1243921D01*
X48761Y1243663D01*
X49046Y1243397D01*
X49325Y1243125D01*
X49597Y1242846D01*
X49863Y1242561D01*
X50121Y1242269D01*
X50372Y1241971D01*
X50615Y1241667D01*
X50851Y1241357D01*
X51079Y1241041D01*
X51300Y1240720D01*
X51512Y1240393D01*
X51716Y1240061D01*
X51913Y1239725D01*
X52101Y1239383D01*
X52280Y1239038D01*
X52451Y1238687D01*
X52613Y1238333D01*
X52767Y1237975D01*
X52911Y1237613D01*
X53047Y1237248D01*
X53174Y1236880D01*
X53291Y1236508D01*
X53400Y1236134D01*
X53499Y1235757D01*
X53589Y1235378D01*
X53670Y1234997D01*
X53741Y1234614D01*
X53803Y1234229D01*
X53856Y1233843D01*
X53899Y1233456D01*
X53932Y1233068D01*
X53956Y1232679D01*
X53970Y1232290D01*
X53975Y1231900D01*
X53970Y1231510D01*
X53956Y1231121D01*
X53932Y1230732D01*
X53899Y1230344D01*
X53856Y1229957D01*
X53803Y1229571D01*
X53741Y1229186D01*
X53670Y1228803D01*
X53589Y1228422D01*
X53499Y1228043D01*
X53400Y1227666D01*
X53291Y1227292D01*
X53174Y1226920D01*
X53047Y1226552D01*
X52911Y1226187D01*
X52767Y1225825D01*
X52613Y1225467D01*
X52451Y1225113D01*
X52280Y1224762D01*
X52101Y1224417D01*
X51913Y1224075D01*
X51716Y1223739D01*
X51512Y1223407D01*
X51300Y1223080D01*
X51079Y1222759D01*
X50851Y1222443D01*
X50615Y1222133D01*
X50372Y1221829D01*
X50121Y1221531D01*
X49863Y1221239D01*
X49597Y1220954D01*
X49325Y1220675D01*
X49046Y1220403D01*
X48761Y1220137D01*
X48469Y1219879D01*
X48171Y1219628D01*
X47867Y1219385D01*
X47557Y1219149D01*
X47241Y1218921D01*
X46920Y1218700D01*
X46593Y1218488D01*
X46261Y1218284D01*
X45925Y1218087D01*
X45583Y1217899D01*
X45238Y1217720D01*
X44887Y1217549D01*
X44533Y1217387D01*
X44175Y1217233D01*
X43813Y1217089D01*
X43448Y1216953D01*
X43080Y1216826D01*
X42708Y1216709D01*
X42334Y1216600D01*
X41957Y1216501D01*
X41578Y1216411D01*
X41197Y1216330D01*
X40814Y1216259D01*
X40429Y1216197D01*
X40043Y1216144D01*
X39656Y1216101D01*
X39268Y1216068D01*
X38879Y1216044D01*
X38490Y1216030D01*
X38100Y1216025D01*
X37710Y1216030D01*
X37321Y1216044D01*
X36932Y1216068D01*
X36544Y1216101D01*
X36157Y1216144D01*
X35771Y1216197D01*
X35386Y1216259D01*
X35003Y1216330D01*
X34622Y1216411D01*
X34243Y1216501D01*
X33866Y1216600D01*
X33492Y1216709D01*
X33120Y1216826D01*
X32752Y1216953D01*
X32387Y1217089D01*
X32025Y1217233D01*
X31667Y1217387D01*
X31313Y1217549D01*
X30962Y1217720D01*
X30617Y1217899D01*
X30275Y1218087D01*
X29939Y1218284D01*
X29607Y1218488D01*
X29280Y1218700D01*
X28959Y1218921D01*
X28643Y1219149D01*
X28333Y1219385D01*
X28029Y1219628D01*
X27731Y1219879D01*
X27439Y1220137D01*
X27154Y1220403D01*
X26875Y1220675D01*
X26603Y1220954D01*
X26337Y1221239D01*
X26079Y1221531D01*
X25828Y1221829D01*
X25585Y1222133D01*
X25349Y1222443D01*
X25121Y1222759D01*
X24900Y1223080D01*
X24688Y1223407D01*
X24484Y1223739D01*
X24287Y1224075D01*
X24099Y1224417D01*
X23920Y1224762D01*
X23749Y1225113D01*
X23587Y1225467D01*
X23433Y1225825D01*
X23289Y1226187D01*
X23153Y1226552D01*
X23026Y1226920D01*
X22909Y1227292D01*
X22800Y1227666D01*
X22701Y1228043D01*
X22611Y1228422D01*
X22530Y1228803D01*
X22459Y1229186D01*
X22397Y1229571D01*
X22344Y1229957D01*
X22301Y1230344D01*
X22268Y1230732D01*
X22244Y1231121D01*
X22230Y1231510D01*
X22225Y1231900D01*
X1939925Y1231900D02*
X1939930Y1232290D01*
X1939944Y1232679D01*
X1939968Y1233068D01*
X1940001Y1233456D01*
X1940044Y1233843D01*
X1940097Y1234229D01*
X1940159Y1234614D01*
X1940230Y1234997D01*
X1940311Y1235378D01*
X1940401Y1235757D01*
X1940500Y1236134D01*
X1940609Y1236508D01*
X1940726Y1236880D01*
X1940853Y1237248D01*
X1940989Y1237613D01*
X1941133Y1237975D01*
X1941287Y1238333D01*
X1941449Y1238687D01*
X1941620Y1239038D01*
X1941799Y1239383D01*
X1941987Y1239725D01*
X1942184Y1240061D01*
X1942388Y1240393D01*
X1942600Y1240720D01*
X1942821Y1241041D01*
X1943049Y1241357D01*
X1943285Y1241667D01*
X1943528Y1241971D01*
X1943779Y1242269D01*
X1944037Y1242561D01*
X1944303Y1242846D01*
X1944575Y1243125D01*
X1944854Y1243397D01*
X1945139Y1243663D01*
X1945431Y1243921D01*
X1945729Y1244172D01*
X1946033Y1244415D01*
X1946343Y1244651D01*
X1946659Y1244879D01*
X1946980Y1245100D01*
X1947307Y1245312D01*
X1947639Y1245516D01*
X1947975Y1245713D01*
X1948317Y1245901D01*
X1948662Y1246080D01*
X1949013Y1246251D01*
X1949367Y1246413D01*
X1949725Y1246567D01*
X1950087Y1246711D01*
X1950452Y1246847D01*
X1950820Y1246974D01*
X1951192Y1247091D01*
X1951566Y1247200D01*
X1951943Y1247299D01*
X1952322Y1247389D01*
X1952703Y1247470D01*
X1953086Y1247541D01*
X1953471Y1247603D01*
X1953857Y1247656D01*
X1954244Y1247699D01*
X1954632Y1247732D01*
X1955021Y1247756D01*
X1955410Y1247770D01*
X1955800Y1247775D01*
X1956190Y1247770D01*
X1956579Y1247756D01*
X1956968Y1247732D01*
X1957356Y1247699D01*
X1957743Y1247656D01*
X1958129Y1247603D01*
X1958514Y1247541D01*
X1958897Y1247470D01*
X1959278Y1247389D01*
X1959657Y1247299D01*
X1960034Y1247200D01*
X1960408Y1247091D01*
X1960780Y1246974D01*
X1961148Y1246847D01*
X1961513Y1246711D01*
X1961875Y1246567D01*
X1962233Y1246413D01*
X1962587Y1246251D01*
X1962938Y1246080D01*
X1963283Y1245901D01*
X1963625Y1245713D01*
X1963961Y1245516D01*
X1964293Y1245312D01*
X1964620Y1245100D01*
X1964941Y1244879D01*
X1965257Y1244651D01*
X1965567Y1244415D01*
X1965871Y1244172D01*
X1966169Y1243921D01*
X1966461Y1243663D01*
X1966746Y1243397D01*
X1967025Y1243125D01*
X1967297Y1242846D01*
X1967563Y1242561D01*
X1967821Y1242269D01*
X1968072Y1241971D01*
X1968315Y1241667D01*
X1968551Y1241357D01*
X1968779Y1241041D01*
X1969000Y1240720D01*
X1969212Y1240393D01*
X1969416Y1240061D01*
X1969613Y1239725D01*
X1969801Y1239383D01*
X1969980Y1239038D01*
X1970151Y1238687D01*
X1970313Y1238333D01*
X1970467Y1237975D01*
X1970611Y1237613D01*
X1970747Y1237248D01*
X1970874Y1236880D01*
X1970991Y1236508D01*
X1971100Y1236134D01*
X1971199Y1235757D01*
X1971289Y1235378D01*
X1971370Y1234997D01*
X1971441Y1234614D01*
X1971503Y1234229D01*
X1971556Y1233843D01*
X1971599Y1233456D01*
X1971632Y1233068D01*
X1971656Y1232679D01*
X1971670Y1232290D01*
X1971675Y1231900D01*
X1971670Y1231510D01*
X1971656Y1231121D01*
X1971632Y1230732D01*
X1971599Y1230344D01*
X1971556Y1229957D01*
X1971503Y1229571D01*
X1971441Y1229186D01*
X1971370Y1228803D01*
X1971289Y1228422D01*
X1971199Y1228043D01*
X1971100Y1227666D01*
X1970991Y1227292D01*
X1970874Y1226920D01*
X1970747Y1226552D01*
X1970611Y1226187D01*
X1970467Y1225825D01*
X1970313Y1225467D01*
X1970151Y1225113D01*
X1969980Y1224762D01*
X1969801Y1224417D01*
X1969613Y1224075D01*
X1969416Y1223739D01*
X1969212Y1223407D01*
X1969000Y1223080D01*
X1968779Y1222759D01*
X1968551Y1222443D01*
X1968315Y1222133D01*
X1968072Y1221829D01*
X1967821Y1221531D01*
X1967563Y1221239D01*
X1967297Y1220954D01*
X1967025Y1220675D01*
X1966746Y1220403D01*
X1966461Y1220137D01*
X1966169Y1219879D01*
X1965871Y1219628D01*
X1965567Y1219385D01*
X1965257Y1219149D01*
X1964941Y1218921D01*
X1964620Y1218700D01*
X1964293Y1218488D01*
X1963961Y1218284D01*
X1963625Y1218087D01*
X1963283Y1217899D01*
X1962938Y1217720D01*
X1962587Y1217549D01*
X1962233Y1217387D01*
X1961875Y1217233D01*
X1961513Y1217089D01*
X1961148Y1216953D01*
X1960780Y1216826D01*
X1960408Y1216709D01*
X1960034Y1216600D01*
X1959657Y1216501D01*
X1959278Y1216411D01*
X1958897Y1216330D01*
X1958514Y1216259D01*
X1958129Y1216197D01*
X1957743Y1216144D01*
X1957356Y1216101D01*
X1956968Y1216068D01*
X1956579Y1216044D01*
X1956190Y1216030D01*
X1955800Y1216025D01*
X1955410Y1216030D01*
X1955021Y1216044D01*
X1954632Y1216068D01*
X1954244Y1216101D01*
X1953857Y1216144D01*
X1953471Y1216197D01*
X1953086Y1216259D01*
X1952703Y1216330D01*
X1952322Y1216411D01*
X1951943Y1216501D01*
X1951566Y1216600D01*
X1951192Y1216709D01*
X1950820Y1216826D01*
X1950452Y1216953D01*
X1950087Y1217089D01*
X1949725Y1217233D01*
X1949367Y1217387D01*
X1949013Y1217549D01*
X1948662Y1217720D01*
X1948317Y1217899D01*
X1947975Y1218087D01*
X1947639Y1218284D01*
X1947307Y1218488D01*
X1946980Y1218700D01*
X1946659Y1218921D01*
X1946343Y1219149D01*
X1946033Y1219385D01*
X1945729Y1219628D01*
X1945431Y1219879D01*
X1945139Y1220137D01*
X1944854Y1220403D01*
X1944575Y1220675D01*
X1944303Y1220954D01*
X1944037Y1221239D01*
X1943779Y1221531D01*
X1943528Y1221829D01*
X1943285Y1222133D01*
X1943049Y1222443D01*
X1942821Y1222759D01*
X1942600Y1223080D01*
X1942388Y1223407D01*
X1942184Y1223739D01*
X1941987Y1224075D01*
X1941799Y1224417D01*
X1941620Y1224762D01*
X1941449Y1225113D01*
X1941287Y1225467D01*
X1941133Y1225825D01*
X1940989Y1226187D01*
X1940853Y1226552D01*
X1940726Y1226920D01*
X1940609Y1227292D01*
X1940500Y1227666D01*
X1940401Y1228043D01*
X1940311Y1228422D01*
X1940230Y1228803D01*
X1940159Y1229186D01*
X1940097Y1229571D01*
X1940044Y1229957D01*
X1940001Y1230344D01*
X1939968Y1230732D01*
X1939944Y1231121D01*
X1939930Y1231510D01*
X1939925Y1231900D01*
X1939925Y38100D02*
X1939930Y38490D01*
X1939944Y38879D01*
X1939968Y39268D01*
X1940001Y39656D01*
X1940044Y40043D01*
X1940097Y40429D01*
X1940159Y40814D01*
X1940230Y41197D01*
X1940311Y41578D01*
X1940401Y41957D01*
X1940500Y42334D01*
X1940609Y42708D01*
X1940726Y43080D01*
X1940853Y43448D01*
X1940989Y43813D01*
X1941133Y44175D01*
X1941287Y44533D01*
X1941449Y44887D01*
X1941620Y45238D01*
X1941799Y45583D01*
X1941987Y45925D01*
X1942184Y46261D01*
X1942388Y46593D01*
X1942600Y46920D01*
X1942821Y47241D01*
X1943049Y47557D01*
X1943285Y47867D01*
X1943528Y48171D01*
X1943779Y48469D01*
X1944037Y48761D01*
X1944303Y49046D01*
X1944575Y49325D01*
X1944854Y49597D01*
X1945139Y49863D01*
X1945431Y50121D01*
X1945729Y50372D01*
X1946033Y50615D01*
X1946343Y50851D01*
X1946659Y51079D01*
X1946980Y51300D01*
X1947307Y51512D01*
X1947639Y51716D01*
X1947975Y51913D01*
X1948317Y52101D01*
X1948662Y52280D01*
X1949013Y52451D01*
X1949367Y52613D01*
X1949725Y52767D01*
X1950087Y52911D01*
X1950452Y53047D01*
X1950820Y53174D01*
X1951192Y53291D01*
X1951566Y53400D01*
X1951943Y53499D01*
X1952322Y53589D01*
X1952703Y53670D01*
X1953086Y53741D01*
X1953471Y53803D01*
X1953857Y53856D01*
X1954244Y53899D01*
X1954632Y53932D01*
X1955021Y53956D01*
X1955410Y53970D01*
X1955800Y53975D01*
X1956190Y53970D01*
X1956579Y53956D01*
X1956968Y53932D01*
X1957356Y53899D01*
X1957743Y53856D01*
X1958129Y53803D01*
X1958514Y53741D01*
X1958897Y53670D01*
X1959278Y53589D01*
X1959657Y53499D01*
X1960034Y53400D01*
X1960408Y53291D01*
X1960780Y53174D01*
X1961148Y53047D01*
X1961513Y52911D01*
X1961875Y52767D01*
X1962233Y52613D01*
X1962587Y52451D01*
X1962938Y52280D01*
X1963283Y52101D01*
X1963625Y51913D01*
X1963961Y51716D01*
X1964293Y51512D01*
X1964620Y51300D01*
X1964941Y51079D01*
X1965257Y50851D01*
X1965567Y50615D01*
X1965871Y50372D01*
X1966169Y50121D01*
X1966461Y49863D01*
X1966746Y49597D01*
X1967025Y49325D01*
X1967297Y49046D01*
X1967563Y48761D01*
X1967821Y48469D01*
X1968072Y48171D01*
X1968315Y47867D01*
X1968551Y47557D01*
X1968779Y47241D01*
X1969000Y46920D01*
X1969212Y46593D01*
X1969416Y46261D01*
X1969613Y45925D01*
X1969801Y45583D01*
X1969980Y45238D01*
X1970151Y44887D01*
X1970313Y44533D01*
X1970467Y44175D01*
X1970611Y43813D01*
X1970747Y43448D01*
X1970874Y43080D01*
X1970991Y42708D01*
X1971100Y42334D01*
X1971199Y41957D01*
X1971289Y41578D01*
X1971370Y41197D01*
X1971441Y40814D01*
X1971503Y40429D01*
X1971556Y40043D01*
X1971599Y39656D01*
X1971632Y39268D01*
X1971656Y38879D01*
X1971670Y38490D01*
X1971675Y38100D01*
X1971670Y37710D01*
X1971656Y37321D01*
X1971632Y36932D01*
X1971599Y36544D01*
X1971556Y36157D01*
X1971503Y35771D01*
X1971441Y35386D01*
X1971370Y35003D01*
X1971289Y34622D01*
X1971199Y34243D01*
X1971100Y33866D01*
X1970991Y33492D01*
X1970874Y33120D01*
X1970747Y32752D01*
X1970611Y32387D01*
X1970467Y32025D01*
X1970313Y31667D01*
X1970151Y31313D01*
X1969980Y30962D01*
X1969801Y30617D01*
X1969613Y30275D01*
X1969416Y29939D01*
X1969212Y29607D01*
X1969000Y29280D01*
X1968779Y28959D01*
X1968551Y28643D01*
X1968315Y28333D01*
X1968072Y28029D01*
X1967821Y27731D01*
X1967563Y27439D01*
X1967297Y27154D01*
X1967025Y26875D01*
X1966746Y26603D01*
X1966461Y26337D01*
X1966169Y26079D01*
X1965871Y25828D01*
X1965567Y25585D01*
X1965257Y25349D01*
X1964941Y25121D01*
X1964620Y24900D01*
X1964293Y24688D01*
X1963961Y24484D01*
X1963625Y24287D01*
X1963283Y24099D01*
X1962938Y23920D01*
X1962587Y23749D01*
X1962233Y23587D01*
X1961875Y23433D01*
X1961513Y23289D01*
X1961148Y23153D01*
X1960780Y23026D01*
X1960408Y22909D01*
X1960034Y22800D01*
X1959657Y22701D01*
X1959278Y22611D01*
X1958897Y22530D01*
X1958514Y22459D01*
X1958129Y22397D01*
X1957743Y22344D01*
X1957356Y22301D01*
X1956968Y22268D01*
X1956579Y22244D01*
X1956190Y22230D01*
X1955800Y22225D01*
X1955410Y22230D01*
X1955021Y22244D01*
X1954632Y22268D01*
X1954244Y22301D01*
X1953857Y22344D01*
X1953471Y22397D01*
X1953086Y22459D01*
X1952703Y22530D01*
X1952322Y22611D01*
X1951943Y22701D01*
X1951566Y22800D01*
X1951192Y22909D01*
X1950820Y23026D01*
X1950452Y23153D01*
X1950087Y23289D01*
X1949725Y23433D01*
X1949367Y23587D01*
X1949013Y23749D01*
X1948662Y23920D01*
X1948317Y24099D01*
X1947975Y24287D01*
X1947639Y24484D01*
X1947307Y24688D01*
X1946980Y24900D01*
X1946659Y25121D01*
X1946343Y25349D01*
X1946033Y25585D01*
X1945729Y25828D01*
X1945431Y26079D01*
X1945139Y26337D01*
X1944854Y26603D01*
X1944575Y26875D01*
X1944303Y27154D01*
X1944037Y27439D01*
X1943779Y27731D01*
X1943528Y28029D01*
X1943285Y28333D01*
X1943049Y28643D01*
X1942821Y28959D01*
X1942600Y29280D01*
X1942388Y29607D01*
X1942184Y29939D01*
X1941987Y30275D01*
X1941799Y30617D01*
X1941620Y30962D01*
X1941449Y31313D01*
X1941287Y31667D01*
X1941133Y32025D01*
X1940989Y32387D01*
X1940853Y32752D01*
X1940726Y33120D01*
X1940609Y33492D01*
X1940500Y33866D01*
X1940401Y34243D01*
X1940311Y34622D01*
X1940230Y35003D01*
X1940159Y35386D01*
X1940097Y35771D01*
X1940044Y36157D01*
X1940001Y36544D01*
X1939968Y36932D01*
X1939944Y37321D01*
X1939930Y37710D01*
X1939925Y38100D01*
X1621790Y53340D02*
X1621795Y53745D01*
X1621810Y54150D01*
X1621835Y54555D01*
X1621870Y54958D01*
X1621914Y55361D01*
X1621969Y55763D01*
X1622033Y56163D01*
X1622107Y56561D01*
X1622191Y56957D01*
X1622285Y57352D01*
X1622388Y57743D01*
X1622501Y58133D01*
X1622623Y58519D01*
X1622755Y58902D01*
X1622896Y59282D01*
X1623047Y59658D01*
X1623206Y60031D01*
X1623375Y60399D01*
X1623553Y60763D01*
X1623739Y61123D01*
X1623935Y61478D01*
X1624139Y61828D01*
X1624351Y62173D01*
X1624572Y62512D01*
X1624802Y62847D01*
X1625039Y63175D01*
X1625284Y63497D01*
X1625538Y63814D01*
X1625798Y64124D01*
X1626067Y64427D01*
X1626343Y64724D01*
X1626626Y65014D01*
X1626916Y65297D01*
X1627213Y65573D01*
X1627516Y65842D01*
X1627826Y66102D01*
X1628143Y66356D01*
X1628465Y66601D01*
X1628793Y66838D01*
X1629128Y67068D01*
X1629467Y67289D01*
X1629812Y67501D01*
X1630162Y67705D01*
X1630517Y67901D01*
X1630877Y68087D01*
X1631241Y68265D01*
X1631609Y68434D01*
X1631982Y68593D01*
X1632358Y68744D01*
X1632738Y68885D01*
X1633121Y69017D01*
X1633507Y69139D01*
X1633897Y69252D01*
X1634288Y69355D01*
X1634683Y69449D01*
X1635079Y69533D01*
X1635477Y69607D01*
X1635877Y69671D01*
X1636279Y69726D01*
X1636682Y69770D01*
X1637085Y69805D01*
X1637490Y69830D01*
X1637895Y69845D01*
X1638300Y69850D01*
X1638705Y69845D01*
X1639110Y69830D01*
X1639515Y69805D01*
X1639918Y69770D01*
X1640321Y69726D01*
X1640723Y69671D01*
X1641123Y69607D01*
X1641521Y69533D01*
X1641917Y69449D01*
X1642312Y69355D01*
X1642703Y69252D01*
X1643093Y69139D01*
X1643479Y69017D01*
X1643862Y68885D01*
X1644242Y68744D01*
X1644618Y68593D01*
X1644991Y68434D01*
X1645359Y68265D01*
X1645723Y68087D01*
X1646083Y67901D01*
X1646438Y67705D01*
X1646788Y67501D01*
X1647133Y67289D01*
X1647472Y67068D01*
X1647807Y66838D01*
X1648135Y66601D01*
X1648457Y66356D01*
X1648774Y66102D01*
X1649084Y65842D01*
X1649387Y65573D01*
X1649684Y65297D01*
X1649974Y65014D01*
X1650257Y64724D01*
X1650533Y64427D01*
X1650802Y64124D01*
X1651062Y63814D01*
X1651316Y63497D01*
X1651561Y63175D01*
X1651798Y62847D01*
X1652028Y62512D01*
X1652249Y62173D01*
X1652461Y61828D01*
X1652665Y61478D01*
X1652861Y61123D01*
X1653047Y60763D01*
X1653225Y60399D01*
X1653394Y60031D01*
X1653553Y59658D01*
X1653704Y59282D01*
X1653845Y58902D01*
X1653977Y58519D01*
X1654099Y58133D01*
X1654212Y57743D01*
X1654315Y57352D01*
X1654409Y56957D01*
X1654493Y56561D01*
X1654567Y56163D01*
X1654631Y55763D01*
X1654686Y55361D01*
X1654730Y54958D01*
X1654765Y54555D01*
X1654790Y54150D01*
X1654805Y53745D01*
X1654810Y53340D01*
X1654805Y52935D01*
X1654790Y52530D01*
X1654765Y52125D01*
X1654730Y51722D01*
X1654686Y51319D01*
X1654631Y50917D01*
X1654567Y50517D01*
X1654493Y50119D01*
X1654409Y49723D01*
X1654315Y49328D01*
X1654212Y48937D01*
X1654099Y48547D01*
X1653977Y48161D01*
X1653845Y47778D01*
X1653704Y47398D01*
X1653553Y47022D01*
X1653394Y46649D01*
X1653225Y46281D01*
X1653047Y45917D01*
X1652861Y45557D01*
X1652665Y45202D01*
X1652461Y44852D01*
X1652249Y44507D01*
X1652028Y44168D01*
X1651798Y43833D01*
X1651561Y43505D01*
X1651316Y43183D01*
X1651062Y42866D01*
X1650802Y42556D01*
X1650533Y42253D01*
X1650257Y41956D01*
X1649974Y41666D01*
X1649684Y41383D01*
X1649387Y41107D01*
X1649084Y40838D01*
X1648774Y40578D01*
X1648457Y40324D01*
X1648135Y40079D01*
X1647807Y39842D01*
X1647472Y39612D01*
X1647133Y39391D01*
X1646788Y39179D01*
X1646438Y38975D01*
X1646083Y38779D01*
X1645723Y38593D01*
X1645359Y38415D01*
X1644991Y38246D01*
X1644618Y38087D01*
X1644242Y37936D01*
X1643862Y37795D01*
X1643479Y37663D01*
X1643093Y37541D01*
X1642703Y37428D01*
X1642312Y37325D01*
X1641917Y37231D01*
X1641521Y37147D01*
X1641123Y37073D01*
X1640723Y37009D01*
X1640321Y36954D01*
X1639918Y36910D01*
X1639515Y36875D01*
X1639110Y36850D01*
X1638705Y36835D01*
X1638300Y36830D01*
X1637895Y36835D01*
X1637490Y36850D01*
X1637085Y36875D01*
X1636682Y36910D01*
X1636279Y36954D01*
X1635877Y37009D01*
X1635477Y37073D01*
X1635079Y37147D01*
X1634683Y37231D01*
X1634288Y37325D01*
X1633897Y37428D01*
X1633507Y37541D01*
X1633121Y37663D01*
X1632738Y37795D01*
X1632358Y37936D01*
X1631982Y38087D01*
X1631609Y38246D01*
X1631241Y38415D01*
X1630877Y38593D01*
X1630517Y38779D01*
X1630162Y38975D01*
X1629812Y39179D01*
X1629467Y39391D01*
X1629128Y39612D01*
X1628793Y39842D01*
X1628465Y40079D01*
X1628143Y40324D01*
X1627826Y40578D01*
X1627516Y40838D01*
X1627213Y41107D01*
X1626916Y41383D01*
X1626626Y41666D01*
X1626343Y41956D01*
X1626067Y42253D01*
X1625798Y42556D01*
X1625538Y42866D01*
X1625284Y43183D01*
X1625039Y43505D01*
X1624802Y43833D01*
X1624572Y44168D01*
X1624351Y44507D01*
X1624139Y44852D01*
X1623935Y45202D01*
X1623739Y45557D01*
X1623553Y45917D01*
X1623375Y46281D01*
X1623206Y46649D01*
X1623047Y47022D01*
X1622896Y47398D01*
X1622755Y47778D01*
X1622623Y48161D01*
X1622501Y48547D01*
X1622388Y48937D01*
X1622285Y49328D01*
X1622191Y49723D01*
X1622107Y50119D01*
X1622033Y50517D01*
X1621969Y50917D01*
X1621914Y51319D01*
X1621870Y51722D01*
X1621835Y52125D01*
X1621810Y52530D01*
X1621795Y52935D01*
X1621790Y53340D01*
D11*
X-12700Y0D02*
X2006600Y0D01*
X2006600Y1270000D01*
X-12700Y1270000D01*
X-12700Y0D01*
X53975Y37580D02*
X53907Y36543D01*
X53771Y35513D01*
X53569Y34493D01*
X53300Y33489D01*
X52965Y32505D01*
X52568Y31545D01*
X52108Y30613D01*
X51588Y29712D01*
X51011Y28848D01*
X50378Y28024D01*
X49693Y27242D01*
X48958Y26507D01*
X48176Y25822D01*
X47352Y25189D01*
X46488Y24612D01*
X45587Y24092D01*
X44655Y23632D01*
X43695Y23235D01*
X42711Y22900D01*
X41707Y22631D01*
X40687Y22429D01*
X39657Y22293D01*
X38620Y22225D01*
X37580Y22225D01*
X36543Y22293D01*
X35513Y22429D01*
X34493Y22631D01*
X33489Y22900D01*
X32505Y23235D01*
X31545Y23632D01*
X30613Y24092D01*
X29712Y24612D01*
X28848Y25189D01*
X28024Y25822D01*
X27242Y26507D01*
X26507Y27242D01*
X25822Y28024D01*
X25189Y28848D01*
X24612Y29712D01*
X24092Y30613D01*
X23632Y31545D01*
X23235Y32505D01*
X22900Y33489D01*
X22631Y34493D01*
X22429Y35513D01*
X22293Y36543D01*
X22225Y37580D01*
X22225Y38620D01*
X22293Y39657D01*
X22429Y40687D01*
X22631Y41707D01*
X22900Y42711D01*
X23235Y43695D01*
X23632Y44655D01*
X24092Y45587D01*
X24612Y46488D01*
X25189Y47352D01*
X25822Y48176D01*
X26507Y48958D01*
X27242Y49693D01*
X28024Y50378D01*
X28848Y51011D01*
X29712Y51588D01*
X30613Y52108D01*
X31545Y52568D01*
X32505Y52965D01*
X33489Y53300D01*
X34493Y53569D01*
X35513Y53771D01*
X36543Y53907D01*
X37580Y53975D01*
X38620Y53975D01*
X39657Y53907D01*
X40687Y53771D01*
X41707Y53569D01*
X42711Y53300D01*
X43695Y52965D01*
X44655Y52568D01*
X45587Y52108D01*
X46488Y51588D01*
X47352Y51011D01*
X48176Y50378D01*
X48958Y49693D01*
X49693Y48958D01*
X50378Y48176D01*
X51011Y47352D01*
X51588Y46488D01*
X52108Y45587D01*
X52568Y44655D01*
X52965Y43695D01*
X53300Y42711D01*
X53569Y41707D01*
X53771Y40687D01*
X53907Y39657D01*
X53975Y38620D01*
X53975Y37580D01*
X53975Y1231380D02*
X53907Y1230343D01*
X53771Y1229313D01*
X53569Y1228293D01*
X53300Y1227289D01*
X52965Y1226305D01*
X52568Y1225345D01*
X52108Y1224413D01*
X51588Y1223512D01*
X51011Y1222648D01*
X50378Y1221824D01*
X49693Y1221042D01*
X48958Y1220307D01*
X48176Y1219622D01*
X47352Y1218989D01*
X46488Y1218412D01*
X45587Y1217892D01*
X44655Y1217432D01*
X43695Y1217035D01*
X42711Y1216700D01*
X41707Y1216431D01*
X40687Y1216229D01*
X39657Y1216093D01*
X38620Y1216025D01*
X37580Y1216025D01*
X36543Y1216093D01*
X35513Y1216229D01*
X34493Y1216431D01*
X33489Y1216700D01*
X32505Y1217035D01*
X31545Y1217432D01*
X30613Y1217892D01*
X29712Y1218412D01*
X28848Y1218989D01*
X28024Y1219622D01*
X27242Y1220307D01*
X26507Y1221042D01*
X25822Y1221824D01*
X25189Y1222648D01*
X24612Y1223512D01*
X24092Y1224413D01*
X23632Y1225345D01*
X23235Y1226305D01*
X22900Y1227289D01*
X22631Y1228293D01*
X22429Y1229313D01*
X22293Y1230343D01*
X22225Y1231380D01*
X22225Y1232420D01*
X22293Y1233457D01*
X22429Y1234487D01*
X22631Y1235507D01*
X22900Y1236511D01*
X23235Y1237495D01*
X23632Y1238455D01*
X24092Y1239387D01*
X24612Y1240288D01*
X25189Y1241152D01*
X25822Y1241976D01*
X26507Y1242758D01*
X27242Y1243493D01*
X28024Y1244178D01*
X28848Y1244811D01*
X29712Y1245388D01*
X30613Y1245908D01*
X31545Y1246368D01*
X32505Y1246765D01*
X33489Y1247100D01*
X34493Y1247369D01*
X35513Y1247571D01*
X36543Y1247707D01*
X37580Y1247775D01*
X38620Y1247775D01*
X39657Y1247707D01*
X40687Y1247571D01*
X41707Y1247369D01*
X42711Y1247100D01*
X43695Y1246765D01*
X44655Y1246368D01*
X45587Y1245908D01*
X46488Y1245388D01*
X47352Y1244811D01*
X48176Y1244178D01*
X48958Y1243493D01*
X49693Y1242758D01*
X50378Y1241976D01*
X51011Y1241152D01*
X51588Y1240288D01*
X52108Y1239387D01*
X52568Y1238455D01*
X52965Y1237495D01*
X53300Y1236511D01*
X53569Y1235507D01*
X53771Y1234487D01*
X53907Y1233457D01*
X53975Y1232420D01*
X53975Y1231380D01*
X1971675Y1231380D02*
X1971607Y1230343D01*
X1971471Y1229313D01*
X1971269Y1228293D01*
X1971000Y1227289D01*
X1970665Y1226305D01*
X1970268Y1225345D01*
X1969808Y1224413D01*
X1969288Y1223512D01*
X1968711Y1222648D01*
X1968078Y1221824D01*
X1967393Y1221042D01*
X1966658Y1220307D01*
X1965876Y1219622D01*
X1965052Y1218989D01*
X1964188Y1218412D01*
X1963287Y1217892D01*
X1962355Y1217432D01*
X1961395Y1217035D01*
X1960411Y1216700D01*
X1959407Y1216431D01*
X1958387Y1216229D01*
X1957357Y1216093D01*
X1956320Y1216025D01*
X1955280Y1216025D01*
X1954243Y1216093D01*
X1953213Y1216229D01*
X1952193Y1216431D01*
X1951189Y1216700D01*
X1950205Y1217035D01*
X1949245Y1217432D01*
X1948313Y1217892D01*
X1947412Y1218412D01*
X1946548Y1218989D01*
X1945724Y1219622D01*
X1944942Y1220307D01*
X1944207Y1221042D01*
X1943522Y1221824D01*
X1942889Y1222648D01*
X1942312Y1223512D01*
X1941792Y1224413D01*
X1941332Y1225345D01*
X1940935Y1226305D01*
X1940600Y1227289D01*
X1940331Y1228293D01*
X1940129Y1229313D01*
X1939993Y1230343D01*
X1939925Y1231380D01*
X1939925Y1232420D01*
X1939993Y1233457D01*
X1940129Y1234487D01*
X1940331Y1235507D01*
X1940600Y1236511D01*
X1940935Y1237495D01*
X1941332Y1238455D01*
X1941792Y1239387D01*
X1942312Y1240288D01*
X1942889Y1241152D01*
X1943522Y1241976D01*
X1944207Y1242758D01*
X1944942Y1243493D01*
X1945724Y1244178D01*
X1946548Y1244811D01*
X1947412Y1245388D01*
X1948313Y1245908D01*
X1949245Y1246368D01*
X1950205Y1246765D01*
X1951189Y1247100D01*
X1952193Y1247369D01*
X1953213Y1247571D01*
X1954243Y1247707D01*
X1955280Y1247775D01*
X1956320Y1247775D01*
X1957357Y1247707D01*
X1958387Y1247571D01*
X1959407Y1247369D01*
X1960411Y1247100D01*
X1961395Y1246765D01*
X1962355Y1246368D01*
X1963287Y1245908D01*
X1964188Y1245388D01*
X1965052Y1244811D01*
X1965876Y1244178D01*
X1966658Y1243493D01*
X1967393Y1242758D01*
X1968078Y1241976D01*
X1968711Y1241152D01*
X1969288Y1240288D01*
X1969808Y1239387D01*
X1970268Y1238455D01*
X1970665Y1237495D01*
X1971000Y1236511D01*
X1971269Y1235507D01*
X1971471Y1234487D01*
X1971607Y1233457D01*
X1971675Y1232420D01*
X1971675Y1231380D01*
X1971675Y37580D02*
X1971607Y36543D01*
X1971471Y35513D01*
X1971269Y34493D01*
X1971000Y33489D01*
X1970665Y32505D01*
X1970268Y31545D01*
X1969808Y30613D01*
X1969288Y29712D01*
X1968711Y28848D01*
X1968078Y28024D01*
X1967393Y27242D01*
X1966658Y26507D01*
X1965876Y25822D01*
X1965052Y25189D01*
X1964188Y24612D01*
X1963287Y24092D01*
X1962355Y23632D01*
X1961395Y23235D01*
X1960411Y22900D01*
X1959407Y22631D01*
X1958387Y22429D01*
X1957357Y22293D01*
X1956320Y22225D01*
X1955280Y22225D01*
X1954243Y22293D01*
X1953213Y22429D01*
X1952193Y22631D01*
X1951189Y22900D01*
X1950205Y23235D01*
X1949245Y23632D01*
X1948313Y24092D01*
X1947412Y24612D01*
X1946548Y25189D01*
X1945724Y25822D01*
X1944942Y26507D01*
X1944207Y27242D01*
X1943522Y28024D01*
X1942889Y28848D01*
X1942312Y29712D01*
X1941792Y30613D01*
X1941332Y31545D01*
X1940935Y32505D01*
X1940600Y33489D01*
X1940331Y34493D01*
X1940129Y35513D01*
X1939993Y36543D01*
X1939925Y37580D01*
X1939925Y38620D01*
X1939993Y39657D01*
X1940129Y40687D01*
X1940331Y41707D01*
X1940600Y42711D01*
X1940935Y43695D01*
X1941332Y44655D01*
X1941792Y45587D01*
X1942312Y46488D01*
X1942889Y47352D01*
X1943522Y48176D01*
X1944207Y48958D01*
X1944942Y49693D01*
X1945724Y50378D01*
X1946548Y51011D01*
X1947412Y51588D01*
X1948313Y52108D01*
X1949245Y52568D01*
X1950205Y52965D01*
X1951189Y53300D01*
X1952193Y53569D01*
X1953213Y53771D01*
X1954243Y53907D01*
X1955280Y53975D01*
X1956320Y53975D01*
X1957357Y53907D01*
X1958387Y53771D01*
X1959407Y53569D01*
X1960411Y53300D01*
X1961395Y52965D01*
X1962355Y52568D01*
X1963287Y52108D01*
X1964188Y51588D01*
X1965052Y51011D01*
X1965876Y50378D01*
X1966658Y49693D01*
X1967393Y48958D01*
X1968078Y48176D01*
X1968711Y47352D01*
X1969288Y46488D01*
X1969808Y45587D01*
X1970268Y44655D01*
X1970665Y43695D01*
X1971000Y42711D01*
X1971269Y41707D01*
X1971471Y40687D01*
X1971607Y39657D01*
X1971675Y38620D01*
X1971675Y37580D01*
X1621790Y53880D02*
X1621861Y54959D01*
X1622002Y56031D01*
X1622213Y57091D01*
X1622492Y58135D01*
X1622840Y59159D01*
X1623254Y60157D01*
X1623732Y61127D01*
X1624272Y62063D01*
X1624873Y62962D01*
X1625531Y63819D01*
X1626244Y64632D01*
X1627008Y65397D01*
X1627821Y66109D01*
X1628678Y66767D01*
X1629577Y67368D01*
X1630513Y67908D01*
X1631483Y68386D01*
X1632481Y68800D01*
X1633505Y69148D01*
X1634549Y69427D01*
X1635609Y69638D01*
X1636681Y69779D01*
X1637760Y69850D01*
X1638840Y69850D01*
X1639919Y69779D01*
X1640991Y69638D01*
X1642051Y69427D01*
X1643095Y69148D01*
X1644119Y68800D01*
X1645117Y68386D01*
X1646087Y67908D01*
X1647023Y67368D01*
X1647922Y66767D01*
X1648779Y66109D01*
X1649592Y65397D01*
X1650357Y64632D01*
X1651069Y63819D01*
X1651727Y62962D01*
X1652328Y62063D01*
X1652868Y61127D01*
X1653346Y60157D01*
X1653760Y59159D01*
X1654108Y58135D01*
X1654387Y57091D01*
X1654598Y56031D01*
X1654739Y54959D01*
X1654810Y53880D01*
X1654810Y52800D01*
X1654739Y51721D01*
X1654598Y50649D01*
X1654387Y49589D01*
X1654108Y48545D01*
X1653760Y47521D01*
X1653346Y46523D01*
X1652868Y45553D01*
X1652328Y44617D01*
X1651727Y43718D01*
X1651069Y42861D01*
X1650357Y42048D01*
X1649592Y41284D01*
X1648779Y40571D01*
X1647922Y39913D01*
X1647023Y39312D01*
X1646087Y38772D01*
X1645117Y38294D01*
X1644119Y37880D01*
X1643095Y37532D01*
X1642051Y37253D01*
X1640991Y37042D01*
X1639919Y36901D01*
X1638840Y36830D01*
X1637760Y36830D01*
X1636681Y36901D01*
X1635609Y37042D01*
X1634549Y37253D01*
X1633505Y37532D01*
X1632481Y37880D01*
X1631483Y38294D01*
X1630513Y38772D01*
X1629577Y39312D01*
X1628678Y39913D01*
X1627821Y40571D01*
X1627008Y41284D01*
X1626244Y42048D01*
X1625531Y42861D01*
X1624873Y43718D01*
X1624272Y44617D01*
X1623732Y45553D01*
X1623254Y46523D01*
X1622840Y47521D01*
X1622492Y48545D01*
X1622213Y49589D01*
X1622002Y50649D01*
X1621861Y51721D01*
X1621790Y52800D01*
X1621790Y53880D01*
M02*
