G04 EAGLE Gerber RS-274X export*
G75*
%MOMM*%
%FSLAX34Y34*%
%LPD*%
%INSoldermask Top*%
%IPPOS*%
%AMOC8*
5,1,8,0,0,1.08239X$1,22.5*%
G01*
%ADD10C,3.378200*%
%ADD11C,1.879600*%
%ADD12C,3.505200*%
%ADD13P,1.951982X8X22.500000*%
%ADD14C,1.803400*%
%ADD15P,1.649562X8X22.500000*%
%ADD16C,1.524000*%
%ADD17C,1.727200*%
%ADD18C,2.108200*%
%ADD19P,1.649562X8X112.500000*%
%ADD20C,1.524000*%
%ADD21R,1.727200X1.727200*%
%ADD22R,2.298700X2.298700*%
%ADD23P,1.649562X8X292.500000*%
%ADD24P,1.649562X8X202.500000*%
%ADD25P,1.759533X8X292.500000*%
%ADD26C,1.625600*%
%ADD27C,4.648200*%
%ADD28C,4.013200*%
%ADD29P,1.869504X8X112.500000*%
%ADD30C,5.283200*%
%ADD31P,1.869504X8X22.500000*%
%ADD32P,1.759533X8X22.500000*%


D10*
X38100Y38100D03*
X38100Y1231900D03*
X1955800Y1231900D03*
X1955800Y38100D03*
D11*
X1663700Y194818D02*
X1663700Y211582D01*
X1638300Y211582D02*
X1638300Y194818D01*
X1612900Y194818D02*
X1612900Y211582D01*
D12*
X1638300Y53340D03*
D13*
X1765300Y241300D03*
D14*
X1739900Y241300D03*
D15*
X1727200Y177800D03*
X1778000Y177800D03*
X1600200Y279400D03*
X1651000Y279400D03*
X1600200Y241300D03*
X1651000Y241300D03*
D16*
X1511300Y602996D02*
X1511300Y616204D01*
X1536700Y616204D02*
X1536700Y602996D01*
X1663700Y602996D02*
X1663700Y616204D01*
X1689100Y616204D02*
X1689100Y602996D01*
X1562100Y602996D02*
X1562100Y616204D01*
X1587500Y616204D02*
X1587500Y602996D01*
X1638300Y602996D02*
X1638300Y616204D01*
X1612900Y616204D02*
X1612900Y602996D01*
X1714500Y602996D02*
X1714500Y616204D01*
X1739900Y616204D02*
X1739900Y602996D01*
X1765300Y602996D02*
X1765300Y616204D01*
X1790700Y616204D02*
X1790700Y602996D01*
X1816100Y602996D02*
X1816100Y616204D01*
X1841500Y616204D02*
X1841500Y602996D01*
X1866900Y602996D02*
X1866900Y616204D01*
X1892300Y616204D02*
X1892300Y602996D01*
X1892300Y755396D02*
X1892300Y768604D01*
X1866900Y768604D02*
X1866900Y755396D01*
X1841500Y755396D02*
X1841500Y768604D01*
X1816100Y768604D02*
X1816100Y755396D01*
X1790700Y755396D02*
X1790700Y768604D01*
X1765300Y768604D02*
X1765300Y755396D01*
X1739900Y755396D02*
X1739900Y768604D01*
X1714500Y768604D02*
X1714500Y755396D01*
X1689100Y755396D02*
X1689100Y768604D01*
X1663700Y768604D02*
X1663700Y755396D01*
X1638300Y755396D02*
X1638300Y768604D01*
X1612900Y768604D02*
X1612900Y755396D01*
X1587500Y755396D02*
X1587500Y768604D01*
X1562100Y768604D02*
X1562100Y755396D01*
X1536700Y755396D02*
X1536700Y768604D01*
X1511300Y768604D02*
X1511300Y755396D01*
D17*
X1752600Y1122680D02*
X1752600Y1137920D01*
X1778000Y1137920D02*
X1778000Y1122680D01*
X1803400Y1122680D02*
X1803400Y1137920D01*
X1828800Y1137920D02*
X1828800Y1122680D01*
X1854200Y1122680D02*
X1854200Y1137920D01*
D18*
X1422400Y889000D03*
X1447800Y889000D03*
X1473200Y889000D03*
X1498600Y889000D03*
X1524000Y889000D03*
X1549400Y889000D03*
X1574800Y889000D03*
X1600200Y889000D03*
X1625600Y889000D03*
X1651000Y889000D03*
X1676400Y889000D03*
X1701800Y889000D03*
X1727200Y889000D03*
X1752600Y889000D03*
X1778000Y889000D03*
X1803400Y889000D03*
X1803400Y1041400D03*
X1778000Y1041400D03*
X1752600Y1041400D03*
X1727200Y1041400D03*
X1676400Y1041400D03*
X1651000Y1041400D03*
X1625600Y1041400D03*
X1600200Y1041400D03*
X1574800Y1041400D03*
X1549400Y1041400D03*
X1524000Y1041400D03*
X1498600Y1041400D03*
X1473200Y1041400D03*
X1447800Y1041400D03*
X1422400Y1041400D03*
X1701800Y1041400D03*
D15*
X1625600Y1168400D03*
X1676400Y1168400D03*
X152400Y342900D03*
X203200Y342900D03*
D19*
X520700Y952500D03*
X520700Y1003300D03*
D16*
X933196Y774700D02*
X946404Y774700D01*
X946404Y749300D02*
X933196Y749300D01*
X933196Y723900D02*
X946404Y723900D01*
X946404Y698500D02*
X933196Y698500D01*
X933196Y673100D02*
X946404Y673100D01*
X946404Y647700D02*
X933196Y647700D01*
X933196Y622300D02*
X946404Y622300D01*
X946404Y596900D02*
X933196Y596900D01*
X933196Y571500D02*
X946404Y571500D01*
X946404Y546100D02*
X933196Y546100D01*
X933196Y520700D02*
X946404Y520700D01*
X946404Y495300D02*
X933196Y495300D01*
X1009396Y495300D02*
X1022604Y495300D01*
X1022604Y520700D02*
X1009396Y520700D01*
X1009396Y546100D02*
X1022604Y546100D01*
X1022604Y571500D02*
X1009396Y571500D01*
X1009396Y596900D02*
X1022604Y596900D01*
X1022604Y622300D02*
X1009396Y622300D01*
X1009396Y647700D02*
X1022604Y647700D01*
X1022604Y673100D02*
X1009396Y673100D01*
X1009396Y698500D02*
X1022604Y698500D01*
X1022604Y723900D02*
X1009396Y723900D01*
X1009396Y749300D02*
X1022604Y749300D01*
X1022604Y774700D02*
X1009396Y774700D01*
X1072896Y1219200D02*
X1086104Y1219200D01*
X1086104Y1193800D02*
X1072896Y1193800D01*
X1072896Y1066800D02*
X1086104Y1066800D01*
X1149096Y1066800D02*
X1162304Y1066800D01*
X1086104Y1168400D02*
X1072896Y1168400D01*
X1072896Y1143000D02*
X1086104Y1143000D01*
X1086104Y1092200D02*
X1072896Y1092200D01*
X1072896Y1117600D02*
X1086104Y1117600D01*
X1149096Y1092200D02*
X1162304Y1092200D01*
X1162304Y1117600D02*
X1149096Y1117600D01*
X1149096Y1143000D02*
X1162304Y1143000D01*
X1162304Y1168400D02*
X1149096Y1168400D01*
X1149096Y1193800D02*
X1162304Y1193800D01*
X1162304Y1219200D02*
X1149096Y1219200D01*
D20*
X1270000Y1143000D03*
X1346200Y1143000D03*
X1346200Y1219200D03*
X1270000Y1219200D03*
D16*
X768604Y774700D02*
X755396Y774700D01*
X755396Y749300D02*
X768604Y749300D01*
X768604Y723900D02*
X755396Y723900D01*
X755396Y698500D02*
X768604Y698500D01*
X768604Y673100D02*
X755396Y673100D01*
X755396Y647700D02*
X768604Y647700D01*
X768604Y622300D02*
X755396Y622300D01*
X755396Y596900D02*
X768604Y596900D01*
X768604Y571500D02*
X755396Y571500D01*
X755396Y546100D02*
X768604Y546100D01*
X768604Y520700D02*
X755396Y520700D01*
X755396Y495300D02*
X768604Y495300D01*
X831596Y495300D02*
X844804Y495300D01*
X844804Y520700D02*
X831596Y520700D01*
X831596Y546100D02*
X844804Y546100D01*
X844804Y571500D02*
X831596Y571500D01*
X831596Y596900D02*
X844804Y596900D01*
X844804Y622300D02*
X831596Y622300D01*
X831596Y647700D02*
X844804Y647700D01*
X844804Y673100D02*
X831596Y673100D01*
X831596Y698500D02*
X844804Y698500D01*
X844804Y723900D02*
X831596Y723900D01*
X831596Y749300D02*
X844804Y749300D01*
X844804Y774700D02*
X831596Y774700D01*
D21*
X12954Y593979D03*
X12954Y549021D03*
D22*
X37846Y606552D03*
X37846Y536448D03*
D17*
X93980Y546100D02*
X109220Y546100D01*
X109220Y571500D02*
X93980Y571500D01*
X93980Y596900D02*
X109220Y596900D01*
D16*
X158496Y571500D02*
X171704Y571500D01*
X171704Y520700D02*
X158496Y520700D01*
X158496Y546100D02*
X171704Y546100D01*
D23*
X127000Y495300D03*
X127000Y419100D03*
D16*
X1149096Y266700D02*
X1162304Y266700D01*
X1162304Y241300D02*
X1149096Y241300D01*
X1149096Y114300D02*
X1162304Y114300D01*
X1162304Y88900D02*
X1149096Y88900D01*
X1149096Y215900D02*
X1162304Y215900D01*
X1162304Y190500D02*
X1149096Y190500D01*
X1149096Y139700D02*
X1162304Y139700D01*
X1162304Y165100D02*
X1149096Y165100D01*
X1149096Y63500D02*
X1162304Y63500D01*
X1162304Y38100D02*
X1149096Y38100D01*
X1225296Y38100D02*
X1238504Y38100D01*
X1238504Y63500D02*
X1225296Y63500D01*
X1225296Y88900D02*
X1238504Y88900D01*
X1238504Y114300D02*
X1225296Y114300D01*
X1225296Y139700D02*
X1238504Y139700D01*
X1238504Y165100D02*
X1225296Y165100D01*
X1225296Y190500D02*
X1238504Y190500D01*
X1238504Y215900D02*
X1225296Y215900D01*
X1225296Y241300D02*
X1238504Y241300D01*
X1238504Y266700D02*
X1225296Y266700D01*
X1288796Y266700D02*
X1302004Y266700D01*
X1302004Y241300D02*
X1288796Y241300D01*
X1288796Y215900D02*
X1302004Y215900D01*
X1302004Y190500D02*
X1288796Y190500D01*
X1288796Y165100D02*
X1302004Y165100D01*
X1302004Y139700D02*
X1288796Y139700D01*
X1288796Y114300D02*
X1302004Y114300D01*
X1302004Y88900D02*
X1288796Y88900D01*
X1288796Y63500D02*
X1302004Y63500D01*
X1111504Y723900D02*
X1098296Y723900D01*
X1098296Y698500D02*
X1111504Y698500D01*
X1111504Y571500D02*
X1098296Y571500D01*
X1098296Y546100D02*
X1111504Y546100D01*
X1111504Y673100D02*
X1098296Y673100D01*
X1098296Y647700D02*
X1111504Y647700D01*
X1111504Y596900D02*
X1098296Y596900D01*
X1098296Y622300D02*
X1111504Y622300D01*
X1111504Y520700D02*
X1098296Y520700D01*
X1098296Y495300D02*
X1111504Y495300D01*
X1174496Y495300D02*
X1187704Y495300D01*
X1187704Y520700D02*
X1174496Y520700D01*
X1174496Y546100D02*
X1187704Y546100D01*
X1187704Y571500D02*
X1174496Y571500D01*
X1174496Y596900D02*
X1187704Y596900D01*
X1187704Y622300D02*
X1174496Y622300D01*
X1174496Y647700D02*
X1187704Y647700D01*
X1187704Y673100D02*
X1174496Y673100D01*
X1174496Y698500D02*
X1187704Y698500D01*
X1187704Y723900D02*
X1174496Y723900D01*
X1276096Y723900D02*
X1289304Y723900D01*
X1289304Y698500D02*
X1276096Y698500D01*
X1276096Y571500D02*
X1289304Y571500D01*
X1289304Y546100D02*
X1276096Y546100D01*
X1276096Y673100D02*
X1289304Y673100D01*
X1289304Y647700D02*
X1276096Y647700D01*
X1276096Y596900D02*
X1289304Y596900D01*
X1289304Y622300D02*
X1276096Y622300D01*
X1276096Y520700D02*
X1289304Y520700D01*
X1289304Y495300D02*
X1276096Y495300D01*
X1352296Y495300D02*
X1365504Y495300D01*
X1365504Y520700D02*
X1352296Y520700D01*
X1352296Y546100D02*
X1365504Y546100D01*
X1365504Y571500D02*
X1352296Y571500D01*
X1352296Y596900D02*
X1365504Y596900D01*
X1365504Y622300D02*
X1352296Y622300D01*
X1352296Y647700D02*
X1365504Y647700D01*
X1365504Y673100D02*
X1352296Y673100D01*
X1352296Y698500D02*
X1365504Y698500D01*
X1365504Y723900D02*
X1352296Y723900D01*
X1352296Y266700D02*
X1365504Y266700D01*
X1365504Y241300D02*
X1352296Y241300D01*
X1352296Y215900D02*
X1365504Y215900D01*
X1365504Y190500D02*
X1352296Y190500D01*
X1352296Y165100D02*
X1365504Y165100D01*
X1365504Y139700D02*
X1352296Y139700D01*
X1352296Y114300D02*
X1365504Y114300D01*
X1365504Y88900D02*
X1352296Y88900D01*
X1352296Y63500D02*
X1365504Y63500D01*
X1428496Y63500D02*
X1441704Y63500D01*
X1441704Y88900D02*
X1428496Y88900D01*
X1428496Y114300D02*
X1441704Y114300D01*
X1441704Y139700D02*
X1428496Y139700D01*
X1428496Y165100D02*
X1441704Y165100D01*
X1441704Y190500D02*
X1428496Y190500D01*
X1428496Y215900D02*
X1441704Y215900D01*
X1441704Y241300D02*
X1428496Y241300D01*
X1428496Y266700D02*
X1441704Y266700D01*
X654304Y317500D02*
X641096Y317500D01*
X641096Y292100D02*
X654304Y292100D01*
X654304Y266700D02*
X641096Y266700D01*
X641096Y241300D02*
X654304Y241300D01*
X654304Y215900D02*
X641096Y215900D01*
X641096Y190500D02*
X654304Y190500D01*
X654304Y165100D02*
X641096Y165100D01*
X641096Y139700D02*
X654304Y139700D01*
X654304Y114300D02*
X641096Y114300D01*
X641096Y88900D02*
X654304Y88900D01*
X654304Y63500D02*
X641096Y63500D01*
X641096Y38100D02*
X654304Y38100D01*
X717296Y38100D02*
X730504Y38100D01*
X730504Y63500D02*
X717296Y63500D01*
X717296Y88900D02*
X730504Y88900D01*
X730504Y114300D02*
X717296Y114300D01*
X717296Y139700D02*
X730504Y139700D01*
X730504Y165100D02*
X717296Y165100D01*
X717296Y190500D02*
X730504Y190500D01*
X730504Y215900D02*
X717296Y215900D01*
X717296Y241300D02*
X730504Y241300D01*
X730504Y266700D02*
X717296Y266700D01*
X717296Y292100D02*
X730504Y292100D01*
X730504Y317500D02*
X717296Y317500D01*
X742696Y1219200D02*
X755904Y1219200D01*
X755904Y1193800D02*
X742696Y1193800D01*
X742696Y1066800D02*
X755904Y1066800D01*
X755904Y1041400D02*
X742696Y1041400D01*
X742696Y1168400D02*
X755904Y1168400D01*
X755904Y1143000D02*
X742696Y1143000D01*
X742696Y1092200D02*
X755904Y1092200D01*
X755904Y1117600D02*
X742696Y1117600D01*
X818896Y1041400D02*
X832104Y1041400D01*
X832104Y1066800D02*
X818896Y1066800D01*
X818896Y1092200D02*
X832104Y1092200D01*
X832104Y1117600D02*
X818896Y1117600D01*
X818896Y1143000D02*
X832104Y1143000D01*
X832104Y1168400D02*
X818896Y1168400D01*
X818896Y1193800D02*
X832104Y1193800D01*
X832104Y1219200D02*
X818896Y1219200D01*
X241300Y1124204D02*
X241300Y1110996D01*
X266700Y1110996D02*
X266700Y1124204D01*
X393700Y1124204D02*
X393700Y1110996D01*
X419100Y1110996D02*
X419100Y1124204D01*
X292100Y1124204D02*
X292100Y1110996D01*
X317500Y1110996D02*
X317500Y1124204D01*
X368300Y1124204D02*
X368300Y1110996D01*
X342900Y1110996D02*
X342900Y1124204D01*
X419100Y1187196D02*
X419100Y1200404D01*
X393700Y1200404D02*
X393700Y1187196D01*
X368300Y1187196D02*
X368300Y1200404D01*
X342900Y1200404D02*
X342900Y1187196D01*
X317500Y1187196D02*
X317500Y1200404D01*
X292100Y1200404D02*
X292100Y1187196D01*
X266700Y1187196D02*
X266700Y1200404D01*
X241300Y1200404D02*
X241300Y1187196D01*
D15*
X254000Y1079500D03*
X279400Y1079500D03*
X317500Y1079500D03*
X342900Y1079500D03*
D19*
X203200Y1143000D03*
X203200Y1168400D03*
D24*
X406400Y1079500D03*
X381000Y1079500D03*
D15*
X241300Y1219200D03*
X266700Y1219200D03*
D25*
X190500Y825500D03*
X190500Y800100D03*
X215900Y825500D03*
X215900Y800100D03*
X190500Y889000D03*
X190500Y863600D03*
X215900Y889000D03*
X215900Y863600D03*
X190500Y952500D03*
X190500Y927100D03*
X215900Y952500D03*
X215900Y927100D03*
D19*
X38100Y88900D03*
X38100Y114300D03*
X38100Y139700D03*
X38100Y165100D03*
X38100Y190500D03*
X38100Y215900D03*
X38100Y241300D03*
X38100Y266700D03*
X38100Y292100D03*
X38100Y317500D03*
X38100Y342900D03*
X38100Y368300D03*
X38100Y393700D03*
X38100Y419100D03*
X38100Y444500D03*
X38100Y469900D03*
D16*
X120396Y88900D02*
X133604Y88900D01*
X133604Y114300D02*
X120396Y114300D01*
X120396Y139700D02*
X133604Y139700D01*
X133604Y165100D02*
X120396Y165100D01*
X120396Y190500D02*
X133604Y190500D01*
X133604Y215900D02*
X120396Y215900D01*
X120396Y241300D02*
X133604Y241300D01*
X133604Y266700D02*
X120396Y266700D01*
X120396Y292100D02*
X133604Y292100D01*
X933196Y1219200D02*
X946404Y1219200D01*
X946404Y1193800D02*
X933196Y1193800D01*
X933196Y1066800D02*
X946404Y1066800D01*
X1009396Y1066800D02*
X1022604Y1066800D01*
X946404Y1168400D02*
X933196Y1168400D01*
X933196Y1143000D02*
X946404Y1143000D01*
X946404Y1092200D02*
X933196Y1092200D01*
X933196Y1117600D02*
X946404Y1117600D01*
X1009396Y1092200D02*
X1022604Y1092200D01*
X1022604Y1117600D02*
X1009396Y1117600D01*
X1009396Y1143000D02*
X1022604Y1143000D01*
X1022604Y1168400D02*
X1009396Y1168400D01*
X1009396Y1193800D02*
X1022604Y1193800D01*
X1022604Y1219200D02*
X1009396Y1219200D01*
D15*
X1638300Y330200D03*
X1689100Y330200D03*
D16*
X882904Y1219200D02*
X869696Y1219200D01*
X869696Y1193800D02*
X882904Y1193800D01*
X882904Y1168400D02*
X869696Y1168400D01*
X869696Y1143000D02*
X882904Y1143000D01*
X882904Y1117600D02*
X869696Y1117600D01*
X184404Y266700D02*
X171196Y266700D01*
X171196Y241300D02*
X184404Y241300D01*
X184404Y114300D02*
X171196Y114300D01*
X171196Y88900D02*
X184404Y88900D01*
X184404Y215900D02*
X171196Y215900D01*
X171196Y190500D02*
X184404Y190500D01*
X184404Y139700D02*
X171196Y139700D01*
X171196Y165100D02*
X184404Y165100D01*
X184404Y63500D02*
X171196Y63500D01*
X171196Y38100D02*
X184404Y38100D01*
X247396Y38100D02*
X260604Y38100D01*
X260604Y63500D02*
X247396Y63500D01*
X247396Y88900D02*
X260604Y88900D01*
X260604Y114300D02*
X247396Y114300D01*
X247396Y139700D02*
X260604Y139700D01*
X260604Y165100D02*
X247396Y165100D01*
X247396Y190500D02*
X260604Y190500D01*
X260604Y215900D02*
X247396Y215900D01*
X247396Y241300D02*
X260604Y241300D01*
X260604Y266700D02*
X247396Y266700D01*
X546100Y1161796D02*
X546100Y1175004D01*
X571500Y1175004D02*
X571500Y1161796D01*
X571500Y1237996D02*
X571500Y1251204D01*
X546100Y1251204D02*
X546100Y1237996D01*
X596900Y1175004D02*
X596900Y1161796D01*
X622300Y1161796D02*
X622300Y1175004D01*
X596900Y1237996D02*
X596900Y1251204D01*
X622300Y1251204D02*
X622300Y1237996D01*
X520700Y1124204D02*
X520700Y1110996D01*
X546100Y1110996D02*
X546100Y1124204D01*
X571500Y1124204D02*
X571500Y1110996D01*
X596900Y1110996D02*
X596900Y1124204D01*
X622300Y1124204D02*
X622300Y1110996D01*
D24*
X647700Y800100D03*
X622300Y800100D03*
D23*
X1206500Y1193800D03*
X1206500Y1168400D03*
D24*
X1016000Y1244600D03*
X990600Y1244600D03*
X1016000Y800100D03*
X990600Y800100D03*
X1155700Y1244600D03*
X1130300Y1244600D03*
X1358900Y749300D03*
X1333500Y749300D03*
X1181100Y749300D03*
X1155700Y749300D03*
X1384300Y304800D03*
X1358900Y304800D03*
X1231900Y292100D03*
X1206500Y292100D03*
D23*
X254000Y1016000D03*
X254000Y990600D03*
D24*
X1435100Y25400D03*
X1409700Y25400D03*
X546100Y241300D03*
X520700Y241300D03*
D15*
X1473200Y1130300D03*
X1498600Y1130300D03*
D24*
X723900Y342900D03*
X698500Y342900D03*
X254000Y292100D03*
X228600Y292100D03*
X825500Y1244600D03*
X800100Y1244600D03*
X1079500Y292100D03*
X1054100Y292100D03*
X838200Y800100D03*
X812800Y800100D03*
D19*
X1752600Y38100D03*
X1752600Y63500D03*
D15*
X1714500Y114300D03*
X1790700Y114300D03*
D16*
X578104Y774700D02*
X564896Y774700D01*
X564896Y749300D02*
X578104Y749300D01*
X578104Y723900D02*
X564896Y723900D01*
X564896Y698500D02*
X578104Y698500D01*
X578104Y673100D02*
X564896Y673100D01*
X564896Y647700D02*
X578104Y647700D01*
X578104Y622300D02*
X564896Y622300D01*
X564896Y596900D02*
X578104Y596900D01*
X578104Y571500D02*
X564896Y571500D01*
X564896Y546100D02*
X578104Y546100D01*
X578104Y520700D02*
X564896Y520700D01*
X564896Y495300D02*
X578104Y495300D01*
X641096Y495300D02*
X654304Y495300D01*
X654304Y520700D02*
X641096Y520700D01*
X641096Y546100D02*
X654304Y546100D01*
X654304Y571500D02*
X641096Y571500D01*
X641096Y596900D02*
X654304Y596900D01*
X654304Y622300D02*
X641096Y622300D01*
X641096Y647700D02*
X654304Y647700D01*
X654304Y673100D02*
X641096Y673100D01*
X641096Y698500D02*
X654304Y698500D01*
X654304Y723900D02*
X641096Y723900D01*
X641096Y749300D02*
X654304Y749300D01*
X654304Y774700D02*
X641096Y774700D01*
D26*
X609600Y919988D02*
X609600Y934212D01*
X635000Y934212D02*
X635000Y919988D01*
X660400Y919988D02*
X660400Y934212D01*
X609600Y870712D02*
X609600Y856488D01*
X635000Y856488D02*
X635000Y870712D01*
X660400Y870712D02*
X660400Y856488D01*
D23*
X1473200Y762000D03*
X1473200Y736600D03*
D16*
X1790700Y413004D02*
X1790700Y399796D01*
X1765300Y399796D02*
X1765300Y413004D01*
X1689100Y413004D02*
X1689100Y399796D01*
X1663700Y399796D02*
X1663700Y413004D01*
X1638300Y413004D02*
X1638300Y399796D01*
D24*
X1803400Y368300D03*
X1752600Y368300D03*
D15*
X1638300Y368300D03*
X1689100Y368300D03*
D27*
X1874000Y114300D03*
D28*
X1935000Y114300D03*
X1905000Y162300D03*
D11*
X1828800Y59182D02*
X1828800Y42418D01*
X1828800Y169418D02*
X1828800Y186182D01*
X1511300Y186182D02*
X1511300Y169418D01*
X1511300Y296418D02*
X1511300Y313182D01*
D16*
X476504Y215900D02*
X463296Y215900D01*
X463296Y190500D02*
X476504Y190500D01*
X476504Y63500D02*
X463296Y63500D01*
X463296Y38100D02*
X476504Y38100D01*
X476504Y165100D02*
X463296Y165100D01*
X463296Y139700D02*
X476504Y139700D01*
X476504Y88900D02*
X463296Y88900D01*
X463296Y114300D02*
X476504Y114300D01*
X539496Y38100D02*
X552704Y38100D01*
X552704Y63500D02*
X539496Y63500D01*
X539496Y88900D02*
X552704Y88900D01*
X552704Y114300D02*
X539496Y114300D01*
X539496Y139700D02*
X552704Y139700D01*
X552704Y165100D02*
X539496Y165100D01*
X539496Y190500D02*
X552704Y190500D01*
X552704Y215900D02*
X539496Y215900D01*
X1511300Y552196D02*
X1511300Y565404D01*
X1536700Y565404D02*
X1536700Y552196D01*
X1562100Y552196D02*
X1562100Y565404D01*
X1587500Y565404D02*
X1587500Y552196D01*
X1612900Y552196D02*
X1612900Y565404D01*
X1638300Y565404D02*
X1638300Y552196D01*
D24*
X1676400Y1104900D03*
X1600200Y1104900D03*
D29*
X101600Y761492D03*
X101600Y789178D03*
X101600Y816610D03*
X101600Y844296D03*
X101600Y871982D03*
X101600Y899414D03*
X101600Y927100D03*
X101600Y954786D03*
X101600Y982218D03*
X101600Y1009904D03*
X101600Y1037590D03*
X101600Y1065022D03*
X101600Y1092708D03*
X76200Y775208D03*
X76200Y802894D03*
X76200Y830580D03*
X76200Y858012D03*
X76200Y885698D03*
X76200Y913384D03*
X76200Y940816D03*
X76200Y968502D03*
X76200Y996188D03*
X76200Y1023620D03*
X76200Y1051306D03*
X76200Y1078992D03*
D30*
X88900Y691896D03*
X88900Y1162304D03*
D26*
X246888Y609600D02*
X261112Y609600D01*
X261112Y635000D02*
X246888Y635000D01*
X246888Y660400D02*
X261112Y660400D01*
D17*
X1948180Y698500D02*
X1963420Y698500D01*
X1963420Y723900D02*
X1948180Y723900D01*
X1948180Y749300D02*
X1963420Y749300D01*
X1963420Y774700D02*
X1948180Y774700D01*
X1948180Y800100D02*
X1963420Y800100D01*
X1963420Y825500D02*
X1948180Y825500D01*
X1948180Y850900D02*
X1963420Y850900D01*
X1963420Y876300D02*
X1948180Y876300D01*
X1948180Y901700D02*
X1963420Y901700D01*
X1963420Y927100D02*
X1948180Y927100D01*
X1948180Y952500D02*
X1963420Y952500D01*
X1963420Y977900D02*
X1948180Y977900D01*
X1948180Y1003300D02*
X1963420Y1003300D01*
X1963420Y1028700D02*
X1948180Y1028700D01*
X1948180Y1054100D02*
X1963420Y1054100D01*
X1963420Y1079500D02*
X1948180Y1079500D01*
X1948180Y1104900D02*
X1963420Y1104900D01*
X1963420Y1155700D02*
X1948180Y1155700D01*
X1948180Y1181100D02*
X1963420Y1181100D01*
X1963420Y1130300D02*
X1948180Y1130300D01*
X1948180Y190500D02*
X1963420Y190500D01*
X1963420Y215900D02*
X1948180Y215900D01*
X1948180Y241300D02*
X1963420Y241300D01*
X1963420Y266700D02*
X1948180Y266700D01*
X1948180Y292100D02*
X1963420Y292100D01*
X1963420Y317500D02*
X1948180Y317500D01*
X1948180Y342900D02*
X1963420Y342900D01*
X1963420Y368300D02*
X1948180Y368300D01*
X1948180Y393700D02*
X1963420Y393700D01*
X1963420Y419100D02*
X1948180Y419100D01*
X1948180Y444500D02*
X1963420Y444500D01*
X1963420Y469900D02*
X1948180Y469900D01*
X1948180Y495300D02*
X1963420Y495300D01*
X1963420Y520700D02*
X1948180Y520700D01*
X1948180Y546100D02*
X1963420Y546100D01*
X1963420Y571500D02*
X1948180Y571500D01*
X1948180Y596900D02*
X1963420Y596900D01*
X1963420Y622300D02*
X1948180Y622300D01*
X1948180Y647700D02*
X1963420Y647700D01*
X1963420Y673100D02*
X1948180Y673100D01*
D16*
X1009904Y266700D02*
X996696Y266700D01*
X996696Y241300D02*
X1009904Y241300D01*
X1009904Y114300D02*
X996696Y114300D01*
X996696Y88900D02*
X1009904Y88900D01*
X1009904Y215900D02*
X996696Y215900D01*
X996696Y190500D02*
X1009904Y190500D01*
X1009904Y139700D02*
X996696Y139700D01*
X996696Y165100D02*
X1009904Y165100D01*
X1009904Y63500D02*
X996696Y63500D01*
X996696Y38100D02*
X1009904Y38100D01*
X1072896Y38100D02*
X1086104Y38100D01*
X1086104Y63500D02*
X1072896Y63500D01*
X1072896Y88900D02*
X1086104Y88900D01*
X1086104Y114300D02*
X1072896Y114300D01*
X1072896Y139700D02*
X1086104Y139700D01*
X1086104Y165100D02*
X1072896Y165100D01*
X1072896Y190500D02*
X1086104Y190500D01*
X1086104Y215900D02*
X1072896Y215900D01*
X1072896Y241300D02*
X1086104Y241300D01*
X1086104Y266700D02*
X1072896Y266700D01*
X844804Y266700D02*
X831596Y266700D01*
X831596Y241300D02*
X844804Y241300D01*
X844804Y114300D02*
X831596Y114300D01*
X831596Y88900D02*
X844804Y88900D01*
X844804Y215900D02*
X831596Y215900D01*
X831596Y190500D02*
X844804Y190500D01*
X844804Y139700D02*
X831596Y139700D01*
X831596Y165100D02*
X844804Y165100D01*
X844804Y63500D02*
X831596Y63500D01*
X831596Y38100D02*
X844804Y38100D01*
X907796Y38100D02*
X921004Y38100D01*
X921004Y63500D02*
X907796Y63500D01*
X907796Y88900D02*
X921004Y88900D01*
X921004Y114300D02*
X907796Y114300D01*
X907796Y139700D02*
X921004Y139700D01*
X921004Y165100D02*
X907796Y165100D01*
X907796Y190500D02*
X921004Y190500D01*
X921004Y215900D02*
X907796Y215900D01*
X907796Y241300D02*
X921004Y241300D01*
X921004Y266700D02*
X907796Y266700D01*
D20*
X304800Y927100D03*
X381000Y927100D03*
X381000Y1003300D03*
X304800Y1003300D03*
D15*
X165100Y609600D03*
X190500Y609600D03*
D31*
X457200Y1003300D03*
X457200Y927100D03*
D16*
X311404Y635000D02*
X298196Y635000D01*
X298196Y609600D02*
X311404Y609600D01*
X311404Y584200D02*
X298196Y584200D01*
X298196Y558800D02*
X311404Y558800D01*
X311404Y533400D02*
X298196Y533400D01*
X298196Y508000D02*
X311404Y508000D01*
X311404Y482600D02*
X298196Y482600D01*
X298196Y457200D02*
X311404Y457200D01*
X311404Y431800D02*
X298196Y431800D01*
X298196Y406400D02*
X311404Y406400D01*
X311404Y381000D02*
X298196Y381000D01*
X298196Y355600D02*
X311404Y355600D01*
X311404Y330200D02*
X298196Y330200D01*
X298196Y304800D02*
X311404Y304800D01*
X450596Y304800D02*
X463804Y304800D01*
X463804Y330200D02*
X450596Y330200D01*
X450596Y355600D02*
X463804Y355600D01*
X463804Y381000D02*
X450596Y381000D01*
X450596Y406400D02*
X463804Y406400D01*
X463804Y431800D02*
X450596Y431800D01*
X450596Y457200D02*
X463804Y457200D01*
X463804Y482600D02*
X450596Y482600D01*
X450596Y508000D02*
X463804Y508000D01*
X463804Y533400D02*
X450596Y533400D01*
X450596Y558800D02*
X463804Y558800D01*
X463804Y584200D02*
X450596Y584200D01*
X450596Y609600D02*
X463804Y609600D01*
X463804Y635000D02*
X450596Y635000D01*
X292100Y780796D02*
X292100Y794004D01*
X317500Y794004D02*
X317500Y780796D01*
X444500Y780796D02*
X444500Y794004D01*
X469900Y794004D02*
X469900Y780796D01*
X342900Y780796D02*
X342900Y794004D01*
X368300Y794004D02*
X368300Y780796D01*
X419100Y780796D02*
X419100Y794004D01*
X393700Y794004D02*
X393700Y780796D01*
X469900Y856996D02*
X469900Y870204D01*
X444500Y870204D02*
X444500Y856996D01*
X419100Y856996D02*
X419100Y870204D01*
X393700Y870204D02*
X393700Y856996D01*
X368300Y856996D02*
X368300Y870204D01*
X342900Y870204D02*
X342900Y856996D01*
X317500Y856996D02*
X317500Y870204D01*
X292100Y870204D02*
X292100Y856996D01*
D26*
X261112Y508000D02*
X246888Y508000D01*
X246888Y533400D02*
X261112Y533400D01*
X261112Y558800D02*
X246888Y558800D01*
D23*
X203200Y495300D03*
X203200Y419100D03*
D26*
X246888Y406400D02*
X261112Y406400D01*
X261112Y431800D02*
X246888Y431800D01*
X246888Y457200D02*
X261112Y457200D01*
X1828800Y1186688D02*
X1828800Y1200912D01*
X1854200Y1200912D02*
X1854200Y1186688D01*
X1879600Y1186688D02*
X1879600Y1200912D01*
D32*
X215900Y723900D03*
X215900Y749300D03*
X241300Y723900D03*
X241300Y749300D03*
X266700Y723900D03*
X266700Y749300D03*
X292100Y723900D03*
X292100Y749300D03*
X317500Y723900D03*
X317500Y749300D03*
X342900Y723900D03*
X342900Y749300D03*
X368300Y723900D03*
X368300Y749300D03*
X393700Y723900D03*
X393700Y749300D03*
X419100Y723900D03*
X419100Y749300D03*
X444500Y723900D03*
X444500Y749300D03*
X469900Y723900D03*
X469900Y749300D03*
X495300Y749300D03*
X495300Y723900D03*
D23*
X482600Y571500D03*
X482600Y546100D03*
X266700Y863600D03*
X266700Y838200D03*
D16*
X323596Y215900D02*
X336804Y215900D01*
X336804Y190500D02*
X323596Y190500D01*
X323596Y63500D02*
X336804Y63500D01*
X336804Y38100D02*
X323596Y38100D01*
X323596Y165100D02*
X336804Y165100D01*
X336804Y139700D02*
X323596Y139700D01*
X323596Y88900D02*
X336804Y88900D01*
X336804Y114300D02*
X323596Y114300D01*
X399796Y38100D02*
X413004Y38100D01*
X413004Y63500D02*
X399796Y63500D01*
X399796Y88900D02*
X413004Y88900D01*
X413004Y114300D02*
X399796Y114300D01*
X399796Y139700D02*
X413004Y139700D01*
X413004Y165100D02*
X399796Y165100D01*
X399796Y190500D02*
X413004Y190500D01*
X413004Y215900D02*
X399796Y215900D01*
D24*
X406400Y241300D03*
X381000Y241300D03*
D31*
X1422400Y1219200D03*
X1422400Y1143000D03*
D17*
X330200Y1236980D02*
X330200Y1252220D01*
X355600Y1252220D02*
X355600Y1236980D01*
X381000Y1236980D02*
X381000Y1252220D01*
X406400Y1252220D02*
X406400Y1236980D01*
X431800Y1236980D02*
X431800Y1252220D01*
X457200Y1252220D02*
X457200Y1236980D01*
D19*
X203200Y1041400D03*
X203200Y1066800D03*
X457200Y1117600D03*
X457200Y1143000D03*
X457200Y1054100D03*
X457200Y1079500D03*
D26*
X177800Y1237488D02*
X177800Y1251712D01*
X152400Y1251712D02*
X152400Y1237488D01*
D19*
X457200Y1181100D03*
X457200Y1206500D03*
D24*
X914400Y292100D03*
X889000Y292100D03*
D16*
X616204Y190500D02*
X602996Y190500D01*
X602996Y215900D02*
X616204Y215900D01*
X616204Y241300D02*
X602996Y241300D01*
X602996Y266700D02*
X616204Y266700D01*
X616204Y292100D02*
X602996Y292100D01*
D26*
X787400Y437388D02*
X787400Y451612D01*
X812800Y451612D02*
X812800Y437388D01*
D15*
X812800Y419100D03*
X889000Y419100D03*
M02*
