G04 EAGLE Gerber RS-274X export*
G75*
%MOMM*%
%FSLAX34Y34*%
%LPD*%
%INSilkscreen Bottom*%
%IPPOS*%
%AMOC8*
5,1,8,0,0,1.08239X$1,22.5*%
G01*
%ADD10C,0.152400*%
%ADD11C,0.127000*%


D10*
X378460Y80010D02*
X378460Y123190D01*
X358140Y80010D02*
X358142Y79910D01*
X358148Y79811D01*
X358158Y79711D01*
X358171Y79613D01*
X358189Y79514D01*
X358210Y79417D01*
X358235Y79321D01*
X358264Y79225D01*
X358297Y79131D01*
X358333Y79038D01*
X358373Y78947D01*
X358417Y78857D01*
X358464Y78769D01*
X358514Y78683D01*
X358568Y78599D01*
X358625Y78517D01*
X358685Y78438D01*
X358749Y78360D01*
X358815Y78286D01*
X358884Y78214D01*
X358956Y78145D01*
X359030Y78079D01*
X359108Y78015D01*
X359187Y77955D01*
X359269Y77898D01*
X359353Y77844D01*
X359439Y77794D01*
X359527Y77747D01*
X359617Y77703D01*
X359708Y77663D01*
X359801Y77627D01*
X359895Y77594D01*
X359991Y77565D01*
X360087Y77540D01*
X360184Y77519D01*
X360283Y77501D01*
X360381Y77488D01*
X360481Y77478D01*
X360580Y77472D01*
X360680Y77470D01*
X358140Y123190D02*
X358142Y123290D01*
X358148Y123389D01*
X358158Y123489D01*
X358171Y123587D01*
X358189Y123686D01*
X358210Y123783D01*
X358235Y123879D01*
X358264Y123975D01*
X358297Y124069D01*
X358333Y124162D01*
X358373Y124253D01*
X358417Y124343D01*
X358464Y124431D01*
X358514Y124517D01*
X358568Y124601D01*
X358625Y124683D01*
X358685Y124762D01*
X358749Y124840D01*
X358815Y124914D01*
X358884Y124986D01*
X358956Y125055D01*
X359030Y125121D01*
X359108Y125185D01*
X359187Y125245D01*
X359269Y125302D01*
X359353Y125356D01*
X359439Y125406D01*
X359527Y125453D01*
X359617Y125497D01*
X359708Y125537D01*
X359801Y125573D01*
X359895Y125606D01*
X359991Y125635D01*
X360087Y125660D01*
X360184Y125681D01*
X360283Y125699D01*
X360381Y125712D01*
X360481Y125722D01*
X360580Y125728D01*
X360680Y125730D01*
X375920Y125730D02*
X376020Y125728D01*
X376119Y125722D01*
X376219Y125712D01*
X376317Y125699D01*
X376416Y125681D01*
X376513Y125660D01*
X376609Y125635D01*
X376705Y125606D01*
X376799Y125573D01*
X376892Y125537D01*
X376983Y125497D01*
X377073Y125453D01*
X377161Y125406D01*
X377247Y125356D01*
X377331Y125302D01*
X377413Y125245D01*
X377492Y125185D01*
X377570Y125121D01*
X377644Y125055D01*
X377716Y124986D01*
X377785Y124914D01*
X377851Y124840D01*
X377915Y124762D01*
X377975Y124683D01*
X378032Y124601D01*
X378086Y124517D01*
X378136Y124431D01*
X378183Y124343D01*
X378227Y124253D01*
X378267Y124162D01*
X378303Y124069D01*
X378336Y123975D01*
X378365Y123879D01*
X378390Y123783D01*
X378411Y123686D01*
X378429Y123587D01*
X378442Y123489D01*
X378452Y123389D01*
X378458Y123290D01*
X378460Y123190D01*
X378460Y80010D02*
X378458Y79910D01*
X378452Y79811D01*
X378442Y79711D01*
X378429Y79613D01*
X378411Y79514D01*
X378390Y79417D01*
X378365Y79321D01*
X378336Y79225D01*
X378303Y79131D01*
X378267Y79038D01*
X378227Y78947D01*
X378183Y78857D01*
X378136Y78769D01*
X378086Y78683D01*
X378032Y78599D01*
X377975Y78517D01*
X377915Y78438D01*
X377851Y78360D01*
X377785Y78286D01*
X377716Y78214D01*
X377644Y78145D01*
X377570Y78079D01*
X377492Y78015D01*
X377413Y77955D01*
X377331Y77898D01*
X377247Y77844D01*
X377161Y77794D01*
X377073Y77747D01*
X376983Y77703D01*
X376892Y77663D01*
X376799Y77627D01*
X376705Y77594D01*
X376609Y77565D01*
X376513Y77540D01*
X376416Y77519D01*
X376317Y77501D01*
X376219Y77488D01*
X376119Y77478D01*
X376020Y77472D01*
X375920Y77470D01*
X360680Y77470D01*
X360680Y125730D02*
X375920Y125730D01*
X358140Y123190D02*
X358140Y80010D01*
D11*
X354975Y97003D02*
X353068Y98910D01*
X354975Y97003D02*
X354975Y93190D01*
X353068Y91283D01*
X351162Y91283D01*
X349255Y93190D01*
X349255Y97003D01*
X347348Y98910D01*
X345442Y98910D01*
X343535Y97003D01*
X343535Y93190D01*
X345442Y91283D01*
X345442Y102977D02*
X343535Y104884D01*
X343535Y106790D01*
X345442Y108697D01*
X354975Y108697D01*
X354975Y106790D02*
X354975Y110604D01*
X351162Y114671D02*
X354975Y118484D01*
X343535Y118484D01*
X343535Y114671D02*
X343535Y122297D01*
M02*
